{
DisplayStrings = (
/comment/reply/comment.o/reply.o
);
copyright = "Copyright (c) 2014 by SAPO. All rights reserved.";
customParameters = (
{
name = description;
value = "Copyright (c) 2014 by Pedro Correia & Gon\U00E7alo Fonseca. All rights reserved.";
},
{
name = license;
value = "The MIT License (MIT)\012\012Copyright (c) 2014 SAPO\012\012Permission is hereby granted, free of charge, to any person obtaining a copy\012of this software and associated documentation files (the \"Software\"), to deal\012in the Software without restriction, including without limitation the rights\012to use, copy, modify, merge, publish, distribute, sublicense, and/or sell\012copies of the Software, and to permit persons to whom the Software is\012furnished to do so, subject to the following conditions:\012\012The above copyright notice and this permission notice shall be included in all\012copies or substantial portions of the Software.\012\012THE SOFTWARE IS PROVIDED \"AS IS\", WITHOUT WARRANTY OF ANY KIND, EXPRESS OR\012IMPLIED, INCLUDING BUT NOT LIMITED TO THE WARRANTIES OF MERCHANTABILITY,\012FITNESS FOR A PARTICULAR PURPOSE AND NONINFRINGEMENT. IN NO EVENT SHALL THE\012AUTHORS OR COPYRIGHT HOLDERS BE LIABLE FOR ANY CLAIM, DAMAGES OR OTHER\012LIABILITY, WHETHER IN AN ACTION OF CONTRACT, TORT OR OTHERWISE, ARISING FROM,\012OUT OF OR IN CONNECTION WITH THE SOFTWARE OR THE USE OR OTHER DEALINGS IN THE\012SOFTWARE.";
},
{
name = vendorID;
value = SAPO;
},
{
name = glyphOrder;
value = (
    ".notdef",
    NULL,
    uni000D,
    space,
    "triangle.up",
    "triangle.right",
    "triangle.down",
    "triangle.left",
    "chevron.up",
    "chevron.down",
    "chevron.left",
    "chevron.right",
    "arrow.up",
    "arrow.right",
    "arrow.down",
    "arrow.left",
    "circle.triangle.up.outline",
    "circle.triangle.down.outline",
    "circle.triangle.left.outline",
    "circle.triangle.right.outline",
    "circle.triangle.up",
    "circle.triangle.down",
    "circle.triangle.left",

glyphs = (
{
glyphname = triangle.up;
lastChange = "2014-06-16 13:53:22 +0000";
layers = (
{
hints = (
{
horizontal = 1;
origin = "{0, 0}";
target = "{0, 13}";
},
{
origin = "{0, 6}";
target = "{0, 20}";
}
);
layerId = "D0C94BA9-7956-4545-877F-F891ABB04BC1";
name = Regular;
paths = (
{
closed = 1;
nodes = (
"33 102 LINE SMOOTH",
"20 102 OFFCURVE",
"12 108 OFFCURVE",
"7 119 CURVE",
"6 122 OFFCURVE",
"5 125 OFFCURVE",
"5 130 CURVE SMOOTH",
"5 138 OFFCURVE",
"8 145 OFFCURVE",
"13 150 CURVE SMOOTH",
"288 426 LINE",
"295 431 OFFCURVE",
"301 434 OFFCURVE",
"308 434 CURVE SMOOTH",
"316 434 OFFCURVE",
"323 431 OFFCURVE",
"328 426 CURVE SMOOTH",
"604 150 LINE SMOOTH",
"609 145 OFFCURVE",
"612 138 OFFCURVE",
"612 130 CURVE SMOOTH",
"612 126 OFFCURVE",
"611 123 OFFCURVE",
"610 119 CURVE",
"604 108 OFFCURVE",
"595 102 OFFCURVE",
"584 102 CURVE SMOOTH"
);
}
);
width = 617;
}
);
unicode = E000;
},
{
glyphname = triangle.right;
lastChange = "2014-06-16 13:53:28 +0000";
layers = (
{
hints = (
{
horizontal = 1;
origin = "{0, 20}";
target = "{0, 6}";
},
{
origin = "{0, 26}";
target = "{0, 13}";
}
);
layerId = "D0C94BA9-7956-4545-877F-F891ABB04BC1";
name = Regular;
paths = (
{
closed = 1;
nodes = (
"5 549 LINE SMOOTH",
"5 562 OFFCURVE",
"11 570 OFFCURVE",
"22 575 CURVE",
"25 576 OFFCURVE",
"28 577 OFFCURVE",
"33 577 CURVE SMOOTH",
"41 577 OFFCURVE",
"48 574 OFFCURVE",
"53 569 CURVE SMOOTH",
"329 294 LINE",
"334 287 OFFCURVE",
"337 281 OFFCURVE",
"337 274 CURVE SMOOTH",
"337 266 OFFCURVE",
"334 259 OFFCURVE",
"329 254 CURVE SMOOTH",
"53 -22 LINE SMOOTH",
"48 -27 OFFCURVE",
"41 -30 OFFCURVE",
"33 -30 CURVE SMOOTH",
"29 -30 OFFCURVE",
"26 -29 OFFCURVE",
"22 -28 CURVE",
"11 -23 OFFCURVE",
"5 -14 OFFCURVE",
"5 -2 CURVE SMOOTH"
);
}
);
width = 342;
}
);
unicode = E001;
},
{
glyphname = triangle.down;
lastChange = "2014-06-16 13:53:39 +0000";
layers = (
{
hints = (
{
horizontal = 1;
origin = "{0, 13}";
target = "{0, 26}";
},
{
origin = "{0, 20}";
target = "{0, 6}";
}
);
layerId = "D0C94BA9-7956-4545-877F-F891ABB04BC1";
name = Regular;
paths = (
{
closed = 1;
nodes = (
"584 445 LINE SMOOTH",
"595 445 OFFCURVE",
"604 439 OFFCURVE",
"610 428 CURVE",
"611 424 OFFCURVE",
"612 421 OFFCURVE",
"612 417 CURVE SMOOTH",
"612 409 OFFCURVE",
"609 402 OFFCURVE",
"604 397 CURVE SMOOTH",
"328 121 LINE SMOOTH",
"323 116 OFFCURVE",
"316 113 OFFCURVE",
"308 113 CURVE SMOOTH",
"301 113 OFFCURVE",
"295 116 OFFCURVE",
"288 121 CURVE",
"13 397 LINE SMOOTH",
"8 402 OFFCURVE",
"5 409 OFFCURVE",
"5 417 CURVE SMOOTH",
"5 422 OFFCURVE",
"6 425 OFFCURVE",
"7 428 CURVE",
"12 439 OFFCURVE",
"20 445 OFFCURVE",
"33 445 CURVE SMOOTH"
);
}
);
width = 617;
}
);
unicode = E002;
},
{
glyphname = triangle.left;
lastChange = "2014-06-16 13:53:46 +0000";
layers = (
{
guideLines = (
{
position = "{310, -31}";
},
{
position = "{309, 577}";
}
);
hints = (
{
horizontal = 1;
place = "{-3060.000000, 100.000000}";
},
{
origin = "{0, 7}";
target = "{0, 0}";
},
{
horizontal = 1;
place = "{-31.000000, 608.000000}";
},
{
horizontal = 1;
place = "{-33.601562, 0.000000}";
}
);
layerId = "D0C94BA9-7956-4545-877F-F891ABB04BC1";
name = Regular;
paths = (
{
closed = 1;
nodes = (
"337 -2 LINE SMOOTH",
"337 -27 OFFCURVE",
"308 -41 OFFCURVE",
"289 -22 CURVE SMOOTH",
"13 253 LINE",
"8 260 OFFCURVE",
"5 266 OFFCURVE",
"5 273 CURVE SMOOTH",
"5 281 OFFCURVE",
"8 288 OFFCURVE",
"13 293 CURVE SMOOTH",
"289 569 LINE SMOOTH",
"294 574 OFFCURVE",
"301 577 OFFCURVE",
"309 577 CURVE SMOOTH",
"313 577 OFFCURVE",
"316 576 OFFCURVE",
"320 575 CURVE",
"331 569 OFFCURVE",
"337 560 OFFCURVE",
"337 549 CURVE SMOOTH"
);
}
);
width = 342;
}
);
unicode = E003;
},
{
glyphname = chevron.up;
lastChange = "2014-06-16 13:54:55 +0000";
layers = (
{
hints = (
{
horizontal = 1;
origin = "{0, 4}";
target = "{0, 11}";
},
{
horizontal = 1;
place = "{10552.000000, 100.000000}";
}
);
layerId = "D0C94BA9-7956-4545-877F-F891ABB04BC1";
name = Regular;
paths = (
{
closed = 1;
nodes = (
"152 115 LINE SMOOTH",
"147 110 OFFCURVE",
"140 107 OFFCURVE",
"132 107 CURVE SMOOTH",
"32 107 LINE SMOOTH",
"8 107 OFFCURVE",
"-5 138 OFFCURVE",
"12 155 CURVE SMOOTH",
"287 431 LINE",
"294 436 OFFCURVE",
"300 439 OFFCURVE",
"307 439 CURVE SMOOTH",
"315 439 OFFCURVE",
"322 436 OFFCURVE",
"327 431 CURVE SMOOTH",
"602 155 LINE SMOOTH",
"621 136 OFFCURVE",
"607 107 OFFCURVE",
"582 107 CURVE SMOOTH",
"482 107 LINE SMOOTH",
"475 107 OFFCURVE",
"469 110 OFFCURVE",
"462 115 CURVE",
"327 250 LINE",
"322 256 OFFCURVE",
"315 259 OFFCURVE",
"307 259 CURVE SMOOTH",
"298 259 OFFCURVE",
"292 256 OFFCURVE",
"287 250 CURVE"
);
}
);
width = 616;
}
);
unicode = E00C;
},
{
glyphname = chevron.down;
lastChange = "2014-06-16 13:54:45 +0000";
layers = (
{
hints = (
{
horizontal = 1;
origin = "{0, 11}";
target = "{0, 18}";
},
{
horizontal = 1;
place = "{10052.000000, 100.000000}";
}
);
layerId = "D0C94BA9-7956-4545-877F-F891ABB04BC1";
name = Regular;
paths = (
{
closed = 1;
nodes = (
"462 431 LINE",
"469 436 OFFCURVE",
"475 439 OFFCURVE",
"482 439 CURVE SMOOTH",
"582 439 LINE SMOOTH",
"607 439 OFFCURVE",
"621 410 OFFCURVE",
"602 390 CURVE SMOOTH",
"327 115 LINE SMOOTH",
"322 110 OFFCURVE",
"315 107 OFFCURVE",
"307 107 CURVE SMOOTH",
"300 107 OFFCURVE",
"294 110 OFFCURVE",
"287 115 CURVE",
"12 390 LINE",
"-5 409 OFFCURVE",
"8 439 OFFCURVE",
"32 439 CURVE SMOOTH",
"132 439 LINE SMOOTH",
"140 439 OFFCURVE",
"147 436 OFFCURVE",
"152 431 CURVE SMOOTH",
"287 295 LINE SMOOTH",
"292 290 OFFCURVE",
"299 287 OFFCURVE",
"307 287 CURVE SMOOTH",
"315 287 OFFCURVE",
"322 290 OFFCURVE",
"327 295 CURVE SMOOTH"
);
}
);
width = 616;
}
);
unicode = E00D;
},
{
glyphname = chevron.left;
lastChange = "2014-06-16 13:54:48 +0000";
layers = (
{
hints = (
{
horizontal = 1;
place = "{-2887.000000, 100.000000}";
},
{
horizontal = 1;
place = "{155.441406, 0.000000}";
},
{
origin = "{0, 14}";
target = "{0, 4}";
}
);
layerId = "D0C94BA9-7956-4545-877F-F891ABB04BC1";
name = Regular;
paths = (
{
closed = 1;
nodes = (
"329 119 LINE SMOOTH",
"334 114 OFFCURVE",
"337 107 OFFCURVE",
"337 99 CURVE SMOOTH",
"337 -1 LINE SMOOTH",
"337 -14 OFFCURVE",
"331 -22 OFFCURVE",
"319 -27 CURVE",
"308 -31 OFFCURVE",
"296 -29 OFFCURVE",
"288 -21 CURVE SMOOTH",
"13 254 LINE SMOOTH",
"8 259 OFFCURVE",
"5 266 OFFCURVE",
"5 274 CURVE SMOOTH",
"5 282 OFFCURVE",
"8 289 OFFCURVE",
"13 294 CURVE SMOOTH",
"288 569 LINE SMOOTH",
"296 577 OFFCURVE",
"308 579 OFFCURVE",
"319 575 CURVE",
"331 570 OFFCURVE",
"337 562 OFFCURVE",
"337 549 CURVE SMOOTH",
"337 449 LINE SMOOTH",
"337 440 OFFCURVE",
"334 434 OFFCURVE",
"328 429 CURVE",
"193 294 LINE SMOOTH",
"188 289 OFFCURVE",
"185 282 OFFCURVE",
"185 274 CURVE SMOOTH",
"185 266 OFFCURVE",
"188 259 OFFCURVE",
"193 254 CURVE SMOOTH"
);
}
);
width = 342;
}
);
unicode = E00E;
},
{
glyphname = chevron.right;
lastChange = "2014-06-16 13:54:51 +0000";
layers = (
{
hints = (
{
horizontal = 1;
place = "{-2973.000000, 100.000000}";
},
{
horizontal = 1;
place = "{80.921875, 0.000000}";
},
{
origin = "{0, 18}";
target = "{0, 11}";
}
);
layerId = "D0C94BA9-7956-4545-877F-F891ABB04BC1";
name = Regular;
paths = (
{
closed = 1;
nodes = (
"13 428 LINE SMOOTH",
"8 433 OFFCURVE",
"5 440 OFFCURVE",
"5 448 CURVE SMOOTH",
"5 548 LINE SMOOTH",
"5 573 OFFCURVE",
"36 585 OFFCURVE",
"53 568 CURVE SMOOTH",
"329 293 LINE SMOOTH",
"334 288 OFFCURVE",
"337 281 OFFCURVE",
"337 273 CURVE SMOOTH",
"337 265 OFFCURVE",
"334 258 OFFCURVE",
"329 253 CURVE SMOOTH",
"53 -22 LINE SMOOTH",
"36 -39 OFFCURVE",
"5 -27 OFFCURVE",
"5 -2 CURVE SMOOTH",
"5 98 LINE SMOOTH",
"5 106 OFFCURVE",
"8 113 OFFCURVE",
"13 118 CURVE SMOOTH",
"148 253 LINE",
"154 258 OFFCURVE",
"157 264 OFFCURVE",
"157 273 CURVE SMOOTH",
"157 281 OFFCURVE",
"154 288 OFFCURVE",
"148 293 CURVE"
);
}
);
width = 342;
}
);
unicode = E00F;
},
{
glyphname = arrow.up;
lastChange = "2014-06-16 13:54:26 +0000";
layers = (
{
hints = (
{
horizontal = 1;
origin = "{0, 18}";
target = "{0, 39}";
},
{
origin = "{0, 32}";
target = "{0, 3}";
}
);
layerId = "D0C94BA9-7956-4545-877F-F891ABB04BC1";
name = Regular;
paths = (
{
closed = 1;
nodes = (
"604 313 LINE SMOOTH",
"609 308 OFFCURVE",
"612 301 OFFCURVE",
"612 293 CURVE SMOOTH",
"612 288 OFFCURVE",
"611 285 OFFCURVE",
"610 282 CURVE",
"605 271 OFFCURVE",
"597 265 OFFCURVE",
"584 265 CURVE SMOOTH",
"464 265 LINE SMOOTH",
"449 265 OFFCURVE",
"436 252 OFFCURVE",
"436 237 CURVE SMOOTH",
"436 -33 LINE SMOOTH",
"436 -48 OFFCURVE",
"423 -61 OFFCURVE",
"408 -61 CURVE SMOOTH",
"208 -61 LINE SMOOTH",
"193 -61 OFFCURVE",
"180 -48 OFFCURVE",
"180 -33 CURVE SMOOTH",
"180 237 LINE SMOOTH",
"180 252 OFFCURVE",
"167 265 OFFCURVE",
"152 265 CURVE SMOOTH",
"33 265 LINE SMOOTH",
"20 265 OFFCURVE",
"12 271 OFFCURVE",
"7 282 CURVE",
"6 286 OFFCURVE",
"5 289 OFFCURVE",
"5 293 CURVE SMOOTH",
"5 301 OFFCURVE",
"8 308 OFFCURVE",
"13 313 CURVE SMOOTH",
"289 589 LINE SMOOTH",
"294 594 OFFCURVE",
"301 597 OFFCURVE",
"309 597 CURVE SMOOTH",
"316 597 OFFCURVE",
"323 594 OFFCURVE",
"328 589 CURVE SMOOTH"
);
}
);
width = 617;
}
);
unicode = E018;
},
{
glyphname = arrow.right;
lastChange = "2014-06-16 13:54:22 +0000";
layers = (
{
hints = (
{
horizontal = 1;
origin = "{0, 3}";
target = "{0, 32}";
},
{
origin = "{0, 17}";
target = "{0, 39}";
}
);
layerId = "D0C94BA9-7956-4545-877F-F891ABB04BC1";
name = Regular;
paths = (
{
closed = 1;
nodes = (
"378 -22 LINE SMOOTH",
"373 -27 OFFCURVE",
"366 -30 OFFCURVE",
"359 -30 CURVE SMOOTH",
"354 -30 OFFCURVE",
"351 -29 OFFCURVE",
"348 -28 CURVE",
"337 -23 OFFCURVE",
"331 -15 OFFCURVE",
"331 -2 CURVE SMOOTH",
"331 118 LINE SMOOTH",
"331 133 OFFCURVE",
"318 146 OFFCURVE",
"303 146 CURVE SMOOTH",
"33 146 LINE SMOOTH",
"17 146 OFFCURVE",
"5 159 OFFCURVE",
"5 174 CURVE SMOOTH",
"5 374 LINE SMOOTH",
"5 389 OFFCURVE",
"17 402 OFFCURVE",
"33 402 CURVE SMOOTH",
"303 402 LINE SMOOTH",
"318 402 OFFCURVE",
"331 415 OFFCURVE",
"331 430 CURVE SMOOTH",
"331 549 LINE SMOOTH",
"331 560 OFFCURVE",
"337 569 OFFCURVE",
"348 575 CURVE",
"352 576 OFFCURVE",
"355 577 OFFCURVE",
"359 577 CURVE SMOOTH",
"366 577 OFFCURVE",
"373 574 OFFCURVE",
"378 569 CURVE SMOOTH",
"654 293 LINE SMOOTH",
"659 288 OFFCURVE",
"662 281 OFFCURVE",
"662 273 CURVE SMOOTH",
"662 266 OFFCURVE",
"659 259 OFFCURVE",
"654 254 CURVE SMOOTH"
);
}
);
width = 667;
}
);
unicode = E019;
},
{
glyphname = arrow.down;
lastChange = "2014-06-16 13:54:16 +0000";
layers = (
{
hints = (
{
horizontal = 1;
origin = "{0, 39}";
target = "{0, 17}";
},
{
origin = "{0, 3}";
target = "{0, 32}";
}
);
layerId = "D0C94BA9-7956-4545-877F-F891ABB04BC1";
name = Regular;
paths = (
{
closed = 1;
nodes = (
"13 234 LINE SMOOTH",
"8 239 OFFCURVE",
"5 246 OFFCURVE",
"5 254 CURVE SMOOTH",
"5 259 OFFCURVE",
"6 262 OFFCURVE",
"7 265 CURVE",
"12 276 OFFCURVE",
"20 282 OFFCURVE",
"33 282 CURVE SMOOTH",
"152 282 LINE SMOOTH",
"167 282 OFFCURVE",
"180 295 OFFCURVE",
"180 310 CURVE SMOOTH",
"180 580 LINE SMOOTH",
"180 595 OFFCURVE",
"192 608 OFFCURVE",
"208 608 CURVE SMOOTH",
"408 608 LINE SMOOTH",
"423 608 OFFCURVE",
"436 595 OFFCURVE",
"436 580 CURVE SMOOTH",
"436 310 LINE SMOOTH",
"436 295 OFFCURVE",
"448 282 OFFCURVE",
"464 282 CURVE SMOOTH",
"584 282 LINE SMOOTH",
"595 282 OFFCURVE",
"604 276 OFFCURVE",
"610 265 CURVE",
"611 261 OFFCURVE",
"612 258 OFFCURVE",
"612 254 CURVE SMOOTH",
"612 246 OFFCURVE",
"609 239 OFFCURVE",
"604 234 CURVE SMOOTH",
"328 -42 LINE SMOOTH",
"323 -47 OFFCURVE",
"316 -50 OFFCURVE",
"308 -50 CURVE SMOOTH",
"301 -50 OFFCURVE",
"295 -47 OFFCURVE",
"288 -42 CURVE"
);
}
);
width = 617;
}
);
unicode = E01A;
},
{
glyphname = arrow.left;
lastChange = "2014-06-16 13:54:19 +0000";
layers = (
{
hints = (
{
horizontal = 1;
origin = "{0, 32}";
target = "{0, 3}";
},
{
origin = "{0, 39}";
target = "{0, 18}";
}
);
layerId = "D0C94BA9-7956-4545-877F-F891ABB04BC1";
name = Regular;
paths = (
{
closed = 1;
nodes = (
"289 569 LINE SMOOTH",
"294 574 OFFCURVE",
"301 577 OFFCURVE",
"309 577 CURVE SMOOTH",
"312 577 OFFCURVE",
"315 576 OFFCURVE",
"319 575 CURVE",
"331 570 OFFCURVE",
"337 561 OFFCURVE",
"337 549 CURVE SMOOTH",
"337 429 LINE SMOOTH",
"337 414 OFFCURVE",
"349 401 OFFCURVE",
"365 401 CURVE SMOOTH",
"635 401 LINE SMOOTH",
"650 401 OFFCURVE",
"663 388 OFFCURVE",
"663 373 CURVE SMOOTH",
"663 173 LINE SMOOTH",
"663 158 OFFCURVE",
"650 145 OFFCURVE",
"635 145 CURVE SMOOTH",
"365 145 LINE SMOOTH",
"349 145 OFFCURVE",
"337 132 OFFCURVE",
"337 117 CURVE SMOOTH",
"337 -2 LINE SMOOTH",
"337 -15 OFFCURVE",
"331 -23 OFFCURVE",
"319 -28 CURVE",
"317 -29 OFFCURVE",
"314 -30 OFFCURVE",
"309 -30 CURVE SMOOTH",
"301 -30 OFFCURVE",
"294 -27 OFFCURVE",
"289 -22 CURVE SMOOTH",
"13 254 LINE SMOOTH",
"8 259 OFFCURVE",
"5 266 OFFCURVE",
"5 273 CURVE SMOOTH",
"5 281 OFFCURVE",
"8 288 OFFCURVE",
"13 293 CURVE SMOOTH"
);
}
);
width = 668;
}
);
unicode = E01B;
},
{
glyphname = square.check;
lastChange = "2014-06-16 13:56:06 +0000";
layers = (
{
hints = (
{
horizontal = 1;
origin = "{0, 7}";
target = "{0, 20}";
},
{
origin = "{0, 13}";
target = "{0, 0}";
}
);
layerId = "D0C94BA9-7956-4545-877F-F891ABB04BC1";
name = Regular;
paths = (
{
closed = 1;
nodes = (
"865 -7 LINE SMOOTH",
"865 -48 OFFCURVE",
"848 -86 OFFCURVE",
"821 -113 CURVE SMOOTH",
"794 -140 OFFCURVE",
"756 -157 OFFCURVE",
"715 -157 CURVE SMOOTH",
"155 -157 LINE SMOOTH",
"114 -157 OFFCURVE",
"76 -140 OFFCURVE",
"49 -113 CURVE SMOOTH",
"22 -86 OFFCURVE",
"5 -48 OFFCURVE",
"5 -7 CURVE SMOOTH",
"5 553 LINE SMOOTH",
"5 594 OFFCURVE",
"22 632 OFFCURVE",
"49 659 CURVE SMOOTH",
"76 686 OFFCURVE",
"114 703 OFFCURVE",
"155 703 CURVE SMOOTH",
"715 703 LINE SMOOTH",
"756 703 OFFCURVE",
"794 686 OFFCURVE",
"821 659 CURVE SMOOTH",
"848 632 OFFCURVE",
"865 594 OFFCURVE",
"865 553 CURVE SMOOTH"
);
},
{
closed = 1;
nodes = (
"716 394 LINE",
"723 402 OFFCURVE",
"726 410 OFFCURVE",
"726 418 CURVE SMOOTH",
"726 426 OFFCURVE",
"723 434 OFFCURVE",
"716 442 CURVE",
"670 487 LINE",
"662 494 OFFCURVE",
"654 497 OFFCURVE",
"646 497 CURVE SMOOTH",
"637 497 OFFCURVE",
"630 494 OFFCURVE",
"623 487 CURVE SMOOTH",
"356 220 LINE",
"247 329 LINE",
"239 336 OFFCURVE",
"231 339 OFFCURVE",
"223 339 CURVE SMOOTH",
"214 339 OFFCURVE",
"207 336 OFFCURVE",
"200 329 CURVE SMOOTH",
"154 283 LINE SMOOTH",
"147 276 OFFCURVE",
"144 269 OFFCURVE",
"144 260 CURVE SMOOTH",
"144 251 OFFCURVE",
"147 243 OFFCURVE",
"154 236 CURVE SMOOTH",
"332 58 LINE",
"338 51 OFFCURVE",
"346 48 OFFCURVE",
"355 48 CURVE SMOOTH",
"364 48 OFFCURVE",
"372 51 OFFCURVE",
"379 58 CURVE SMOOTH"
);
}
);
width = 870;
}
);
unicode = E01D;
},
{
glyphname = square.plus;
lastChange = "2014-06-17 10:30:54 +0000";
layers = (
{
hints = (
{
horizontal = 1;
origin = "{1, 21}";
target = "{1, 14}";
},
{
origin = "{1, 23}";
target = "{1, 30}";
}
);
layerId = "D0C94BA9-7956-4545-877F-F891ABB04BC1";
name = Regular;
paths = (
{
closed = 1;
nodes = (
"715 703 LINE SMOOTH",
"756 703 OFFCURVE",
"794 686 OFFCURVE",
"821 659 CURVE SMOOTH",
"848 632 OFFCURVE",
"865 594 OFFCURVE",
"865 553 CURVE SMOOTH",
"865 -7 LINE SMOOTH",
"865 -48 OFFCURVE",
"848 -86 OFFCURVE",
"821 -113 CURVE SMOOTH",
"794 -140 OFFCURVE",
"756 -157 OFFCURVE",
"715 -157 CURVE SMOOTH",
"155 -157 LINE SMOOTH",
"114 -157 OFFCURVE",
"76 -140 OFFCURVE",
"49 -113 CURVE SMOOTH",
"22 -86 OFFCURVE",
"5 -48 OFFCURVE",
"5 -7 CURVE SMOOTH",
"5 553 LINE SMOOTH",
"5 594 OFFCURVE",
"22 632 OFFCURVE",
"49 659 CURVE SMOOTH",
"76 686 OFFCURVE",
"114 703 OFFCURVE",
"155 703 CURVE SMOOTH"
);
},
{
closed = 1;
nodes = (
"725 303 LINE SMOOTH",
"725 326 OFFCURVE",
"708 343 OFFCURVE",
"685 343 CURVE SMOOTH",
"505 343 LINE",
"505 523 LINE SMOOTH",
"505 546 OFFCURVE",
"488 563 OFFCURVE",
"465 563 CURVE SMOOTH",
"405 563 LINE SMOOTH",
"382 563 OFFCURVE",
"365 546 OFFCURVE",
"365 523 CURVE SMOOTH",
"365 343 LINE",
"185 343 LINE SMOOTH",
"162 343 OFFCURVE",
"145 326 OFFCURVE",
"145 303 CURVE SMOOTH",
"145 243 LINE SMOOTH",
"145 220 OFFCURVE",
"162 203 OFFCURVE",
"185 203 CURVE SMOOTH",
"365 203 LINE",
"365 23 LINE SMOOTH",
"365 0 OFFCURVE",
"382 -17 OFFCURVE",
"405 -17 CURVE SMOOTH",
"465 -17 LINE SMOOTH",
"488 -17 OFFCURVE",
"505 0 OFFCURVE",
"505 23 CURVE SMOOTH",
"505 203 LINE",
"685 203 LINE SMOOTH",
"708 203 OFFCURVE",
"725 220 OFFCURVE",
"725 243 CURVE SMOOTH"
);
}
);
width = 870;
}
);
unicode = E01E;
},
{
glyphname = square.minus;
lastChange = "2014-06-16 13:55:27 +0000";
layers = (
{
hints = (
{
horizontal = 1;
origin = "{1, 11}";
target = "{1, 4}";
},
{
origin = "{0, 20}";
target = "{0, 7}";
}
);
layerId = "D0C94BA9-7956-4545-877F-F891ABB04BC1";
name = Regular;
paths = (
{
closed = 1;
nodes = (
"715 703 LINE SMOOTH",
"756 703 OFFCURVE",
"794 686 OFFCURVE",
"821 659 CURVE SMOOTH",
"848 632 OFFCURVE",
"865 594 OFFCURVE",
"865 553 CURVE SMOOTH",
"865 -7 LINE SMOOTH",
"865 -48 OFFCURVE",
"848 -86 OFFCURVE",
"821 -113 CURVE SMOOTH",
"794 -140 OFFCURVE",
"756 -157 OFFCURVE",
"715 -157 CURVE SMOOTH",
"155 -157 LINE SMOOTH",
"114 -157 OFFCURVE",
"76 -140 OFFCURVE",
"49 -113 CURVE SMOOTH",
"22 -86 OFFCURVE",
"5 -48 OFFCURVE",
"5 -7 CURVE SMOOTH",
"5 553 LINE SMOOTH",
"5 594 OFFCURVE",
"22 632 OFFCURVE",
"49 659 CURVE SMOOTH",
"76 686 OFFCURVE",
"114 703 OFFCURVE",
"155 703 CURVE SMOOTH"
);
},
{
closed = 1;
nodes = (
"725 303 LINE SMOOTH",
"725 326 OFFCURVE",
"708 343 OFFCURVE",
"685 343 CURVE SMOOTH",
"185 343 LINE SMOOTH",
"162 343 OFFCURVE",
"145 326 OFFCURVE",
"145 303 CURVE SMOOTH",
"145 243 LINE SMOOTH",
"145 220 OFFCURVE",
"162 203 OFFCURVE",
"185 203 CURVE SMOOTH",
"685 203 LINE SMOOTH",
"708 203 OFFCURVE",
"725 220 OFFCURVE",
"725 243 CURVE SMOOTH"
);
}
);
width = 870;
}
);
unicode = E01F;
},
{
glyphname = square.x;
lastChange = "2014-06-16 13:55:16 +0000";
layers = (
{
hints = (
{
horizontal = 1;
origin = "{0, 14}";
target = "{0, 27}";
},
{
origin = "{0, 20}";
target = "{0, 7}";
}
);
layerId = "D0C94BA9-7956-4545-877F-F891ABB04BC1";
name = Regular;
paths = (
{
closed = 1;
nodes = (
"715 703 LINE SMOOTH",
"756 703 OFFCURVE",
"794 686 OFFCURVE",
"821 659 CURVE SMOOTH",
"848 631 OFFCURVE",
"865 594 OFFCURVE",
"865 553 CURVE SMOOTH",
"865 -7 LINE SMOOTH",
"865 -48 OFFCURVE",
"848 -86 OFFCURVE",
"821 -113 CURVE SMOOTH",
"794 -140 OFFCURVE",
"756 -157 OFFCURVE",
"715 -157 CURVE SMOOTH",
"155 -157 LINE SMOOTH",
"114 -157 OFFCURVE",
"76 -140 OFFCURVE",
"49 -113 CURVE SMOOTH",
"22 -86 OFFCURVE",
"5 -48 OFFCURVE",
"5 -7 CURVE SMOOTH",
"5 553 LINE SMOOTH",
"5 594 OFFCURVE",
"22 631 OFFCURVE",
"49 659 CURVE SMOOTH",
"76 686 OFFCURVE",
"114 703 OFFCURVE",
"155 703 CURVE SMOOTH"
);
},
{
closed = 1;
nodes = (
"534 272 LINE",
"662 400 LINE SMOOTH",
"669 407 OFFCURVE",
"673 417 OFFCURVE",
"673 428 CURVE SMOOTH",
"673 438 OFFCURVE",
"669 447 OFFCURVE",
"662 456 CURVE",
"619 499 LINE",
"610 506 OFFCURVE",
"601 510 OFFCURVE",
"591 510 CURVE SMOOTH",
"580 510 OFFCURVE",
"570 506 OFFCURVE",
"563 499 CURVE SMOOTH",
"435 371 LINE",
"307 499 LINE SMOOTH",
"299 507 OFFCURVE",
"290 511 OFFCURVE",
"279 511 CURVE SMOOTH",
"268 511 OFFCURVE",
"258 507 OFFCURVE",
"251 499 CURVE",
"208 457 LINE",
"200 450 OFFCURVE",
"196 440 OFFCURVE",
"196 429 CURVE SMOOTH",
"196 418 OFFCURVE",
"200 408 OFFCURVE",
"208 400 CURVE SMOOTH",
"336 272 LINE",
"209 145 LINE SMOOTH",
"201 137 OFFCURVE",
"197 127 OFFCURVE",
"197 116 CURVE SMOOTH",
"197 105 OFFCURVE",
"201 96 OFFCURVE",
"209 88 CURVE SMOOTH",
"252 46 LINE SMOOTH",
"260 38 OFFCURVE",
"269 34 OFFCURVE",
"280 34 CURVE SMOOTH",
"291 34 OFFCURVE",
"300 38 OFFCURVE",
"308 46 CURVE SMOOTH",
"435 173 LINE",
"562 47 LINE SMOOTH",
"570 39 OFFCURVE",
"579 35 OFFCURVE",
"590 35 CURVE SMOOTH",
"601 35 OFFCURVE",
"610 39 OFFCURVE",
"618 47 CURVE SMOOTH",
"661 89 LINE SMOOTH",
"669 97 OFFCURVE",
"673 106 OFFCURVE",
"673 117 CURVE SMOOTH",
"673 128 OFFCURVE",
"669 138 OFFCURVE",
"661 146 CURVE SMOOTH"
);
}
);
width = 870;
}
);
unicode = E020;
},
{
glyphname = square.x.outline;
lastChange = "2014-06-17 10:30:54 +0000";
layers = (
{
hints = (
{
horizontal = 1;
origin = "{1, 11}";
target = "{2, 21}";
},
{
horizontal = 1;
origin = "{2, 45}";
target = "{1, 4}";
},
{
origin = "{1, 8}";
target = "{2, 30}";
},
{
origin = "{2, 6}";
target = "{1, 15}";
}
);
layerId = "D0C94BA9-7956-4545-877F-F891ABB04BC1";
name = Regular;
paths = (
{
closed = 1;
nodes = (
"694 703 LINE SMOOTH",
"742 703 OFFCURVE",
"784 684 OFFCURVE",
"815 653 CURVE SMOOTH",
"846 621 OFFCURVE",
"865 579 OFFCURVE",
"865 532 CURVE SMOOTH",
"865 14 LINE SMOOTH",
"865 -33 OFFCURVE",
"846 -76 OFFCURVE",
"815 -107 CURVE SMOOTH",
"784 -138 OFFCURVE",
"742 -157 OFFCURVE",
"694 -157 CURVE SMOOTH",
"176 -157 LINE SMOOTH",
"129 -157 OFFCURVE",
"86 -138 OFFCURVE",
"55 -107 CURVE SMOOTH",
"24 -76 OFFCURVE",
"5 -33 OFFCURVE",
"5 14 CURVE SMOOTH",
"5 532 LINE SMOOTH",
"5 579 OFFCURVE",
"24 621 OFFCURVE",
"55 653 CURVE SMOOTH",
"86 684 OFFCURVE",
"129 703 OFFCURVE",
"176 703 CURVE SMOOTH"
);
},
{
closed = 1;
nodes = (
"765 532 LINE SMOOTH",
"765 571 OFFCURVE",
"733 603 OFFCURVE",
"694 603 CURVE SMOOTH",
"176 603 LINE SMOOTH",
"137 603 OFFCURVE",
"105 571 OFFCURVE",
"105 532 CURVE SMOOTH",
"105 14 LINE SMOOTH",
"105 -25 OFFCURVE",
"137 -57 OFFCURVE",
"176 -57 CURVE SMOOTH",
"694 -57 LINE SMOOTH",
"733 -57 OFFCURVE",
"765 -25 OFFCURVE",
"765 14 CURVE SMOOTH"
);
},
{
closed = 1;
nodes = (
"605 203 LINE",
"612 194 OFFCURVE",
"616 185 OFFCURVE",
"616 174 CURVE SMOOTH",
"616 164 OFFCURVE",
"612 155 OFFCURVE",
"605 146 CURVE",
"562 104 LINE SMOOTH",
"554 96 OFFCURVE",
"544 92 OFFCURVE",
"533 92 CURVE SMOOTH",
"522 92 OFFCURVE",
"513 96 OFFCURVE",
"506 104 CURVE",
"436 174 LINE",
"365 103 LINE SMOOTH",
"357 95 OFFCURVE",
"347 91 OFFCURVE",
"336 91 CURVE SMOOTH",
"325 91 OFFCURVE",
"316 95 OFFCURVE",
"308 103 CURVE SMOOTH",
"266 145 LINE SMOOTH",
"258 153 OFFCURVE",
"254 162 OFFCURVE",
"254 173 CURVE SMOOTH",
"254 184 OFFCURVE",
"258 194 OFFCURVE",
"266 202 CURVE SMOOTH",
"337 273 LINE",
"265 344 LINE",
"257 351 OFFCURVE",
"253 361 OFFCURVE",
"253 372 CURVE SMOOTH",
"253 383 OFFCURVE",
"257 393 OFFCURVE",
"265 401 CURVE SMOOTH",
"308 443 LINE SMOOTH",
"316 451 OFFCURVE",
"326 455 OFFCURVE",
"337 455 CURVE SMOOTH",
"348 455 OFFCURVE",
"357 451 OFFCURVE",
"364 443 CURVE",
"436 372 LINE",
"506 442 LINE SMOOTH",
"514 450 OFFCURVE",
"523 454 OFFCURVE",
"534 454 CURVE SMOOTH",
"545 454 OFFCURVE",
"555 450 OFFCURVE",
"563 442 CURVE SMOOTH",
"605 400 LINE SMOOTH",
"613 392 OFFCURVE",
"617 382 OFFCURVE",
"617 371 CURVE SMOOTH",
"617 360 OFFCURVE",
"613 351 OFFCURVE",
"605 343 CURVE SMOOTH",
"535 273 LINE"
);
}
);
width = 870;
}
);
unicode = E025;
},
{
glyphname = square.dash;
lastChange = "2014-06-17 10:30:54 +0000";
layers = (
{
hints = (
{
origin = "{3, 3}";
target = "{3, 5}";
},
{
origin = "{4, 0}";
},
{
horizontal = 1;
origin = "{10, 1}";
},
{
horizontal = 1;
origin = "{1, 1}";
}
);
layerId = "D0C94BA9-7956-4545-877F-F891ABB04BC1";
name = Regular;
paths = (
{
closed = 1;
nodes = (
"620 -157 LINE",
"620 -60 LINE",
"684 -60 LINE SMOOTH",
"711 -60 OFFCURVE",
"736 -48 OFFCURVE",
"752 -25 CURVE",
"830 -83 LINE",
"813 -106 OFFCURVE",
"792 -124 OFFCURVE",
"767 -137 CURVE SMOOTH",
"740 -150 OFFCURVE",
"713 -157 OFFCURVE",
"684 -157 CURVE SMOOTH"
);
},
{
closed = 1;
nodes = (
"552 -157 LINE",
"363 -157 LINE",
"363 -60 LINE",
"552 -60 LINE"
);
},
{
closed = 1;
nodes = (
"295 -157 LINE",
"186 -157 LINE SMOOTH",
"147 -157 OFFCURVE",
"113 -146 OFFCURVE",
"83 -124 CURVE",
"138 -45 LINE",
"152 -55 OFFCURVE",
"168 -60 OFFCURVE",
"186 -60 CURVE SMOOTH",
"295 -60 LINE"
);
},
{
closed = 1;
nodes = (
"24 -56 LINE",
"11 -31 OFFCURVE",
"5 -5 OFFCURVE",
"5 24 CURVE SMOOTH",
"5 153 LINE",
"102 153 LINE",
"102 24 LINE SMOOTH",
"102 12 OFFCURVE",
"105 0 OFFCURVE",
"110 -13 CURVE"
);
},
{
closed = 1;
nodes = (
"768 14 LINE",
"768 197 LINE",
"865 197 LINE",
"865 24 LINE SMOOTH",
"865 21 OFFCURVE",
"865 17 OFFCURVE",
"865 13 CURVE SMOOTH",
"865 9 OFFCURVE",
"865 5 OFFCURVE",
"864 2 CURVE"
);
},
{
closed = 1;
nodes = (
"102 221 LINE",
"5 221 LINE",
"5 410 LINE",
"102 410 LINE"
);
},
{
closed = 1;
nodes = (
"865 264 LINE",
"768 264 LINE",
"768 454 LINE",
"865 454 LINE"
);
},
{
closed = 1;
nodes = (
"102 477 LINE",
"5 477 LINE",
"5 522 LINE SMOOTH",
"5 590 OFFCURVE",
"42 651 OFFCURVE",
"102 682 CURVE",
"147 597 LINE",
"119 582 OFFCURVE",
"102 553 OFFCURVE",
"102 522 CURVE SMOOTH"
);
},
{
closed = 1;
nodes = (
"768 521 LINE",
"768 564 OFFCURVE",
"737 598 OFFCURVE",
"696 605 CURVE",
"710 701 LINE",
"753 694 OFFCURVE",
"792 673 OFFCURVE",
"820 641 CURVE SMOOTH",
"849 608 OFFCURVE",
"865 565 OFFCURVE",
"865 521 CURVE"
);
},
{
closed = 1;
nodes = (
"636 606 LINE",
"447 606 LINE",
"447 703 LINE",
"636 703 LINE"
);
},
{
closed = 1;
nodes = (
"379 606 LINE",
"190 606 LINE",
"190 703 LINE",
"379 703 LINE"
);
}
);
width = 870;
}
);
unicode = E026;
},
{
glyphname = square.check.dash;
lastChange = "2014-06-17 10:30:54 +0000";
layers = (
{
hints = (
{
horizontal = 1;
origin = "{2, 8}";
target = "{11, 6}";
},
{
horizontal = 1;
origin = "{4, 1}";
target = "{6, 1}";
},
{
horizontal = 1;
origin = "{6, 2}";
target = "{8, 0}";
},
{
horizontal = 1;
origin = "{3, 4}";
target = "{5, 1}";
},
{
horizontal = 1;
origin = "{5, 2}";
target = "{7, 1}";
},
{
horizontal = 1;
origin = "{11, 22}";
target = "{10, 1}";
},
{
origin = "{3, 6}";
target = "{11, 7}";
},
{
origin = "{2, 0}";
target = "{1, 1}";
},
{
origin = "{1, 0}";
target = "{0, 0}";
},
{
origin = "{11, 35}";
target = "{4, 0}";
},
{
origin = "{3, 6}";
target = "{10, 1}";
},
{
origin = "{9, 0}";
target = "{8, 3}";
},
{
origin = "{10, 0}";
target = "{9, 1}";
}
);
layerId = "D0C94BA9-7956-4545-877F-F891ABB04BC1";
name = Regular;
paths = (
{
closed = 1;
nodes = (
"620 -157 LINE",
"620 -60 LINE",
"684 -60 LINE SMOOTH",
"711 -60 OFFCURVE",
"736 -48 OFFCURVE",
"752 -25 CURVE",
"830 -83 LINE",
"797 -128 OFFCURVE",
"744 -157 OFFCURVE",
"684 -157 CURVE SMOOTH"
);
},
{
closed = 1;
nodes = (
"552 -157 LINE",
"363 -157 LINE",
"363 -60 LINE",
"552 -60 LINE"
);
},
{
closed = 1;
nodes = (
"295 -157 LINE",
"187 -157 LINE SMOOTH",
"148 -157 OFFCURVE",
"114 -146 OFFCURVE",
"83 -124 CURVE",
"138 -45 LINE",
"153 -55 OFFCURVE",
"169 -60 OFFCURVE",
"187 -60 CURVE SMOOTH",
"295 -60 LINE"
);
},
{
closed = 1;
nodes = (
"24 -56 LINE",
"11 -31 OFFCURVE",
"5 -5 OFFCURVE",
"5 24 CURVE SMOOTH",
"5 153 LINE",
"102 153 LINE",
"102 24 LINE SMOOTH",
"102 11 OFFCURVE",
"105 -1 OFFCURVE",
"111 -13 CURVE"
);
},
{
closed = 1;
nodes = (
"768 14 LINE",
"768 197 LINE",
"865 197 LINE",
"865 24 LINE SMOOTH",
"865 21 OFFCURVE",
"865 17 OFFCURVE",
"865 13 CURVE SMOOTH",
"865 9 OFFCURVE",
"865 5 OFFCURVE",
"864 2 CURVE"
);
},
{
closed = 1;
nodes = (
"102 221 LINE",
"5 221 LINE",
"5 410 LINE",
"102 410 LINE"
);
},
{
closed = 1;
nodes = (
"865 264 LINE",
"768 264 LINE",
"768 454 LINE",
"865 454 LINE"
);
},
{
closed = 1;
nodes = (
"102 477 LINE",
"5 477 LINE",
"5 522 LINE SMOOTH",
"5 590 OFFCURVE",
"43 651 OFFCURVE",
"103 682 CURVE",
"147 597 LINE",
"119 582 OFFCURVE",
"102 553 OFFCURVE",
"102 522 CURVE SMOOTH"
);
},
{
closed = 1;
nodes = (
"768 521 LINE",
"768 564 OFFCURVE",
"737 598 OFFCURVE",
"696 605 CURVE",
"711 701 LINE",
"754 694 OFFCURVE",
"792 673 OFFCURVE",
"820 641 CURVE SMOOTH",
"849 608 OFFCURVE",
"865 565 OFFCURVE",
"865 521 CURVE"
);
},
{
closed = 1;
nodes = (
"636 606 LINE",
"447 606 LINE",
"447 703 LINE",
"636 703 LINE"
);
},
{
closed = 1;
nodes = (
"379 606 LINE",
"190 606 LINE",
"190 703 LINE",
"379 703 LINE"
);
},
{
closed = 1;
nodes = (
"394 87 LINE SMOOTH",
"387 80 OFFCURVE",
"380 77 OFFCURVE",
"371 77 CURVE SMOOTH",
"362 77 OFFCURVE",
"354 80 OFFCURVE",
"347 87 CURVE SMOOTH",
"197 237 LINE",
"190 243 OFFCURVE",
"187 251 OFFCURVE",
"187 260 CURVE SMOOTH",
"187 269 OFFCURVE",
"190 277 OFFCURVE",
"197 284 CURVE SMOOTH",
"242 329 LINE",
"250 336 OFFCURVE",
"258 339 OFFCURVE",
"266 339 CURVE SMOOTH",
"274 339 OFFCURVE",
"282 336 OFFCURVE",
"290 329 CURVE",
"370 249 LINE",
"581 459 LINE",
"589 466 OFFCURVE",
"597 469 OFFCURVE",
"605 469 CURVE SMOOTH",
"612 469 OFFCURVE",
"620 466 OFFCURVE",
"628 459 CURVE",
"674 414 LINE",
"681 408 OFFCURVE",
"684 400 OFFCURVE",
"684 391 CURVE SMOOTH",
"684 382 OFFCURVE",
"681 374 OFFCURVE",
"674 367 CURVE SMOOTH"
);
}
);
width = 870;
}
);
unicode = E027;
},
{
glyphname = square.plus.dash;
lastChange = "2014-06-17 10:30:54 +0000";
layers = (
{
hints = (
{
origin = "{5, 2}";
target = "{5, 3}";
},
{
origin = "{11, 27}";
target = "{11, 34}";
},
{
origin = "{6, 2}";
target = "{6, 3}";
},
{
horizontal = 1;
origin = "{2, 0}";
target = "{2, 9}";
},
{
horizontal = 1;
origin = "{11, 18}";
target = "{11, 25}";
},
{
horizontal = 1;
origin = "{10, 1}";
target = "{10, 2}";
}
);
layerId = "D0C94BA9-7956-4545-877F-F891ABB04BC1";
name = Regular;
paths = (
{
closed = 1;
nodes = (
"620 -157 LINE",
"620 -60 LINE",
"684 -60 LINE SMOOTH",
"711 -60 OFFCURVE",
"736 -48 OFFCURVE",
"752 -25 CURVE",
"830 -83 LINE",
"797 -128 OFFCURVE",
"744 -157 OFFCURVE",
"684 -157 CURVE SMOOTH"
);
},
{
closed = 1;
nodes = (
"552 -157 LINE",
"363 -157 LINE",
"363 -60 LINE",
"552 -60 LINE"
);
},
{
closed = 1;
nodes = (
"295 -157 LINE",
"187 -157 LINE SMOOTH",
"148 -157 OFFCURVE",
"114 -146 OFFCURVE",
"83 -124 CURVE",
"138 -45 LINE",
"152 -55 OFFCURVE",
"168 -60 OFFCURVE",
"187 -60 CURVE SMOOTH",
"295 -60 LINE"
);
},
{
closed = 1;
nodes = (
"24 -56 LINE",
"11 -31 OFFCURVE",
"5 -5 OFFCURVE",
"5 24 CURVE SMOOTH",
"5 153 LINE",
"102 153 LINE",
"102 24 LINE SMOOTH",
"102 11 OFFCURVE",
"105 -1 OFFCURVE",
"111 -13 CURVE"
);
},
{
closed = 1;
nodes = (
"768 14 LINE",
"768 197 LINE",
"865 197 LINE",
"865 24 LINE SMOOTH",
"865 21 OFFCURVE",
"865 17 OFFCURVE",
"865 13 CURVE SMOOTH",
"865 9 OFFCURVE",
"865 5 OFFCURVE",
"864 2 CURVE"
);
},
{
closed = 1;
nodes = (
"102 221 LINE",
"5 221 LINE",
"5 410 LINE",
"102 410 LINE"
);
},
{
closed = 1;
nodes = (
"865 264 LINE",
"768 264 LINE",
"768 454 LINE",
"865 454 LINE"
);
},
{
closed = 1;
nodes = (
"102 477 LINE",
"5 477 LINE",
"5 522 LINE SMOOTH",
"5 590 OFFCURVE",
"42 651 OFFCURVE",
"102 682 CURVE",
"147 597 LINE",
"119 582 OFFCURVE",
"102 553 OFFCURVE",
"102 522 CURVE SMOOTH"
);
},
{
closed = 1;
nodes = (
"768 521 LINE",
"768 564 OFFCURVE",
"737 598 OFFCURVE",
"696 605 CURVE",
"711 701 LINE",
"754 694 OFFCURVE",
"792 673 OFFCURVE",
"820 641 CURVE SMOOTH",
"849 608 OFFCURVE",
"865 565 OFFCURVE",
"865 521 CURVE"
);
},
{
closed = 1;
nodes = (
"636 606 LINE",
"447 606 LINE",
"447 703 LINE",
"636 703 LINE"
);
},
{
closed = 1;
nodes = (
"379 606 LINE",
"190 606 LINE",
"190 703 LINE",
"379 703 LINE"
);
},
{
closed = 1;
nodes = (
"605 343 LINE SMOOTH",
"628 343 OFFCURVE",
"645 326 OFFCURVE",
"645 303 CURVE SMOOTH",
"645 243 LINE SMOOTH",
"645 220 OFFCURVE",
"628 203 OFFCURVE",
"605 203 CURVE SMOOTH",
"506 203 LINE",
"506 103 LINE SMOOTH",
"506 80 OFFCURVE",
"489 63 OFFCURVE",
"466 63 CURVE SMOOTH",
"406 63 LINE SMOOTH",
"383 63 OFFCURVE",
"366 80 OFFCURVE",
"366 103 CURVE SMOOTH",
"366 203 LINE",
"265 203 LINE SMOOTH",
"242 203 OFFCURVE",
"225 220 OFFCURVE",
"225 243 CURVE SMOOTH",
"225 303 LINE SMOOTH",
"225 326 OFFCURVE",
"242 343 OFFCURVE",
"265 343 CURVE SMOOTH",
"366 343 LINE",
"366 443 LINE SMOOTH",
"366 466 OFFCURVE",
"383 483 OFFCURVE",
"406 483 CURVE SMOOTH",
"466 483 LINE SMOOTH",
"489 483 OFFCURVE",
"506 466 OFFCURVE",
"506 443 CURVE SMOOTH",
"506 343 LINE"
);
}
);
width = 870;
}
);
unicode = E028;
},
{
glyphname = square.minus.dash;
lastChange = "2014-06-16 13:55:42 +0000";
layers = (
{
layerId = "D0C94BA9-7956-4545-877F-F891ABB04BC1";
name = Regular;
paths = (
{
closed = 1;
nodes = (
"620 -157 LINE",
"620 -60 LINE",
"684 -60 LINE SMOOTH",
"712 -60 OFFCURVE",
"737 -48 OFFCURVE",
"753 -25 CURVE",
"831 -83 LINE",
"796 -128 OFFCURVE",
"743 -157 OFFCURVE",
"684 -157 CURVE SMOOTH"
);
},
{
closed = 1;
nodes = (
"552 -157 LINE",
"363 -157 LINE",
"363 -60 LINE",
"552 -60 LINE"
);
},
{
closed = 1;
nodes = (
"295 -157 LINE",
"187 -157 LINE SMOOTH",
"148 -157 OFFCURVE",
"114 -146 OFFCURVE",
"84 -124 CURVE",
"139 -45 LINE",
"153 -55 OFFCURVE",
"169 -60 OFFCURVE",
"187 -60 CURVE SMOOTH",
"295 -60 LINE"
);
},
{
closed = 1;
nodes = (
"24 -56 LINE",
"11 -29 OFFCURVE",
"5 -3 OFFCURVE",
"5 24 CURVE SMOOTH",
"5 153 LINE",
"102 153 LINE",
"102 24 LINE SMOOTH",
"102 11 OFFCURVE",
"105 -1 OFFCURVE",
"111 -13 CURVE"
);
},
{
closed = 1;
nodes = (
"768 14 LINE",
"768 197 LINE",
"865 197 LINE",
"865 24 LINE SMOOTH",
"865 21 OFFCURVE",
"865 17 OFFCURVE",
"865 13 CURVE SMOOTH",
"865 9 OFFCURVE",
"865 5 OFFCURVE",
"864 2 CURVE"
);
},
{
closed = 1;
nodes = (
"102 221 LINE",
"5 221 LINE",
"5 410 LINE",
"102 410 LINE"
);
},
{
closed = 1;
nodes = (
"865 264 LINE",
"768 264 LINE",
"768 454 LINE",
"865 454 LINE"
);
},
{
closed = 1;
nodes = (
"102 477 LINE",
"5 477 LINE",
"5 522 LINE SMOOTH",
"5 590 OFFCURVE",
"43 651 OFFCURVE",
"103 682 CURVE",
"148 597 LINE",
"119 582 OFFCURVE",
"102 553 OFFCURVE",
"102 522 CURVE SMOOTH"
);
},
{
closed = 1;
nodes = (
"768 521 LINE",
"768 564 OFFCURVE",
"739 598 OFFCURVE",
"696 605 CURVE",
"711 701 LINE",
"754 694 OFFCURVE",
"792 673 OFFCURVE",
"820 641 CURVE SMOOTH",
"849 608 OFFCURVE",
"865 565 OFFCURVE",
"865 521 CURVE"
);
},
{
closed = 1;
nodes = (
"636 606 LINE",
"447 606 LINE",
"447 703 LINE",
"636 703 LINE"
);
},
{
closed = 1;
nodes = (
"379 606 LINE",
"190 606 LINE",
"190 703 LINE",
"379 703 LINE"
);
},
{
closed = 1;
nodes = (
"645 243 LINE SMOOTH",
"645 220 OFFCURVE",
"628 203 OFFCURVE",
"605 203 CURVE SMOOTH",
"265 203 LINE SMOOTH",
"242 203 OFFCURVE",
"225 220 OFFCURVE",
"225 243 CURVE SMOOTH",
"225 303 LINE SMOOTH",
"225 326 OFFCURVE",
"242 343 OFFCURVE",
"265 343 CURVE SMOOTH",
"605 343 LINE SMOOTH",
"628 343 OFFCURVE",
"645 326 OFFCURVE",
"645 303 CURVE SMOOTH"
);
}
);
width = 870;
}
);
unicode = E029;
},
{
glyphname = square.x.dash;
lastChange = "2014-06-17 10:30:54 +0000";
layers = (
{
layerId = "D0C94BA9-7956-4545-877F-F891ABB04BC1";
name = Regular;
paths = (
{
closed = 1;
nodes = (
"605 203 LINE",
"612 194 OFFCURVE",
"616 185 OFFCURVE",
"616 174 CURVE SMOOTH",
"616 164 OFFCURVE",
"612 155 OFFCURVE",
"605 146 CURVE",
"562 104 LINE SMOOTH",
"554 96 OFFCURVE",
"544 92 OFFCURVE",
"533 92 CURVE SMOOTH",
"522 92 OFFCURVE",
"513 96 OFFCURVE",
"506 104 CURVE",
"436 174 LINE",
"365 103 LINE SMOOTH",
"357 95 OFFCURVE",
"347 91 OFFCURVE",
"336 91 CURVE SMOOTH",
"325 91 OFFCURVE",
"316 95 OFFCURVE",
"308 103 CURVE SMOOTH",
"266 145 LINE SMOOTH",
"258 153 OFFCURVE",
"254 162 OFFCURVE",
"254 173 CURVE SMOOTH",
"254 184 OFFCURVE",
"258 194 OFFCURVE",
"266 202 CURVE SMOOTH",
"337 273 LINE",
"265 344 LINE",
"257 351 OFFCURVE",
"253 361 OFFCURVE",
"253 372 CURVE SMOOTH",
"253 383 OFFCURVE",
"257 393 OFFCURVE",
"265 401 CURVE SMOOTH",
"308 443 LINE SMOOTH",
"316 451 OFFCURVE",
"326 455 OFFCURVE",
"337 455 CURVE SMOOTH",
"348 455 OFFCURVE",
"357 451 OFFCURVE",
"364 443 CURVE",
"436 372 LINE",
"506 442 LINE SMOOTH",
"514 450 OFFCURVE",
"523 454 OFFCURVE",
"534 454 CURVE SMOOTH",
"545 454 OFFCURVE",
"555 450 OFFCURVE",
"563 442 CURVE SMOOTH",
"605 400 LINE SMOOTH",
"613 392 OFFCURVE",
"617 382 OFFCURVE",
"617 371 CURVE SMOOTH",
"617 360 OFFCURVE",
"613 351 OFFCURVE",
"605 343 CURVE SMOOTH",
"535 273 LINE"
);
},
{
closed = 1;
nodes = (
"620 -157 LINE",
"620 -60 LINE",
"684 -60 LINE SMOOTH",
"711 -60 OFFCURVE",
"736 -48 OFFCURVE",
"752 -25 CURVE",
"830 -83 LINE",
"797 -128 OFFCURVE",
"744 -157 OFFCURVE",
"684 -157 CURVE SMOOTH"
);
},
{
closed = 1;
nodes = (
"552 -157 LINE",
"363 -157 LINE",
"363 -60 LINE",
"552 -60 LINE"
);
},
{
closed = 1;
nodes = (
"295 -157 LINE",
"187 -157 LINE SMOOTH",
"148 -157 OFFCURVE",
"114 -146 OFFCURVE",
"83 -124 CURVE",
"138 -45 LINE",
"153 -55 OFFCURVE",
"169 -60 OFFCURVE",
"187 -60 CURVE SMOOTH",
"295 -60 LINE"
);
},
{
closed = 1;
nodes = (
"24 -56 LINE",
"11 -31 OFFCURVE",
"5 -5 OFFCURVE",
"5 24 CURVE SMOOTH",
"5 153 LINE",
"102 153 LINE",
"102 24 LINE SMOOTH",
"102 11 OFFCURVE",
"105 -1 OFFCURVE",
"111 -13 CURVE"
);
},
{
closed = 1;
nodes = (
"768 14 LINE",
"768 197 LINE",
"865 197 LINE",
"865 24 LINE SMOOTH",
"865 21 OFFCURVE",
"865 17 OFFCURVE",
"865 13 CURVE SMOOTH",
"865 9 OFFCURVE",
"865 5 OFFCURVE",
"864 2 CURVE"
);
},
{
closed = 1;
nodes = (
"102 221 LINE",
"5 221 LINE",
"5 410 LINE",
"102 410 LINE"
);
},
{
closed = 1;
nodes = (
"865 264 LINE",
"768 264 LINE",
"768 454 LINE",
"865 454 LINE"
);
},
{
closed = 1;
nodes = (
"102 477 LINE",
"5 477 LINE",
"5 522 LINE SMOOTH",
"5 590 OFFCURVE",
"42 651 OFFCURVE",
"103 682 CURVE",
"147 597 LINE",
"119 582 OFFCURVE",
"102 553 OFFCURVE",
"102 522 CURVE SMOOTH"
);
},
{
closed = 1;
nodes = (
"768 521 LINE",
"768 564 OFFCURVE",
"737 598 OFFCURVE",
"696 605 CURVE",
"711 701 LINE",
"754 694 OFFCURVE",
"792 673 OFFCURVE",
"820 641 CURVE SMOOTH",
"849 608 OFFCURVE",
"865 565 OFFCURVE",
"865 521 CURVE"
);
},
{
closed = 1;
nodes = (
"636 606 LINE",
"447 606 LINE",
"447 703 LINE",
"636 703 LINE"
);
},
{
closed = 1;
nodes = (
"379 606 LINE",
"190 606 LINE",
"190 703 LINE",
"379 703 LINE"
);
}
);
width = 870;
}
);
unicode = E02A;
},
{
glyphname = circle.chevron.left;
lastChange = "2014-06-16 13:55:31 +0000";
layers = (
{
layerId = "D0C94BA9-7956-4545-877F-F891ABB04BC1";
name = Regular;
paths = (
{
closed = 1;
nodes = (
"5 393 OFFCURVE",
"54 500 OFFCURVE",
"132 578 CURVE SMOOTH",
"210 656 OFFCURVE",
"316 704 OFFCURVE",
"435 704 CURVE SMOOTH",
"554 704 OFFCURVE",
"662 656 OFFCURVE",
"740 578 CURVE SMOOTH",
"818 500 OFFCURVE",
"865 393 OFFCURVE",
"865 274 CURVE SMOOTH",
"865 155 OFFCURVE",
"818 49 OFFCURVE",
"740 -29 CURVE SMOOTH",
"662 -107 OFFCURVE",
"554 -156 OFFCURVE",
"435 -156 CURVE SMOOTH",
"316 -156 OFFCURVE",
"210 -107 OFFCURVE",
"132 -29 CURVE SMOOTH",
"54 49 OFFCURVE",
"5 155 OFFCURVE",
"5 274 CURVE SMOOTH"
);
},
{
closed = 1;
nodes = (
"500 488 OFFCURVE",
"497 489 OFFCURVE",
"493 489 CURVE SMOOTH",
"484 489 OFFCURVE",
"478 486 OFFCURVE",
"473 480 CURVE",
"286 294 LINE SMOOTH",
"281 289 OFFCURVE",
"278 283 OFFCURVE",
"278 274 CURVE SMOOTH",
"278 265 OFFCURVE",
"281 259 OFFCURVE",
"286 254 CURVE SMOOTH",
"473 68 LINE",
"478 62 OFFCURVE",
"484 59 OFFCURVE",
"493 59 CURVE SMOOTH",
"497 59 OFFCURVE",
"500 60 OFFCURVE",
"504 61 CURVE",
"516 66 OFFCURVE",
"522 75 OFFCURVE",
"522 88 CURVE SMOOTH",
"522 187 LINE SMOOTH",
"522 195 OFFCURVE",
"519 202 OFFCURVE",
"513 207 CURVE",
"466 254 LINE SMOOTH",
"461 259 OFFCURVE",
"458 266 OFFCURVE",
"458 274 CURVE SMOOTH",
"458 282 OFFCURVE",
"461 289 OFFCURVE",
"466 294 CURVE SMOOTH",
"513 341 LINE",
"519 346 OFFCURVE",
"522 352 OFFCURVE",
"522 361 CURVE SMOOTH",
"522 460 LINE SMOOTH",
"522 473 OFFCURVE",
"516 482 OFFCURVE",
"504 487 CURVE"
);
}
);
width = 870;
}
);
unicode = E016;
},
{
glyphname = clock;
lastChange = "2014-06-16 13:12:30 +0000";
layers = (
{
layerId = "D0C94BA9-7956-4545-877F-F891ABB04BC1";
name = Regular;
paths = (
{
closed = 1;
nodes = (
"854 388 OFFCURVE",
"865 332 OFFCURVE",
"865 273 CURVE SMOOTH",
"865 156 OFFCURVE",
"819 48 OFFCURVE",
"740 -31 CURVE SMOOTH",
"660 -111 OFFCURVE",
"551 -157 OFFCURVE",
"435 -157 CURVE SMOOTH",
"318 -157 OFFCURVE",
"210 -111 OFFCURVE",
"131 -32 CURVE SMOOTH",
"51 48 OFFCURVE",
"5 156 OFFCURVE",
"5 273 CURVE SMOOTH",
"5 389 OFFCURVE",
"51 498 OFFCURVE",
"130 577 CURVE SMOOTH",
"210 657 OFFCURVE",
"318 703 OFFCURVE",
"435 703 CURVE SMOOTH",
"551 703 OFFCURVE",
"660 657 OFFCURVE",
"739 578 CURVE SMOOTH",
"780 537 OFFCURVE",
"810 491 OFFCURVE",
"831 440 CURVE SMOOTH"
);
},
{
closed = 1;
nodes = (
"628 100 OFFCURVE",
"633 111 OFFCURVE",
"633 124 CURVE SMOOTH",
"633 137 OFFCURVE",
"628 149 OFFCURVE",
"619 160 CURVE",
"485 294 LINE",
"485 483 LINE SMOOTH",
"485 511 OFFCURVE",
"463 533 OFFCURVE",
"435 533 CURVE SMOOTH",
"407 533 OFFCURVE",
"385 511 OFFCURVE",
"385 483 CURVE SMOOTH",
"385 273 LINE SMOOTH",
"385 258 OFFCURVE",
"391 245 OFFCURVE",
"403 234 CURVE",
"548 89 LINE SMOOTH",
"557 80 OFFCURVE",
"569 75 OFFCURVE",
"583 75 CURVE SMOOTH",
"598 75 OFFCURVE",
"610 80 OFFCURVE",
"619 89 CURVE"
);
}
);
width = 870;
}
);
unicode = E03A;
},
{
glyphname = clock.reverse;
lastChange = "2014-06-17 10:30:54 +0000";
layers = (
{
layerId = "D0C94BA9-7956-4545-877F-F891ABB04BC1";
name = Regular;
paths = (
{
closed = 1;
nodes = (
"689 80 OFFCURVE",
"677 75 OFFCURVE",
"663 75 CURVE SMOOTH",
"648 75 OFFCURVE",
"637 80 OFFCURVE",
"628 89 CURVE SMOOTH",
"483 234 LINE",
"471 244 OFFCURVE",
"465 257 OFFCURVE",
"465 273 CURVE SMOOTH",
"465 483 LINE SMOOTH",
"465 511 OFFCURVE",
"487 533 OFFCURVE",
"515 533 CURVE SMOOTH",
"542 533 OFFCURVE",
"565 511 OFFCURVE",
"565 483 CURVE SMOOTH",
"565 294 LINE",
"698 160 LINE SMOOTH",
"708 150 OFFCURVE",
"713 138 OFFCURVE",
"713 124 CURVE SMOOTH",
"713 111 OFFCURVE",
"708 99 OFFCURVE",
"698 89 CURVE SMOOTH"
);
},
{
closed = 1;
nodes = (
"934 385 OFFCURVE",
"945 330 OFFCURVE",
"945 273 CURVE SMOOTH",
"945 160 OFFCURVE",
"898 48 OFFCURVE",
"819 -31 CURVE SMOOTH",
"738 -112 OFFCURVE",
"638 -153 OFFCURVE",
"527 -157 CURVE",
"520 -157 OFFCURVE",
"515 -152 OFFCURVE",
"515 -145 CURVE SMOOTH",
"515 -69 LINE SMOOTH",
"515 -61 OFFCURVE",
"519 -57 OFFCURVE",
"526 -57 CURVE SMOOTH",
"606 -56 OFFCURVE",
"688 -21 OFFCURVE",
"748 40 CURVE SMOOTH",
"808 100 OFFCURVE",
"845 185 OFFCURVE",
"845 273 CURVE SMOOTH",
"845 362 OFFCURVE",
"809 445 OFFCURVE",
"748 506 CURVE SMOOTH",
"717 537 OFFCURVE",
"682 560 OFFCURVE",
"643 577 CURVE SMOOTH",
"601 594 OFFCURVE",
"558 603 OFFCURVE",
"515 603 CURVE SMOOTH",
"427 603 OFFCURVE",
"341 566 OFFCURVE",
"281 506 CURVE SMOOTH",
"250 475 OFFCURVE",
"227 440 OFFCURVE",
"210 401 CURVE SMOOTH",
"193 361 OFFCURVE",
"185 317 OFFCURVE",
"185 273 CURVE",
"253 273 LINE SMOOTH",
"259 273 OFFCURVE",
"263 271 OFFCURVE",
"264 266 CURVE",
"265 265 OFFCURVE",
"265 263 OFFCURVE",
"265 261 CURVE SMOOTH",
"265 258 OFFCURVE",
"264 255 OFFCURVE",
"262 252 CURVE",
"144 134 LINE SMOOTH",
"142 132 OFFCURVE",
"139 131 OFFCURVE",
"135 131 CURVE SMOOTH",
"132 131 OFFCURVE",
"129 132 OFFCURVE",
"127 134 CURVE SMOOTH",
"9 252 LINE SMOOTH",
"6 255 OFFCURVE",
"5 258 OFFCURVE",
"5 261 CURVE SMOOTH",
"5 263 OFFCURVE",
"5 265 OFFCURVE",
"6 266 CURVE",
"8 271 OFFCURVE",
"12 273 OFFCURVE",
"17 273 CURVE SMOOTH",
"85 273 LINE",
"85 389 OFFCURVE",
"130 496 OFFCURVE",
"211 577 CURVE SMOOTH",
"250 616 OFFCURVE",
"296 647 OFFCURVE",
"347 669 CURVE SMOOTH",
"400 692 OFFCURVE",
"456 703 OFFCURVE",
"515 703 CURVE SMOOTH",
"634 703 OFFCURVE",
"739 656 OFFCURVE",
"818 577 CURVE SMOOTH",
"859 536 OFFCURVE",
"890 491 OFFCURVE",
"911 440 CURVE SMOOTH"
);
}
);
width = 950;
}
);
unicode = E03B;
},
{
glyphname = stopwatch;
lastChange = "2014-06-16 13:12:31 +0000";
layers = (
{
layerId = "D0C94BA9-7956-4545-877F-F891ABB04BC1";
name = Regular;
paths = (
{
closed = 1;
nodes = (
"350 653 LINE",
"350 681 OFFCURVE",
"372 703 OFFCURVE",
"400 703 CURVE SMOOTH",
"428 703 OFFCURVE",
"450 681 OFFCURVE",
"450 650 CURVE",
"434 652 OFFCURVE",
"417 653 OFFCURVE",
"400 653 CURVE SMOOTH"
);
},
{
closed = 1;
nodes = (
"567 618 OFFCURVE",
"552 625 OFFCURVE",
"536 630 CURVE",
"538 633 LINE",
"546 652 OFFCURVE",
"563 661 OFFCURVE",
"582 661 CURVE SMOOTH",
"598 661 OFFCURVE",
"616 653 OFFCURVE",
"626 638 CURVE SMOOTH",
"631 630 OFFCURVE",
"633 621 OFFCURVE",
"633 612 CURVE SMOOTH",
"633 604 OFFCURVE",
"631 596 OFFCURVE",
"627 588 CURVE",
"626 585 LINE",
"611 594 OFFCURVE",
"597 603 OFFCURVE",
"582 610 CURVE"
);
},
{
closed = 1;
nodes = (
"785 344 OFFCURVE",
"795 293 OFFCURVE",
"795 238 CURVE SMOOTH",
"795 129 OFFCURVE",
"752 31 OFFCURVE",
"680 -41 CURVE SMOOTH",
"607 -114 OFFCURVE",
"509 -157 OFFCURVE",
"400 -157 CURVE SMOOTH",
"291 -157 OFFCURVE",
"193 -114 OFFCURVE",
"121 -42 CURVE SMOOTH",
"48 31 OFFCURVE",
"5 129 OFFCURVE",
"5 238 CURVE SMOOTH",
"5 347 OFFCURVE",
"48 445 OFFCURVE",
"120 517 CURVE SMOOTH",
"193 590 OFFCURVE",
"291 633 OFFCURVE",
"400 633 CURVE SMOOTH",
"509 633 OFFCURVE",
"607 590 OFFCURVE",
"679 518 CURVE SMOOTH",
"716 481 OFFCURVE",
"744 439 OFFCURVE",
"764 392 CURVE SMOOTH"
);
},
{
closed = 1;
nodes = (
"446 431 LINE SMOOTH",
"446 456 OFFCURVE",
"425 477 OFFCURVE",
"400 477 CURVE SMOOTH",
"375 477 OFFCURVE",
"354 456 OFFCURVE",
"354 431 CURVE SMOOTH",
"354 261 LINE SMOOTH",
"354 236 OFFCURVE",
"375 215 OFFCURVE",
"400 215 CURVE SMOOTH",
"425 215 OFFCURVE",
"446 236 OFFCURVE",
"446 261 CURVE SMOOTH"
);
}
);
width = 800;
}
);
unicode = 23F1;
},
{
glyphname = alarm.clock;
lastChange = "2014-06-16 13:53:53 +0000";
layers = (
{
layerId = "D0C94BA9-7956-4545-877F-F891ABB04BC1";
name = Regular;
paths = (
{
closed = 1;
nodes = (
"819 344 OFFCURVE",
"829 293 OFFCURVE",
"829 238 CURVE SMOOTH",
"829 129 OFFCURVE",
"786 31 OFFCURVE",
"714 -41 CURVE SMOOTH",
"641 -114 OFFCURVE",
"543 -157 OFFCURVE",
"434 -157 CURVE SMOOTH",
"325 -157 OFFCURVE",
"227 -114 OFFCURVE",
"155 -42 CURVE SMOOTH",
"82 31 OFFCURVE",
"39 129 OFFCURVE",
"39 238 CURVE SMOOTH",
"39 347 OFFCURVE",
"82 445 OFFCURVE",
"154 517 CURVE SMOOTH",
"227 590 OFFCURVE",
"325 633 OFFCURVE",
"434 633 CURVE SMOOTH",
"543 633 OFFCURVE",
"641 590 OFFCURVE",
"713 518 CURVE SMOOTH",
"750 481 OFFCURVE",
"778 439 OFFCURVE",
"798 392 CURVE SMOOTH"
);
},
{
closed = 1;
nodes = (
"612 78 OFFCURVE",
"616 88 OFFCURVE",
"616 101 CURVE SMOOTH",
"616 114 OFFCURVE",
"612 125 OFFCURVE",
"603 134 CURVE SMOOTH",
"480 257 LINE",
"480 431 LINE SMOOTH",
"480 456 OFFCURVE",
"459 477 OFFCURVE",
"434 477 CURVE SMOOTH",
"409 477 OFFCURVE",
"388 456 OFFCURVE",
"388 431 CURVE SMOOTH",
"388 238 LINE SMOOTH",
"388 223 OFFCURVE",
"394 211 OFFCURVE",
"405 203 CURVE",
"538 69 LINE SMOOTH",
"547 60 OFFCURVE",
"558 55 OFFCURVE",
"570 55 CURVE SMOOTH",
"583 55 OFFCURVE",
"594 60 OFFCURVE",
"603 69 CURVE SMOOTH"
);
},
{
closed = 1;
nodes = (
"587 691 OFFCURVE",
"619 701 OFFCURVE",
"654 703 CURVE",
"663 703 LINE SMOOTH",
"716 703 OFFCURVE",
"765 683 OFFCURVE",
"801 649 CURVE SMOOTH",
"837 615 OFFCURVE",
"860 566 OFFCURVE",
"863 513 CURVE",
"863 501 LINE SMOOTH",
"863 470 OFFCURVE",
"856 441 OFFCURVE",
"843 413 CURVE",
"819 477 OFFCURVE",
"780 533 OFFCURVE",
"731 577 CURVE SMOOTH",
"682 621 OFFCURVE",
"622 655 OFFCURVE",
"557 672 CURVE"
);
},
{
closed = 1;
nodes = (
"246 655 OFFCURVE",
"186 621 OFFCURVE",
"137 577 CURVE SMOOTH",
"88 533 OFFCURVE",
"49 477 OFFCURVE",
"25 413 CURVE",
"12 441 OFFCURVE",
"5 470 OFFCURVE",
"5 501 CURVE SMOOTH",
"5 513 LINE",
"8 566 OFFCURVE",
"31 615 OFFCURVE",
"67 649 CURVE SMOOTH",
"103 683 OFFCURVE",
"152 703 OFFCURVE",
"205 703 CURVE SMOOTH",
"214 703 LINE",
"249 701 OFFCURVE",
"281 691 OFFCURVE",
"311 672 CURVE"
);
}
);
width = 868;
}
);
unicode = E03F;
},
{
glyphname = comment;
lastChange = "2014-06-16 13:12:30 +0000";
layers = (
{
layerId = "D0C94BA9-7956-4545-877F-F891ABB04BC1";
name = Regular;
paths = (
{
closed = 1;
nodes = (
"194 -131 OFFCURVE",
"188 -129 OFFCURVE",
"181 -126 CURVE",
"171 -118 OFFCURVE",
"166 -109 OFFCURVE",
"166 -99 CURVE SMOOTH",
"166 -96 OFFCURVE",
"166 -93 OFFCURVE",
"167 -92 CURVE",
"201 0 LINE",
"172 0 LINE SMOOTH",
"128 0 OFFCURVE",
"86 17 OFFCURVE",
"54 49 CURVE SMOOTH",
"23 80 OFFCURVE",
"5 122 OFFCURVE",
"5 166 CURVE SMOOTH",
"5 465 LINE SMOOTH",
"5 510 OFFCURVE",
"24 552 OFFCURVE",
"54 581 CURVE SMOOTH",
"84 610 OFFCURVE",
"124 629 OFFCURVE",
"171 629 CURVE SMOOTH",
"699 629 LINE SMOOTH",
"743 629 OFFCURVE",
"785 612 OFFCURVE",
"816 581 CURVE SMOOTH",
"847 550 OFFCURVE",
"865 509 OFFCURVE",
"865 465 CURVE SMOOTH",
"865 165 LINE SMOOTH",
"865 120 OFFCURVE",
"847 79 OFFCURVE",
"817 49 CURVE SMOOTH",
"787 19 OFFCURVE",
"745 0 OFFCURVE",
"700 0 CURVE SMOOTH",
"366 0 LINE",
"218 -125 LINE SMOOTH",
"213 -129 OFFCURVE",
"207 -131 OFFCURVE",
"200 -131 CURVE SMOOTH"
);
}
);
width = 870;
}
);
unicode = E036;
},
{
glyphname = reply;
lastChange = "2014-06-17 17:10:27 +0000";
layers = (
{
layerId = "D0C94BA9-7956-4545-877F-F891ABB04BC1";
name = Regular;
paths = (
{
closed = 1;
nodes = (
"441 366 LINE SMOOTH",
"417 366 OFFCURVE",
"396 356 OFFCURVE",
"381 341 CURVE SMOOTH",
"365 325 OFFCURVE",
"355 303 OFFCURVE",
"355 279 CURVE SMOOTH",
"355 98 LINE SMOOTH",
"355 91 OFFCURVE",
"352 88 OFFCURVE",
"345 88 CURVE SMOOTH",
"310 88 LINE",
"188 -15 LINE",
"183 -18 OFFCURVE",
"177 -20 OFFCURVE",
"172 -20 CURVE SMOOTH",
"169 -20 OFFCURVE",
"164 -19 OFFCURVE",
"157 -16 CURVE",
"148 -9 OFFCURVE",
"144 -2 OFFCURVE",
"144 7 CURVE SMOOTH",
"144 10 OFFCURVE",
"144 12 OFFCURVE",
"145 13 CURVE",
"173 88 LINE",
"135 88 LINE SMOOTH",
"99 88 OFFCURVE",
"67 103 OFFCURVE",
"43 127 CURVE SMOOTH",
"19 150 OFFCURVE",
"5 182 OFFCURVE",
"5 218 CURVE SMOOTH",
"5 515 LINE SMOOTH",
"5 551 OFFCURVE",
"19 583 OFFCURVE",
"43 607 CURVE SMOOTH",
"67 631 OFFCURVE",
"99 645 OFFCURVE",
"135 645 CURVE SMOOTH",
"636 645 LINE SMOOTH",
"672 645 OFFCURVE",
"704 631 OFFCURVE",
"728 607 CURVE SMOOTH",
"752 583 OFFCURVE",
"766 551 OFFCURVE",
"766 515 CURVE SMOOTH",
"766 376 LINE SMOOTH",
"766 369 OFFCURVE",
"763 366 OFFCURVE",
"756 366 CURVE SMOOTH"
);
},
{
closed = 1;
nodes = (
"495 286 LINE SMOOTH",
"462 286 OFFCURVE",
"435 259 OFFCURVE",
"435 226 CURVE SMOOTH",
"435 45 LINE SMOOTH",
"435 12 OFFCURVE",
"462 -15 OFFCURVE",
"495 -15 CURVE SMOOTH",
"657 -15 LINE",
"760 -102 LINE",
"765 -105 OFFCURVE",
"771 -107 OFFCURVE",
"776 -107 CURVE SMOOTH",
"781 -107 OFFCURVE",
"786 -106 OFFCURVE",
"791 -103 CURVE",
"800 -96 OFFCURVE",
"804 -89 OFFCURVE",
"804 -80 CURVE SMOOTH",
"804 -77 OFFCURVE",
"804 -75 OFFCURVE",
"803 -74 CURVE",
"782 -15 LINE",
"805 -15 LINE SMOOTH",
"838 -15 OFFCURVE",
"865 12 OFFCURVE",
"865 45 CURVE SMOOTH",
"865 226 LINE SMOOTH",
"865 259 OFFCURVE",
"838 286 OFFCURVE",
"805 286 CURVE SMOOTH"
);
}
);
width = 870;
}
);
unicode = E037;
},
{
glyphname = reorder;
lastChange = "2014-06-16 13:12:30 +0000";
layers = (
{
hints = (
{
horizontal = 1;
origin = "{2, 12}";
target = "{2, 3}";
},
{
horizontal = 1;
origin = "{1, 12}";
target = "{1, 3}";
},
{
horizontal = 1;
origin = "{0, 12}";
target = "{0, 3}";
},
{
origin = "{1, 0}";
target = "{1, 7}";
},
{
horizontal = 1;
origin = "{2, 3}";
target = down;
type = TopGhost;
},
{
horizontal = 1;
origin = "{0, 12}";
target = up;
type = BottomGhost;
}
);
layerId = "D0C94BA9-7956-4545-877F-F891ABB04BC1";
name = Regular;
paths = (
{
closed = 1;
nodes = (
"5 20 LINE SMOOTH",
"5 40 OFFCURVE",
"21 56 OFFCURVE",
"41 56 CURVE SMOOTH",
"828 56 LINE SMOOTH",
"848 56 OFFCURVE",
"864 40 OFFCURVE",
"864 20 CURVE SMOOTH",
"864 -48 LINE SMOOTH",
"864 -68 OFFCURVE",
"848 -84 OFFCURVE",
"828 -84 CURVE SMOOTH",
"41 -84 LINE SMOOTH",
"21 -84 OFFCURVE",
"5 -68 OFFCURVE",
"5 -48 CURVE SMOOTH"
);
},
{
closed = 1;
nodes = (
"5 301 LINE SMOOTH",
"5 320 OFFCURVE",
"21 336 OFFCURVE",
"41 336 CURVE SMOOTH",
"828 336 LINE SMOOTH",
"848 336 OFFCURVE",
"864 320 OFFCURVE",
"864 301 CURVE SMOOTH",
"864 231 LINE SMOOTH",
"864 212 OFFCURVE",
"848 196 OFFCURVE",
"828 196 CURVE SMOOTH",
"41 196 LINE SMOOTH",
"21 196 OFFCURVE",
"5 212 OFFCURVE",
"5 231 CURVE SMOOTH"
);
},
{
closed = 1;
nodes = (
"5 580 LINE SMOOTH",
"5 600 OFFCURVE",
"21 616 OFFCURVE",
"41 616 CURVE",
"828 616 LINE SMOOTH",
"848 616 OFFCURVE",
"864 600 OFFCURVE",
"864 580 CURVE SMOOTH",
"864 512 LINE SMOOTH",
"864 492 OFFCURVE",
"848 476 OFFCURVE",
"828 476 CURVE SMOOTH",
"41 476 LINE SMOOTH",
"21 476 OFFCURVE",
"5 492 OFFCURVE",
"5 512 CURVE SMOOTH"
);
}
);
width = 869;
}
);
unicode = E044;
},
{
glyphname = ul;
lastChange = "2014-06-16 13:12:30 +0000";
layers = (
{
hints = (
{
horizontal = 1;
origin = "{0, 12}";
target = "{0, 3}";
},
{
horizontal = 1;
origin = "{1, 12}";
target = "{1, 3}";
},
{
horizontal = 1;
origin = "{2, 12}";
target = "{2, 3}";
},
{
origin = "{4, 0}";
target = "{4, 7}";
},
{
origin = "{2, 0}";
target = "{2, 7}";
},
{
horizontal = 1;
origin = "{5, 3}";
target = down;
type = TopGhost;
},
{
horizontal = 1;
origin = "{4, 12}";
target = up;
type = BottomGhost;
}
);
layerId = "D0C94BA9-7956-4545-877F-F891ABB04BC1";
name = Regular;
paths = (
{
closed = 1;
nodes = (
"255 20 LINE SMOOTH",
"255 40 OFFCURVE",
"271 56 OFFCURVE",
"291 56 CURVE SMOOTH",
"829 56 LINE SMOOTH",
"849 56 OFFCURVE",
"865 40 OFFCURVE",
"865 20 CURVE SMOOTH",
"865 -48 LINE SMOOTH",
"865 -68 OFFCURVE",
"849 -84 OFFCURVE",
"829 -84 CURVE SMOOTH",
"291 -84 LINE SMOOTH",
"271 -84 OFFCURVE",
"255 -68 OFFCURVE",
"255 -48 CURVE SMOOTH"
);
},
{
closed = 1;
nodes = (
"255 301 LINE SMOOTH",
"255 320 OFFCURVE",
"271 336 OFFCURVE",
"291 336 CURVE SMOOTH",
"829 336 LINE SMOOTH",
"849 336 OFFCURVE",
"865 320 OFFCURVE",
"865 301 CURVE SMOOTH",
"865 231 LINE SMOOTH",
"865 212 OFFCURVE",
"849 196 OFFCURVE",
"829 196 CURVE SMOOTH",
"291 196 LINE SMOOTH",
"271 196 OFFCURVE",
"255 212 OFFCURVE",
"255 231 CURVE SMOOTH"
);
},
{
closed = 1;
nodes = (
"255 580 LINE SMOOTH",
"255 600 OFFCURVE",
"271 616 OFFCURVE",
"291 616 CURVE SMOOTH",
"829 616 LINE SMOOTH",
"849 616 OFFCURVE",
"865 600 OFFCURVE",
"865 580 CURVE SMOOTH",
"865 512 LINE SMOOTH",
"865 492 OFFCURVE",
"849 476 OFFCURVE",
"829 476 CURVE SMOOTH",
"291 476 LINE SMOOTH",
"271 476 OFFCURVE",
"255 492 OFFCURVE",
"255 512 CURVE SMOOTH"
);
},
{
closed = 1;
nodes = (
"5 301 LINE SMOOTH",
"5 320 OFFCURVE",
"20 336 OFFCURVE",
"37 336 CURVE SMOOTH",
"115 336 LINE SMOOTH",
"134 336 OFFCURVE",
"148 320 OFFCURVE",
"148 301 CURVE SMOOTH",
"148 231 LINE SMOOTH",
"148 212 OFFCURVE",
"134 196 OFFCURVE",
"115 196 CURVE SMOOTH",
"37 196 LINE SMOOTH",
"20 196 OFFCURVE",
"5 212 OFFCURVE",
"5 231 CURVE SMOOTH"
);
},
{
closed = 1;
nodes = (
"5 20 LINE SMOOTH",
"5 40 OFFCURVE",
"20 56 OFFCURVE",
"37 56 CURVE SMOOTH",
"115 56 LINE SMOOTH",
"134 56 OFFCURVE",
"148 40 OFFCURVE",
"148 20 CURVE SMOOTH",
"148 -48 LINE SMOOTH",
"148 -68 OFFCURVE",
"134 -84 OFFCURVE",
"115 -84 CURVE SMOOTH",
"37 -84 LINE SMOOTH",
"20 -84 OFFCURVE",
"5 -68 OFFCURVE",
"5 -48 CURVE SMOOTH"
);
},
{
closed = 1;
nodes = (
"5 580 LINE SMOOTH",
"5 600 OFFCURVE",
"20 616 OFFCURVE",
"37 616 CURVE SMOOTH",
"115 616 LINE SMOOTH",
"134 616 OFFCURVE",
"148 600 OFFCURVE",
"148 580 CURVE SMOOTH",
"148 512 LINE SMOOTH",
"148 492 OFFCURVE",
"134 476 OFFCURVE",
"115 476 CURVE SMOOTH",
"37 476 LINE SMOOTH",
"20 476 OFFCURVE",
"5 492 OFFCURVE",
"5 512 CURVE SMOOTH"
);
}
);
width = 870;
}
);
unicode = E045;
},
{
export = 0;
glyphname = sapo;
lastChange = "2014-06-16 13:12:30 +0000";
layers = (
{
layerId = "D0C94BA9-7956-4545-877F-F891ABB04BC1";
name = Regular;
paths = (
{
closed = 1;
nodes = (
"865 445 OFFCURVE",
"882 462 OFFCURVE",
"903 462 CURVE SMOOTH",
"924 462 OFFCURVE",
"941 445 OFFCURVE",
"941 424 CURVE SMOOTH",
"941 403 OFFCURVE",
"924 386 OFFCURVE",
"903 386 CURVE SMOOTH",
"882 386 OFFCURVE",
"865 403 OFFCURVE",
"865 424 CURVE SMOOTH"
);
},
{
closed = 1;
nodes = (
"1148 372 LINE",
"441 -83 LINE",
"887 623 LINE"
);
},
{
closed = 1;
nodes = (
"980 466 OFFCURVE",
"947 500 OFFCURVE",
"904 500 CURVE SMOOTH",
"861 501 OFFCURVE",
"827 468 OFFCURVE",
"827 425 CURVE SMOOTH",
"826 382 OFFCURVE",
"859 348 OFFCURVE",
"902 348 CURVE SMOOTH",
"945 347 OFFCURVE",
"978 380 OFFCURVE",
"979 423 CURVE SMOOTH"
);
},
{
closed = 1;
nodes = (
"227 160 LINE",
"887 623 LINE",
"441 -83 LINE"
);
},
{
closed = 1;
nodes = (
"441 -83 LINE",
"91 -83 LINE",
"5 193 LINE"
);
},
{
closed = 1;
nodes = (
"1148 372 LINE",
"845 -83 LINE",
"441 -83 LINE"
);
},
{
closed = 1;
nodes = (
"94 324 LINE",
"441 -83 LINE",
"5 193 LINE"
);
}
);
width = 1153;
}
);
unicode = E0E0;
},
{
glyphname = x.circle.o;
lastChange = "2014-06-17 10:27:27 +0000";
layers = (
{
layerId = "D0C94BA9-7956-4545-877F-F891ABB04BC1";
name = Regular;
paths = (
{
closed = 1;
nodes = (
"854 388 OFFCURVE",
"865 332 OFFCURVE",
"865 273 CURVE SMOOTH",
"865 156 OFFCURVE",
"819 48 OFFCURVE",
"739 -32 CURVE SMOOTH",
"699 -72 OFFCURVE",
"654 -102 OFFCURVE",
"603 -123 CURVE SMOOTH",
"550 -146 OFFCURVE",
"494 -157 OFFCURVE",
"435 -157 CURVE SMOOTH",
"376 -157 OFFCURVE",
"320 -146 OFFCURVE",
"268 -123 CURVE",
"165 -82 OFFCURVE",
"83 2 OFFCURVE",
"39 106 CURVE SMOOTH",
"16 161 OFFCURVE",
"5 216 OFFCURVE",
"5 273 CURVE SMOOTH",
"5 386 OFFCURVE",
"52 498 OFFCURVE",
"131 577 CURVE SMOOTH",
"211 657 OFFCURVE",
"316 703 OFFCURVE",
"435 703 CURVE SMOOTH",
"494 703 OFFCURVE",
"550 692 OFFCURVE",
"603 669 CURVE SMOOTH",
"704 626 OFFCURVE",
"790 543 OFFCURVE",
"831 440 CURVE"
);
},
{
closed = 1;
nodes = (
"756 184 OFFCURVE",
"765 226 OFFCURVE",
"765 273 CURVE SMOOTH",
"765 365 OFFCURVE",
"730 445 OFFCURVE",
"669 506 CURVE SMOOTH",
"609 566 OFFCURVE",
"523 603 OFFCURVE",
"435 603 CURVE SMOOTH",
"392 603 OFFCURVE",
"349 594 OFFCURVE",
"307 577 CURVE SMOOTH",
"268 560 OFFCURVE",
"233 537 OFFCURVE",
"202 506 CURVE SMOOTH",
"141 445 OFFCURVE",
"105 362 OFFCURVE",
"105 273 CURVE SMOOTH",
"105 184 OFFCURVE",
"141 101 OFFCURVE",
"202 40 CURVE SMOOTH",
"233 9 OFFCURVE",
"268 -14 OFFCURVE",
"307 -31 CURVE SMOOTH",
"349 -48 OFFCURVE",
"392 -57 OFFCURVE",
"435 -57 CURVE SMOOTH",
"523 -57 OFFCURVE",
"609 -20 OFFCURVE",
"669 40 CURVE SMOOTH",
"700 71 OFFCURVE",
"724 106 OFFCURVE",
"739 145 CURVE"
);
},
{
closed = 1;
nodes = (
"608 202 LINE SMOOTH",
"616 194 OFFCURVE",
"620 185 OFFCURVE",
"620 174 CURVE SMOOTH",
"620 163 OFFCURVE",
"616 153 OFFCURVE",
"608 146 CURVE",
"566 103 LINE",
"559 95 OFFCURVE",
"549 91 OFFCURVE",
"538 91 CURVE SMOOTH",
"527 91 OFFCURVE",
"517 95 OFFCURVE",
"509 103 CURVE SMOOTH",
"439 173 LINE",
"368 103 LINE SMOOTH",
"360 95 OFFCURVE",
"350 91 OFFCURVE",
"339 91 CURVE SMOOTH",
"328 91 OFFCURVE",
"319 95 OFFCURVE",
"312 103 CURVE",
"269 145 LINE",
"261 152 OFFCURVE",
"257 162 OFFCURVE",
"257 173 CURVE SMOOTH",
"257 184 OFFCURVE",
"261 194 OFFCURVE",
"269 202 CURVE SMOOTH",
"340 272 LINE",
"269 344 LINE SMOOTH",
"261 352 OFFCURVE",
"257 362 OFFCURVE",
"257 373 CURVE SMOOTH",
"257 384 OFFCURVE",
"261 393 OFFCURVE",
"269 400 CURVE",
"311 443 LINE",
"318 451 OFFCURVE",
"328 455 OFFCURVE",
"339 455 CURVE SMOOTH",
"350 455 OFFCURVE",
"360 451 OFFCURVE",
"368 443 CURVE SMOOTH",
"439 371 LINE",
"510 442 LINE",
"517 450 OFFCURVE",
"527 454 OFFCURVE",
"538 454 CURVE SMOOTH",
"549 454 OFFCURVE",
"558 450 OFFCURVE",
"566 442 CURVE SMOOTH",
"609 400 LINE",
"617 393 OFFCURVE",
"621 383 OFFCURVE",
"621 372 CURVE SMOOTH",
"621 361 OFFCURVE",
"617 351 OFFCURVE",
"609 343 CURVE SMOOTH",
"538 272 LINE"
);
}
);
width = 870;
}
);
},
{
glyphname = minus.circle.o;
lastChange = "2014-06-17 10:25:12 +0000";
layers = (
{
layerId = "D0C94BA9-7956-4545-877F-F891ABB04BC1";
name = Regular;
paths = (
{
closed = 1;
nodes = (
"644 243 LINE SMOOTH",
"644 220 OFFCURVE",
"627 203 OFFCURVE",
"604 203 CURVE SMOOTH",
"264 203 LINE SMOOTH",
"241 203 OFFCURVE",
"224 220 OFFCURVE",
"224 243 CURVE SMOOTH",
"224 303 LINE SMOOTH",
"224 326 OFFCURVE",
"241 343 OFFCURVE",
"264 343 CURVE SMOOTH",
"604 343 LINE SMOOTH",
"627 343 OFFCURVE",
"644 326 OFFCURVE",
"644 303 CURVE SMOOTH"
);
},
{
closed = 1;
nodes = (
"854 385 OFFCURVE",
"865 330 OFFCURVE",
"865 273 CURVE SMOOTH",
"865 160 OFFCURVE",
"818 48 OFFCURVE",
"739 -31 CURVE SMOOTH",
"658 -112 OFFCURVE",
"554 -157 OFFCURVE",
"435 -157 CURVE SMOOTH",
"376 -157 OFFCURVE",
"320 -146 OFFCURVE",
"267 -123 CURVE SMOOTH",
"164 -82 OFFCURVE",
"82 2 OFFCURVE",
"38 106 CURVE SMOOTH",
"16 159 OFFCURVE",
"5 214 OFFCURVE",
"5 273 CURVE SMOOTH",
"5 389 OFFCURVE",
"51 498 OFFCURVE",
"131 578 CURVE SMOOTH",
"170 617 OFFCURVE",
"216 648 OFFCURVE",
"267 669 CURVE SMOOTH",
"320 692 OFFCURVE",
"376 703 OFFCURVE",
"435 703 CURVE SMOOTH",
"554 703 OFFCURVE",
"658 657 OFFCURVE",
"739 577 CURVE SMOOTH",
"778 538 OFFCURVE",
"809 492 OFFCURVE",
"831 440 CURVE SMOOTH"
);
},
{
closed = 1;
nodes = (
"756 186 OFFCURVE",
"765 228 OFFCURVE",
"765 273 CURVE SMOOTH",
"765 362 OFFCURVE",
"729 445 OFFCURVE",
"668 506 CURVE SMOOTH",
"637 537 OFFCURVE",
"602 560 OFFCURVE",
"563 577 CURVE SMOOTH",
"522 594 OFFCURVE",
"480 603 OFFCURVE",
"435 603 CURVE SMOOTH",
"347 603 OFFCURVE",
"261 566 OFFCURVE",
"201 506 CURVE SMOOTH",
"140 445 OFFCURVE",
"105 365 OFFCURVE",
"105 273 CURVE SMOOTH",
"105 181 OFFCURVE",
"140 101 OFFCURVE",
"201 40 CURVE SMOOTH",
"261 -20 OFFCURVE",
"347 -57 OFFCURVE",
"435 -57 CURVE SMOOTH",
"480 -57 OFFCURVE",
"522 -48 OFFCURVE",
"563 -31 CURVE SMOOTH",
"602 -14 OFFCURVE",
"637 9 OFFCURVE",
"668 40 CURVE SMOOTH",
"699 71 OFFCURVE",
"722 106 OFFCURVE",
"739 145 CURVE SMOOTH"
);
}
);
width = 870;
}
);
},
{
glyphname = plus.circle.o;
lastChange = "2014-06-17 10:25:46 +0000";
layers = (
{
layerId = "D0C94BA9-7956-4545-877F-F891ABB04BC1";
name = Regular;
paths = (
{
closed = 1;
nodes = (
"605 343 LINE SMOOTH",
"628 343 OFFCURVE",
"645 326 OFFCURVE",
"645 303 CURVE SMOOTH",
"645 243 LINE SMOOTH",
"645 220 OFFCURVE",
"628 203 OFFCURVE",
"605 203 CURVE SMOOTH",
"506 203 LINE",
"506 103 LINE SMOOTH",
"506 80 OFFCURVE",
"489 63 OFFCURVE",
"466 63 CURVE SMOOTH",
"406 63 LINE SMOOTH",
"383 63 OFFCURVE",
"366 80 OFFCURVE",
"366 103 CURVE SMOOTH",
"366 203 LINE",
"265 203 LINE SMOOTH",
"242 203 OFFCURVE",
"225 220 OFFCURVE",
"225 243 CURVE SMOOTH",
"225 303 LINE SMOOTH",
"225 326 OFFCURVE",
"242 343 OFFCURVE",
"265 343 CURVE SMOOTH",
"366 343 LINE",
"366 443 LINE SMOOTH",
"366 466 OFFCURVE",
"383 483 OFFCURVE",
"406 483 CURVE SMOOTH",
"466 483 LINE SMOOTH",
"489 483 OFFCURVE",
"506 466 OFFCURVE",
"506 443 CURVE SMOOTH",
"506 343 LINE"
);
},
{
closed = 1;
nodes = (
"854 388 OFFCURVE",
"865 332 OFFCURVE",
"865 273 CURVE SMOOTH",
"865 156 OFFCURVE",
"819 48 OFFCURVE",
"739 -32 CURVE SMOOTH",
"699 -72 OFFCURVE",
"654 -102 OFFCURVE",
"603 -123 CURVE SMOOTH",
"550 -146 OFFCURVE",
"494 -157 OFFCURVE",
"435 -157 CURVE SMOOTH",
"376 -157 OFFCURVE",
"320 -146 OFFCURVE",
"268 -123 CURVE",
"165 -82 OFFCURVE",
"83 2 OFFCURVE",
"39 106 CURVE SMOOTH",
"16 161 OFFCURVE",
"5 216 OFFCURVE",
"5 273 CURVE SMOOTH",
"5 386 OFFCURVE",
"52 498 OFFCURVE",
"131 577 CURVE SMOOTH",
"211 657 OFFCURVE",
"316 703 OFFCURVE",
"435 703 CURVE SMOOTH",
"494 703 OFFCURVE",
"550 692 OFFCURVE",
"603 669 CURVE SMOOTH",
"704 626 OFFCURVE",
"790 543 OFFCURVE",
"831 440 CURVE"
);
},
{
closed = 1;
nodes = (
"756 186 OFFCURVE",
"765 228 OFFCURVE",
"765 273 CURVE SMOOTH",
"765 362 OFFCURVE",
"732 443 OFFCURVE",
"669 506 CURVE SMOOTH",
"609 566 OFFCURVE",
"523 603 OFFCURVE",
"435 603 CURVE SMOOTH",
"346 603 OFFCURVE",
"259 566 OFFCURVE",
"202 506 CURVE SMOOTH",
"141 445 OFFCURVE",
"105 362 OFFCURVE",
"105 273 CURVE SMOOTH",
"105 184 OFFCURVE",
"141 101 OFFCURVE",
"202 40 CURVE SMOOTH",
"259 -20 OFFCURVE",
"346 -57 OFFCURVE",
"435 -57 CURVE SMOOTH",
"523 -57 OFFCURVE",
"609 -20 OFFCURVE",
"669 40 CURVE SMOOTH",
"700 71 OFFCURVE",
"724 106 OFFCURVE",
"739 145 CURVE SMOOTH"
);
}
);
width = 870;
}
);
},
{
glyphname = stopwatch.o;
lastChange = "2014-06-17 10:30:54 +0000";
layers = (
{
hints = (
{
origin = "{1, 14}";
target = "{2, 14}";
},
{
origin = "{2, 2}";
target = "{1, 2}";
},
{
horizontal = 1;
origin = "{1, 8}";
target = "{2, 20}";
},
{
horizontal = 1;
origin = "{2, 8}";
target = "{1, 20}";
},
{
horizontal = 1;
origin = "{0, 3}";
target = down;
type = TopGhost;
},
{
horizontal = 1;
origin = "{1, 8}";
target = up;
type = BottomGhost;
},
{
origin = "{4, 9}";
target = "{4, 3}";
}
);
layerId = "D0C94BA9-7956-4545-877F-F891ABB04BC1";
name = Regular;
paths = (
{
closed = 1;
nodes = (
"350 653 LINE",
"350 681 OFFCURVE",
"372 703 OFFCURVE",
"400 703 CURVE SMOOTH",
"428 703 OFFCURVE",
"450 681 OFFCURVE",
"450 650 CURVE",
"434 652 OFFCURVE",
"417 653 OFFCURVE",
"400 653 CURVE SMOOTH"
);
},
{
closed = 1;
nodes = (
"785 344 OFFCURVE",
"795 293 OFFCURVE",
"795 238 CURVE SMOOTH",
"795 129 OFFCURVE",
"752 31 OFFCURVE",
"680 -41 CURVE SMOOTH",
"607 -114 OFFCURVE",
"509 -157 OFFCURVE",
"400 -157 CURVE SMOOTH",
"291 -157 OFFCURVE",
"193 -114 OFFCURVE",
"121 -42 CURVE SMOOTH",
"48 31 OFFCURVE",
"5 129 OFFCURVE",
"5 238 CURVE SMOOTH",
"5 347 OFFCURVE",
"48 445 OFFCURVE",
"120 517 CURVE SMOOTH",
"193 590 OFFCURVE",
"291 633 OFFCURVE",
"400 633 CURVE SMOOTH",
"509 633 OFFCURVE",
"607 590 OFFCURVE",
"679 518 CURVE SMOOTH",
"716 481 OFFCURVE",
"744 439 OFFCURVE",
"764 392 CURVE SMOOTH"
);
},
{
closed = 1;
nodes = (
"695 157 OFFCURVE",
"703 196 OFFCURVE",
"703 238 CURVE SMOOTH",
"703 321 OFFCURVE",
"671 395 OFFCURVE",
"614 452 CURVE SMOOTH",
"557 509 OFFCURVE",
"483 541 OFFCURVE",
"400 541 CURVE SMOOTH",
"316 541 OFFCURVE",
"243 509 OFFCURVE",
"186 452 CURVE SMOOTH",
"129 395 OFFCURVE",
"97 321 OFFCURVE",
"97 238 CURVE SMOOTH",
"97 154 OFFCURVE",
"129 81 OFFCURVE",
"186 24 CURVE SMOOTH",
"243 -33 OFFCURVE",
"316 -65 OFFCURVE",
"400 -65 CURVE SMOOTH",
"483 -65 OFFCURVE",
"557 -33 OFFCURVE",
"614 24 CURVE SMOOTH",
"643 53 OFFCURVE",
"664 85 OFFCURVE",
"679 120 CURVE SMOOTH"
);
},
{
closed = 1;
nodes = (
"567 618 OFFCURVE",
"552 625 OFFCURVE",
"536 630 CURVE",
"538 633 LINE",
"546 652 OFFCURVE",
"563 661 OFFCURVE",
"582 661 CURVE SMOOTH",
"598 661 OFFCURVE",
"616 653 OFFCURVE",
"626 638 CURVE SMOOTH",
"631 630 OFFCURVE",
"633 621 OFFCURVE",
"633 612 CURVE SMOOTH",
"633 604 OFFCURVE",
"631 596 OFFCURVE",
"627 588 CURVE",
"626 585 LINE",
"611 594 OFFCURVE",
"597 603 OFFCURVE",
"582 610 CURVE"
);
},
{
closed = 1;
nodes = (
"425 477 OFFCURVE",
"446 456 OFFCURVE",
"446 431 CURVE SMOOTH",
"446 261 LINE SMOOTH",
"446 236 OFFCURVE",
"425 215 OFFCURVE",
"400 215 CURVE SMOOTH",
"375 215 OFFCURVE",
"354 236 OFFCURVE",
"354 261 CURVE SMOOTH",
"354 431 LINE SMOOTH",
"354 456 OFFCURVE",
"375 477 OFFCURVE",
"400 477 CURVE SMOOTH"
);
}
);
width = 800;
}
);
},
{
glyphname = cal;
lastChange = "2014-06-16 13:12:30 +0000";
layers = (
{
hints = (
{
horizontal = 1;
origin = "{1, 3}";
target = down;
type = TopGhost;
},
{
horizontal = 1;
origin = "{2, 25}";
target = up;
type = BottomGhost;
},
{
horizontal = 1;
origin = "{4, 1}";
target = "{4, 2}";
},
{
horizontal = 1;
origin = "{3, 3}";
target = "{3, 0}";
},
{
origin = "{3, 0}";
target = "{3, 1}";
},
{
origin = "{5, 0}";
target = "{5, 1}";
},
{
origin = "{7, 0}";
target = "{7, 1}";
},
{
horizontal = 1;
origin = "{2, 25}";
target = "{2, 18}";
},
{
origin = "{2, 21}";
target = "{2, 30}";
}
);
layerId = "D0C94BA9-7956-4545-877F-F891ABB04BC1";
name = Regular;
paths = (
{
closed = 1;
nodes = (
"655 513 LINE SMOOTH",
"655 485 OFFCURVE",
"633 463 OFFCURVE",
"605 463 CURVE SMOOTH",
"577 463 OFFCURVE",
"555 485 OFFCURVE",
"555 513 CURVE SMOOTH",
"555 583 LINE SMOOTH",
"555 610 OFFCURVE",
"577 633 OFFCURVE",
"605 633 CURVE SMOOTH",
"633 633 OFFCURVE",
"655 610 OFFCURVE",
"655 583 CURVE SMOOTH"
);
},
{
closed = 1;
nodes = (
"315 583 LINE SMOOTH",
"315 610 OFFCURVE",
"293 633 OFFCURVE",
"265 633 CURVE SMOOTH",
"237 633 OFFCURVE",
"215 610 OFFCURVE",
"215 583 CURVE SMOOTH",
"215 513 LINE SMOOTH",
"215 485 OFFCURVE",
"237 463 OFFCURVE",
"265 463 CURVE SMOOTH",
"293 463 OFFCURVE",
"315 485 OFFCURVE",
"315 513 CURVE SMOOTH"
);
},
{
closed = 1;
nodes = (
"705 543 LINE",
"705 513 LINE SMOOTH",
"705 457 OFFCURVE",
"661 413 OFFCURVE",
"605 413 CURVE SMOOTH",
"549 413 OFFCURVE",
"505 457 OFFCURVE",
"505 513 CURVE SMOOTH",
"505 543 LINE",
"365 543 LINE",
"365 513 LINE SMOOTH",
"365 457 OFFCURVE",
"321 413 OFFCURVE",
"265 413 CURVE SMOOTH",
"209 413 OFFCURVE",
"165 457 OFFCURVE",
"165 513 CURVE SMOOTH",
"165 543 LINE",
"33 543 LINE SMOOTH",
"18 543 OFFCURVE",
"5 530 OFFCURVE",
"5 514 CURVE SMOOTH",
"5 -59 LINE SMOOTH",
"5 -75 OFFCURVE",
"18 -87 OFFCURVE",
"33 -87 CURVE SMOOTH",
"837 -87 LINE SMOOTH",
"852 -87 OFFCURVE",
"865 -75 OFFCURVE",
"865 -59 CURVE SMOOTH",
"865 514 LINE SMOOTH",
"865 530 OFFCURVE",
"852 543 OFFCURVE",
"837 543 CURVE SMOOTH"
);
},
{
closed = 1;
nodes = (
"194 308 LINE",
"294 308 LINE",
"294 208 LINE",
"194 208 LINE"
);
},
{
closed = 1;
nodes = (
"295 18 LINE",
"195 18 LINE",
"195 118 LINE",
"295 118 LINE"
);
},
{
closed = 1;
nodes = (
"385 308 LINE",
"485 308 LINE",
"485 208 LINE",
"385 208 LINE"
);
},
{
closed = 1;
nodes = (
"486 18 LINE",
"386 18 LINE",
"386 118 LINE",
"486 118 LINE"
);
},
{
closed = 1;
nodes = (
"574 308 LINE",
"674 308 LINE",
"674 208 LINE",
"574 208 LINE"
);
},
{
closed = 1;
nodes = (
"675 18 LINE",
"575 18 LINE",
"575 118 LINE",
"675 118 LINE"
);
}
);
width = 870;
}
);
unicode = E041;
},
{
glyphname = circ;
lastChange = "2014-06-16 13:12:30 +0000";
layers = (
{
layerId = "D0C94BA9-7956-4545-877F-F891ABB04BC1";
name = Regular;
paths = (
{
closed = 1;
nodes = (
"865 154 OFFCURVE",
"817 48 OFFCURVE",
"739 -30 CURVE SMOOTH",
"661 -108 OFFCURVE",
"554 -157 OFFCURVE",
"435 -157 CURVE SMOOTH",
"316 -157 OFFCURVE",
"210 -108 OFFCURVE",
"132 -30 CURVE SMOOTH",
"54 48 OFFCURVE",
"5 154 OFFCURVE",
"5 273 CURVE SMOOTH",
"5 392 OFFCURVE",
"54 499 OFFCURVE",
"132 577 CURVE SMOOTH",
"210 655 OFFCURVE",
"316 703 OFFCURVE",
"435 703 CURVE SMOOTH",
"554 703 OFFCURVE",
"661 655 OFFCURVE",
"739 577 CURVE SMOOTH",
"817 499 OFFCURVE",
"865 392 OFFCURVE",
"865 273 CURVE SMOOTH"
);
}
);
width = 870;
}
);
unicode = E02B;
},
{
glyphname = issue;
lastChange = "2014-06-16 13:12:30 +0000";
layers = (
{
layerId = "D0C94BA9-7956-4545-877F-F891ABB04BC1";
name = Regular;
paths = (
{
closed = 1;
nodes = (
"763 511 OFFCURVE",
"721 511 OFFCURVE",
"696 537 CURVE SMOOTH",
"671 562 OFFCURVE",
"671 603 OFFCURVE",
"696 629 CURVE",
"586 739 LINE SMOOTH",
"575 750 OFFCURVE",
"556 750 OFFCURVE",
"545 739 CURVE SMOOTH",
"14 208 LINE SMOOTH",
"2 197 OFFCURVE",
"2 178 OFFCURVE",
"14 167 CURVE SMOOTH",
"124 56 LINE",
"149 82 OFFCURVE",
"191 82 OFFCURVE",
"216 56 CURVE SMOOTH",
"241 31 OFFCURVE",
"241 -10 OFFCURVE",
"216 -35 CURVE",
"326 -146 LINE SMOOTH",
"337 -157 OFFCURVE",
"356 -157 OFFCURVE",
"367 -146 CURVE SMOOTH",
"898 385 LINE SMOOTH",
"910 397 OFFCURVE",
"910 415 OFFCURVE",
"898 426 CURVE SMOOTH",
"788 537 LINE"
);
}
);
width = 912;
}
);
unicode = E10E;
},
{
glyphname = linkedin;
lastChange = "2014-06-16 13:12:31 +0000";
layers = (
{
layerId = "D0C94BA9-7956-4545-877F-F891ABB04BC1";
name = Regular;
paths = (
{
closed = 1;
nodes = (
"100 772 OFFCURVE",
"128 800 OFFCURVE",
"164 800 CURVE SMOOTH",
"896 800 LINE SMOOTH",
"932 800 OFFCURVE",
"960 772 OFFCURVE",
"960 738 CURVE SMOOTH",
"960 -4 LINE SMOOTH",
"960 -38 OFFCURVE",
"932 -66 OFFCURVE",
"896 -66 CURVE SMOOTH",
"164 -66 LINE SMOOTH",
"128 -66 OFFCURVE",
"100 -38 OFFCURVE",
"100 -4 CURVE SMOOTH",
"100 738 LINE SMOOTH"
);
},
{
closed = 1;
nodes = (
"361 466 LINE",
"231 466 LINE",
"231 75 LINE",
"361 75 LINE"
);
},
{
closed = 1;
nodes = (
"341 519 OFFCURVE",
"369 549 OFFCURVE",
"369 587 CURVE",
"368 625 OFFCURVE",
"341 654 OFFCURVE",
"297 654 CURVE SMOOTH",
"252 654 OFFCURVE",
"223 625 OFFCURVE",
"223 587 CURVE SMOOTH",
"223 549 OFFCURVE",
"251 519 OFFCURVE",
"295 519 CURVE SMOOTH",
"296 519 LINE SMOOTH"
);
},
{
closed = 1;
nodes = (
"562 75 LINE",
"562 293 LINE SMOOTH",
"562 305 OFFCURVE",
"563 317 OFFCURVE",
"567 325 CURVE SMOOTH",
"576 349 OFFCURVE",
"597 373 OFFCURVE",
"633 373 CURVE SMOOTH",
"680 373 OFFCURVE",
"699 337 OFFCURVE",
"699 284 CURVE SMOOTH",
"699 75 LINE",
"829 75 LINE",
"829 299 LINE SMOOTH",
"829 419 OFFCURVE",
"765 475 OFFCURVE",
"680 475 CURVE SMOOTH",
"609 475 OFFCURVE",
"579 436 OFFCURVE",
"562 409 CURVE",
"562 409 LINE",
"562 466 LINE",
"433 466 LINE",
"434 429 OFFCURVE",
"433 75 OFFCURVE",
"433 75 CURVE"
);
}
);
width = 1060;
}
);
unicode = E10F;
},
{
glyphname = location;
lastChange = "2014-06-16 13:12:30 +0000";
layers = (
{
layerId = "D0C94BA9-7956-4545-877F-F891ABB04BC1";
name = Regular;
paths = (
{
closed = 1;
nodes = (
"810 492 OFFCURVE",
"779 538 OFFCURVE",
"739 577 CURVE SMOOTH",
"700 617 OFFCURVE",
"654 648 OFFCURVE",
"602 669 CURVE SMOOTH",
"549 692 OFFCURVE",
"493 703 OFFCURVE",
"435 703 CURVE SMOOTH",
"377 703 OFFCURVE",
"321 692 OFFCURVE",
"268 669 CURVE SMOOTH",
"216 648 OFFCURVE",
"170 617 OFFCURVE",
"131 577 CURVE SMOOTH",
"91 538 OFFCURVE",
"60 492 OFFCURVE",
"39 440 CURVE SMOOTH",
"16 387 OFFCURVE",
"5 331 OFFCURVE",
"5 273 CURVE SMOOTH",
"5 215 OFFCURVE",
"16 159 OFFCURVE",
"39 106 CURVE SMOOTH",
"60 54 OFFCURVE",
"91 8 OFFCURVE",
"131 -31 CURVE SMOOTH",
"170 -71 OFFCURVE",
"216 -102 OFFCURVE",
"268 -123 CURVE SMOOTH",
"321 -146 OFFCURVE",
"377 -157 OFFCURVE",
"435 -157 CURVE SMOOTH",
"493 -157 OFFCURVE",
"549 -146 OFFCURVE",
"602 -123 CURVE SMOOTH",
"654 -102 OFFCURVE",
"700 -71 OFFCURVE",
"739 -31 CURVE SMOOTH",
"779 8 OFFCURVE",
"810 54 OFFCURVE",
"831 106 CURVE SMOOTH",
"854 159 OFFCURVE",
"865 215 OFFCURVE",
"865 273 CURVE SMOOTH",
"865 331 OFFCURVE",
"854 387 OFFCURVE",
"831 440 CURVE SMOOTH"
);
},
{
closed = 1;
nodes = (
"251 89 LINE",
"386 322 LINE",
"619 457 LINE",
"484 224 LINE"
);
},
{
closed = 1;
nodes = (
"399 309 LINE",
"301 139 LINE",
"471 237 LINE"
);
}
);
width = 870;
}
);
unicode = E101;
},
{
glyphname = "square-o";
lastChange = "2014-06-16 13:55:54 +0000";
layers = (
{
hints = (
{
origin = "{0, 20}";
target = "{1, 8}";
},
{
origin = "{1, 15}";
target = "{0, 7}";
},
{
horizontal = 1;
origin = "{0, 13}";
target = "{1, 12}";
},
{
horizontal = 1;
origin = "{1, 3}";
target = "{0, 0}";
},
{
horizontal = 1;
origin = "{0, 0}";
target = down;
type = TopGhost;
},
{
horizontal = 1;
origin = "{0, 13}";
target = up;
type = BottomGhost;
}
);
layerId = "D0C94BA9-7956-4545-877F-F891ABB04BC1";
name = Regular;
paths = (
{
closed = 1;
nodes = (
"694 703 LINE SMOOTH",
"741 703 OFFCURVE",
"783 684 OFFCURVE",
"815 653 CURVE SMOOTH",
"846 621 OFFCURVE",
"865 579 OFFCURVE",
"865 532 CURVE SMOOTH",
"865 14 LINE SMOOTH",
"865 -33 OFFCURVE",
"846 -76 OFFCURVE",
"815 -107 CURVE SMOOTH",
"783 -138 OFFCURVE",
"741 -157 OFFCURVE",
"694 -157 CURVE SMOOTH",
"176 -157 LINE SMOOTH",
"129 -157 OFFCURVE",
"86 -138 OFFCURVE",
"55 -107 CURVE SMOOTH",
"24 -76 OFFCURVE",
"5 -33 OFFCURVE",
"5 14 CURVE SMOOTH",
"5 532 LINE SMOOTH",
"5 579 OFFCURVE",
"24 621 OFFCURVE",
"55 653 CURVE SMOOTH",
"86 684 OFFCURVE",
"129 703 OFFCURVE",
"176 703 CURVE SMOOTH"
);
},
{
closed = 1;
nodes = (
"765 532 LINE SMOOTH",
"765 571 OFFCURVE",
"733 603 OFFCURVE",
"694 603 CURVE SMOOTH",
"176 603 LINE SMOOTH",
"137 603 OFFCURVE",
"105 571 OFFCURVE",
"105 532 CURVE SMOOTH",
"105 14 LINE SMOOTH",
"105 -25 OFFCURVE",
"137 -57 OFFCURVE",
"176 -57 CURVE SMOOTH",
"694 -57 LINE SMOOTH",
"733 -57 OFFCURVE",
"765 -25 OFFCURVE",
"765 14 CURVE SMOOTH"
);
}
);
width = 870;
}
);
unicode = E021;
},
{
glyphname = star;
lastChange = "2014-06-16 13:12:31 +0000";
layers = (
{
layerId = "D0C94BA9-7956-4545-877F-F891ABB04BC1";
name = Regular;
paths = (
{
closed = 1;
nodes = (
"178 -157 LINE",
"231 154 LINE",
"5 375 LINE",
"317 420 LINE",
"457 703 LINE",
"597 420 LINE",
"909 375 LINE",
"683 154 LINE",
"737 -157 LINE",
"457 -10 LINE"
);
}
);
width = 914;
}
);
unicode = E106;
},
{
glyphname = tag;
lastChange = "2014-06-16 13:13:37 +0000";
layers = (
{
layerId = "D0C94BA9-7956-4545-877F-F891ABB04BC1";
name = Regular;
paths = (
{
closed = 1;
nodes = (
"724 523 LINE SMOOTH",
"726 548 OFFCURVE",
"716 573 OFFCURVE",
"699 591 CURVE SMOOTH",
"681 608 OFFCURVE",
"656 618 OFFCURVE",
"631 616 CURVE SMOOTH",
"385 600 LINE SMOOTH",
"364 598 OFFCURVE",
"344 589 OFFCURVE",
"329 574 CURVE SMOOTH",
"18 264 LINE SMOOTH",
"1 247 OFFCURVE",
"1 219 OFFCURVE",
"18 202 CURVE SMOOTH",
"310 -90 LINE SMOOTH",
"327 -107 OFFCURVE",
"355 -107 OFFCURVE",
"372 -90 CURVE SMOOTH",
"682 221 LINE SMOOTH",
"697 236 OFFCURVE",
"706 256 OFFCURVE",
"708 277 CURVE SMOOTH"
);
},
{
closed = 1;
nodes = (
"495 418 OFFCURVE",
"495 444 OFFCURVE",
"511 459 CURVE SMOOTH",
"526 475 OFFCURVE",
"552 475 OFFCURVE",
"567 459 CURVE SMOOTH",
"583 444 OFFCURVE",
"583 418 OFFCURVE",
"567 403 CURVE SMOOTH",
"552 387 OFFCURVE",
"526 387 OFFCURVE",
"511 403 CURVE SMOOTH"
);
}
);
width = 729;
}
);
unicode = E10B;
},
{
glyphname = tasks;
lastChange = "2014-06-16 13:12:31 +0000";
layers = (
{
layerId = "D0C94BA9-7956-4545-877F-F891ABB04BC1";
name = Regular;
paths = (
{
closed = 1;
nodes = (
"5 656 LINE",
"5 483 LINE",
"955 483 LINE",
"955 656 LINE"
);
},
{
closed = 1;
nodes = (
"520 532 LINE",
"520 608 LINE",
"919 608 LINE",
"919 532 LINE"
);
},
{
closed = 1;
nodes = (
"5 385 LINE",
"5 212 LINE",
"955 212 LINE",
"955 385 LINE"
);
},
{
closed = 1;
nodes = (
"217 260 LINE",
"217 337 LINE",
"919 337 LINE",
"919 260 LINE"
);
},
{
closed = 1;
nodes = (
"5 103 LINE",
"5 -70 LINE",
"955 -70 LINE",
"955 103 LINE"
);
},
{
closed = 1;
nodes = (
"399 -22 LINE",
"399 54 LINE",
"919 54 LINE",
"919 -22 LINE"
);
}
);
width = 960;
}
);
unicode = E10A;
},
{
glyphname = alarm.clock.o;
lastChange = "2014-06-16 13:54:00 +0000";
layers = (
{
layerId = "D0C94BA9-7956-4545-877F-F891ABB04BC1";
name = Regular;
paths = (
{
closed = 1;
nodes = (
"758 487 OFFCURVE",
"683 562 OFFCURVE",
"588 602 CURVE SMOOTH",
"540 623 OFFCURVE",
"489 633 OFFCURVE",
"434 633 CURVE SMOOTH",
"325 633 OFFCURVE",
"227 590 OFFCURVE",
"154 517 CURVE SMOOTH",
"82 445 OFFCURVE",
"39 347 OFFCURVE",
"39 238 CURVE SMOOTH",
"39 129 OFFCURVE",
"82 31 OFFCURVE",
"155 -42 CURVE SMOOTH",
"227 -114 OFFCURVE",
"325 -157 OFFCURVE",
"434 -157 CURVE SMOOTH",
"543 -157 OFFCURVE",
"641 -114 OFFCURVE",
"714 -41 CURVE SMOOTH",
"786 31 OFFCURVE",
"829 129 OFFCURVE",
"829 238 CURVE SMOOTH",
"829 293 OFFCURVE",
"819 344 OFFCURVE",
"798 392 CURVE SMOOTH"
);
},
{
closed = 1;
nodes = (
"684 49 OFFCURVE",
"623 -12 OFFCURVE",
"552 -41 CURVE SMOOTH",
"515 -57 OFFCURVE",
"475 -65 OFFCURVE",
"434 -65 CURVE SMOOTH",
"350 -65 OFFCURVE",
"277 -33 OFFCURVE",
"220 24 CURVE SMOOTH",
"163 81 OFFCURVE",
"131 154 OFFCURVE",
"131 238 CURVE SMOOTH",
"131 321 OFFCURVE",
"163 395 OFFCURVE",
"220 452 CURVE SMOOTH",
"277 509 OFFCURVE",
"350 541 OFFCURVE",
"434 541 CURVE SMOOTH",
"517 541 OFFCURVE",
"591 509 OFFCURVE",
"648 452 CURVE SMOOTH",
"705 395 OFFCURVE",
"737 321 OFFCURVE",
"737 238 CURVE SMOOTH",
"737 196 OFFCURVE",
"729 157 OFFCURVE",
"713 120 CURVE SMOOTH"
);
},
{
closed = 1;
nodes = (
"480 257 LINE",
"480 431 LINE SMOOTH",
"480 456 OFFCURVE",
"459 477 OFFCURVE",
"434 477 CURVE SMOOTH",
"409 477 OFFCURVE",
"388 456 OFFCURVE",
"388 431 CURVE SMOOTH",
"388 238 LINE SMOOTH",
"388 223 OFFCURVE",
"394 211 OFFCURVE",
"405 203 CURVE",
"538 69 LINE SMOOTH",
"547 60 OFFCURVE",
"558 55 OFFCURVE",
"570 55 CURVE SMOOTH",
"595 55 OFFCURVE",
"616 76 OFFCURVE",
"616 101 CURVE SMOOTH",
"616 114 OFFCURVE",
"612 125 OFFCURVE",
"603 134 CURVE SMOOTH"
);
},
{
closed = 1;
nodes = (
"587 691 OFFCURVE",
"619 701 OFFCURVE",
"654 703 CURVE",
"663 703 LINE SMOOTH",
"716 703 OFFCURVE",
"765 683 OFFCURVE",
"801 649 CURVE SMOOTH",
"837 615 OFFCURVE",
"860 566 OFFCURVE",
"863 513 CURVE",
"863 501 LINE SMOOTH",
"863 470 OFFCURVE",
"856 441 OFFCURVE",
"843 413 CURVE",
"819 477 OFFCURVE",
"780 533 OFFCURVE",
"731 577 CURVE SMOOTH",
"682 621 OFFCURVE",
"622 655 OFFCURVE",
"557 672 CURVE"
);
},
{
closed = 1;
nodes = (
"281 691 OFFCURVE",
"249 701 OFFCURVE",
"214 703 CURVE",
"205 703 LINE SMOOTH",
"152 703 OFFCURVE",
"103 683 OFFCURVE",
"67 649 CURVE SMOOTH",
"31 615 OFFCURVE",
"8 566 OFFCURVE",
"5 513 CURVE",
"5 501 LINE SMOOTH",
"5 470 OFFCURVE",
"12 441 OFFCURVE",
"25 413 CURVE",
"49 477 OFFCURVE",
"88 533 OFFCURVE",
"137 577 CURVE SMOOTH",
"186 621 OFFCURVE",
"246 655 OFFCURVE",
"311 672 CURVE"
);
}
);
width = 868;
}
);
unicode = E03E;
},
{
glyphname = cal.day;
lastChange = "2014-06-16 13:54:30 +0000";
layers = (
{
layerId = "D0C94BA9-7956-4545-877F-F891ABB04BC1";
name = Regular;
paths = (
{
closed = 1;
nodes = (
"705 543 LINE",
"705 513 LINE SMOOTH",
"705 485 OFFCURVE",
"694 461 OFFCURVE",
"676 443 CURVE SMOOTH",
"658 425 OFFCURVE",
"633 413 OFFCURVE",
"605 413 CURVE SMOOTH",
"549 413 OFFCURVE",
"505 457 OFFCURVE",
"505 513 CURVE SMOOTH",
"505 543 LINE",
"365 543 LINE",
"365 513 LINE SMOOTH",
"365 485 OFFCURVE",
"354 461 OFFCURVE",
"336 443 CURVE SMOOTH",
"318 425 OFFCURVE",
"293 413 OFFCURVE",
"265 413 CURVE SMOOTH",
"209 413 OFFCURVE",
"165 457 OFFCURVE",
"165 513 CURVE SMOOTH",
"165 543 LINE",
"34 543 LINE SMOOTH",
"18 543 OFFCURVE",
"5 530 OFFCURVE",
"5 514 CURVE SMOOTH",
"5 -59 LINE SMOOTH",
"5 -75 OFFCURVE",
"18 -87 OFFCURVE",
"34 -87 CURVE SMOOTH",
"837 -87 LINE SMOOTH",
"853 -87 OFFCURVE",
"865 -75 OFFCURVE",
"865 -59 CURVE SMOOTH",
"865 514 LINE SMOOTH",
"865 530 OFFCURVE",
"853 543 OFFCURVE",
"837 543 CURVE SMOOTH"
);
},
{
closed = 1;
nodes = (
"521 241 LINE",
"470 185 OFFCURVE",
"458 135 OFFCURVE",
"450 64 CURVE SMOOTH",
"448 40 LINE",
"391 40 LINE",
"393 64 LINE SMOOTH",
"397 99 OFFCURVE",
"404 130 OFFCURVE",
"416 161 CURVE SMOOTH",
"428 191 OFFCURVE",
"445 218 OFFCURVE",
"466 241 CURVE",
"344 241 LINE",
"344 285 LINE",
"521 285 LINE"
);
},
{
closed = 1;
nodes = (
"655 513 LINE SMOOTH",
"655 485 OFFCURVE",
"633 463 OFFCURVE",
"605 463 CURVE SMOOTH",
"578 463 OFFCURVE",
"555 485 OFFCURVE",
"555 513 CURVE SMOOTH",
"555 583 LINE SMOOTH",
"555 610 OFFCURVE",
"578 633 OFFCURVE",
"605 633 CURVE SMOOTH",
"633 633 OFFCURVE",
"655 610 OFFCURVE",
"655 583 CURVE SMOOTH"
);
},
{
closed = 1;
nodes = (
"316 513 LINE SMOOTH",
"316 485 OFFCURVE",
"293 463 OFFCURVE",
"266 463 CURVE SMOOTH",
"238 463 OFFCURVE",
"216 485 OFFCURVE",
"216 513 CURVE SMOOTH",
"216 583 LINE SMOOTH",
"216 610 OFFCURVE",
"238 633 OFFCURVE",
"266 633 CURVE SMOOTH",
"293 633 OFFCURVE",
"316 610 OFFCURVE",
"316 583 CURVE SMOOTH"
);
}
);
width = 870;
}
);
unicode = E043;
},
{
glyphname = cal.day.o;
lastChange = "2014-06-16 13:54:38 +0000";
layers = (
{
layerId = "D0C94BA9-7956-4545-877F-F891ABB04BC1";
name = Regular;
paths = (
{
closed = 1;
nodes = (
"865 -59 LINE SMOOTH",
"865 -74 OFFCURVE",
"852 -87 OFFCURVE",
"837 -87 CURVE SMOOTH",
"33 -87 LINE SMOOTH",
"18 -87 OFFCURVE",
"5 -74 OFFCURVE",
"5 -59 CURVE SMOOTH",
"5 515 LINE SMOOTH",
"5 530 OFFCURVE",
"18 543 OFFCURVE",
"33 543 CURVE SMOOTH",
"77 543 LINE SMOOTH",
"92 543 OFFCURVE",
"105 530 OFFCURVE",
"105 515 CURVE SMOOTH",
"105 13 LINE",
"765 13 LINE",
"765 515 LINE SMOOTH",
"765 530 OFFCURVE",
"778 543 OFFCURVE",
"793 543 CURVE SMOOTH",
"837 543 LINE SMOOTH",
"852 543 OFFCURVE",
"865 530 OFFCURVE",
"865 515 CURVE SMOOTH"
);
},
{
closed = 1;
nodes = (
"315 513 LINE SMOOTH",
"315 485 OFFCURVE",
"293 463 OFFCURVE",
"265 463 CURVE SMOOTH",
"237 463 OFFCURVE",
"215 485 OFFCURVE",
"215 513 CURVE SMOOTH",
"215 583 LINE SMOOTH",
"215 611 OFFCURVE",
"237 633 OFFCURVE",
"265 633 CURVE SMOOTH",
"293 633 OFFCURVE",
"315 611 OFFCURVE",
"315 583 CURVE SMOOTH"
);
},
{
closed = 1;
nodes = (
"655 513 LINE SMOOTH",
"655 485 OFFCURVE",
"633 463 OFFCURVE",
"605 463 CURVE SMOOTH",
"577 463 OFFCURVE",
"555 485 OFFCURVE",
"555 513 CURVE SMOOTH",
"555 583 LINE SMOOTH",
"555 611 OFFCURVE",
"577 633 OFFCURVE",
"605 633 CURVE SMOOTH",
"633 633 OFFCURVE",
"655 611 OFFCURVE",
"655 583 CURVE SMOOTH"
);
},
{
closed = 1;
nodes = (
"533 322 LINE",
"509 295 OFFCURVE",
"492 268 OFFCURVE",
"483 241 CURVE",
"472 214 OFFCURVE",
"467 182 OFFCURVE",
"463 145 CURVE SMOOTH",
"461 121 LINE",
"404 121 LINE",
"406 145 LINE SMOOTH",
"411 214 OFFCURVE",
"436 275 OFFCURVE",
"479 322 CURVE",
"357 322 LINE",
"357 366 LINE",
"533 366 LINE"
);
}
);
width = 870;
}
);
unicode = E042;
},
{
glyphname = cal.o;
lastChange = "2014-06-17 10:22:34 +0000";
layers = (
{
layerId = "D0C94BA9-7956-4545-877F-F891ABB04BC1";
name = Regular;
paths = (
{
closed = 1;
nodes = (
"865 -59 LINE SMOOTH",
"865 -74 OFFCURVE",
"852 -87 OFFCURVE",
"837 -87 CURVE SMOOTH",
"33 -87 LINE SMOOTH",
"18 -87 OFFCURVE",
"5 -74 OFFCURVE",
"5 -59 CURVE SMOOTH",
"5 515 LINE SMOOTH",
"5 530 OFFCURVE",
"18 543 OFFCURVE",
"33 543 CURVE SMOOTH",
"77 543 LINE SMOOTH",
"92 543 OFFCURVE",
"105 530 OFFCURVE",
"105 515 CURVE SMOOTH",
"105 13 LINE",
"765 13 LINE",
"765 515 LINE SMOOTH",
"765 530 OFFCURVE",
"778 543 OFFCURVE",
"793 543 CURVE SMOOTH",
"837 543 LINE SMOOTH",
"852 543 OFFCURVE",
"865 530 OFFCURVE",
"865 515 CURVE SMOOTH"
);
},
{
closed = 1;
nodes = (
"315 513 LINE SMOOTH",
"315 485 OFFCURVE",
"293 463 OFFCURVE",
"265 463 CURVE SMOOTH",
"237 463 OFFCURVE",
"215 485 OFFCURVE",
"215 513 CURVE SMOOTH",
"215 583 LINE SMOOTH",
"215 611 OFFCURVE",
"237 633 OFFCURVE",
"265 633 CURVE SMOOTH",
"293 633 OFFCURVE",
"315 611 OFFCURVE",
"315 583 CURVE SMOOTH"
);
},
{
closed = 1;
nodes = (
"655 513 LINE SMOOTH",
"655 485 OFFCURVE",
"633 463 OFFCURVE",
"605 463 CURVE SMOOTH",
"577 463 OFFCURVE",
"555 485 OFFCURVE",
"555 513 CURVE SMOOTH",
"555 583 LINE SMOOTH",
"555 611 OFFCURVE",
"577 633 OFFCURVE",
"605 633 CURVE SMOOTH",
"633 633 OFFCURVE",
"655 611 OFFCURVE",
"655 583 CURVE SMOOTH"
);
},
{
closed = 1;
nodes = (
"294 293 LINE",
"194 293 LINE",
"194 393 LINE",
"294 393 LINE"
);
},
{
closed = 1;
nodes = (
"485 293 LINE",
"385 293 LINE",
"385 393 LINE",
"485 393 LINE"
);
},
{
closed = 1;
nodes = (
"674 293 LINE",
"574 293 LINE",
"574 393 LINE",
"674 393 LINE"
);
},
{
closed = 1;
nodes = (
"295 103 LINE",
"195 103 LINE",
"195 203 LINE",
"295 203 LINE"
);
},
{
closed = 1;
nodes = (
"486 103 LINE",
"386 103 LINE",
"386 203 LINE",
"486 203 LINE"
);
},
{
closed = 1;
nodes = (
"675 103 LINE",
"575 103 LINE",
"575 203 LINE",
"675 203 LINE"
);
}
);
width = 870;
}
);
unicode = E040;
},
{
glyphname = chevron.circle.down.o;
lastChange = "2014-06-17 10:23:40 +0000";
layers = (
{
hints = (
{
origin = "{0, 17}";
target = "{1, 17}";
},
{
origin = "{1, 5}";
target = "{0, 5}";
},
{
horizontal = 1;
origin = "{0, 11}";
target = "{1, 23}";
},
{
horizontal = 1;
origin = "{1, 11}";
target = "{0, 23}";
},
{
horizontal = 1;
origin = "{0, 23}";
target = down;
type = TopGhost;
},
{
horizontal = 1;
origin = "{0, 11}";
target = up;
type = BottomGhost;
},
{
origin = "{0, 17}";
target = "{0, 5}";
}
);
layerId = "D0C94BA9-7956-4545-877F-F891ABB04BC1";
name = Regular;
paths = (
{
closed = 1;
nodes = (
"575 721 OFFCURVE",
"686 671 OFFCURVE",
"767 590 CURVE SMOOTH",
"848 509 OFFCURVE",
"898 398 OFFCURVE",
"898 274 CURVE SMOOTH",
"898 150 OFFCURVE",
"848 39 OFFCURVE",
"767 -41 CURVE SMOOTH",
"686 -122 OFFCURVE",
"575 -172 OFFCURVE",
"451 -172 CURVE SMOOTH",
"328 -172 OFFCURVE",
"216 -122 OFFCURVE",
"136 -41 CURVE SMOOTH",
"55 39 OFFCURVE",
"5 150 OFFCURVE",
"5 274 CURVE SMOOTH",
"5 398 OFFCURVE",
"55 509 OFFCURVE",
"136 590 CURVE SMOOTH",
"216 671 OFFCURVE",
"328 721 OFFCURVE",
"451 721 CURVE SMOOTH"
);
},
{
closed = 1;
nodes = (
"547 -72 OFFCURVE",
"633 -34 OFFCURVE",
"697 29 CURVE SMOOTH",
"760 92 OFFCURVE",
"798 178 OFFCURVE",
"798 274 CURVE SMOOTH",
"798 370 OFFCURVE",
"760 456 OFFCURVE",
"697 519 CURVE SMOOTH",
"633 582 OFFCURVE",
"547 621 OFFCURVE",
"451 621 CURVE SMOOTH",
"355 621 OFFCURVE",
"269 582 OFFCURVE",
"206 519 CURVE SMOOTH",
"143 456 OFFCURVE",
"105 370 OFFCURVE",
"105 274 CURVE SMOOTH",
"105 178 OFFCURVE",
"143 92 OFFCURVE",
"206 29 CURVE SMOOTH",
"269 -34 OFFCURVE",
"355 -72 OFFCURVE",
"451 -72 CURVE SMOOTH"
);
},
{
closed = 1;
nodes = (
"245 311 LINE",
"240 318 OFFCURVE",
"237 325 OFFCURVE",
"237 332 CURVE SMOOTH",
"237 337 OFFCURVE",
"238 340 OFFCURVE",
"239 343 CURVE",
"244 355 OFFCURVE",
"252 361 OFFCURVE",
"265 361 CURVE SMOOTH",
"365 361 LINE SMOOTH",
"372 361 OFFCURVE",
"378 358 OFFCURVE",
"384 352 CURVE SMOOTH",
"431 305 LINE SMOOTH",
"436 300 OFFCURVE",
"443 297 OFFCURVE",
"451 297 CURVE SMOOTH",
"459 297 OFFCURVE",
"466 300 OFFCURVE",
"471 305 CURVE SMOOTH",
"518 352 LINE SMOOTH",
"524 358 OFFCURVE",
"531 361 OFFCURVE",
"538 361 CURVE SMOOTH",
"638 361 LINE SMOOTH",
"650 361 OFFCURVE",
"659 355 OFFCURVE",
"664 343 CURVE",
"665 339 OFFCURVE",
"666 336 OFFCURVE",
"666 332 CURVE SMOOTH",
"666 325 OFFCURVE",
"663 318 OFFCURVE",
"658 311 CURVE",
"471 125 LINE",
"466 119 OFFCURVE",
"459 116 OFFCURVE",
"451 116 CURVE SMOOTH",
"444 116 OFFCURVE",
"437 119 OFFCURVE",
"431 125 CURVE SMOOTH"
);
}
);
width = 903;
}
);
unicode = E012;
},
{
glyphname = chevron.circle.right;
lastChange = "2014-06-17 10:23:54 +0000";
layers = (
{
layerId = "D0C94BA9-7956-4545-877F-F891ABB04BC1";
name = Regular;
paths = (
{
closed = 1;
nodes = (
"865 155 OFFCURVE",
"818 49 OFFCURVE",
"740 -29 CURVE SMOOTH",
"662 -107 OFFCURVE",
"554 -156 OFFCURVE",
"435 -156 CURVE SMOOTH",
"316 -156 OFFCURVE",
"210 -107 OFFCURVE",
"132 -29 CURVE SMOOTH",
"54 49 OFFCURVE",
"5 155 OFFCURVE",
"5 274 CURVE SMOOTH",
"5 393 OFFCURVE",
"54 500 OFFCURVE",
"132 578 CURVE SMOOTH",
"210 656 OFFCURVE",
"316 704 OFFCURVE",
"435 704 CURVE SMOOTH",
"554 704 OFFCURVE",
"662 656 OFFCURVE",
"740 578 CURVE SMOOTH",
"818 500 OFFCURVE",
"865 393 OFFCURVE",
"865 274 CURVE SMOOTH"
);
},
{
closed = 1;
nodes = (
"379 56 OFFCURVE",
"389 59 OFFCURVE",
"398 68 CURVE SMOOTH",
"585 254 LINE SMOOTH",
"590 259 OFFCURVE",
"593 266 OFFCURVE",
"593 274 CURVE SMOOTH",
"593 282 OFFCURVE",
"590 289 OFFCURVE",
"585 294 CURVE SMOOTH",
"398 480 LINE SMOOTH",
"389 489 OFFCURVE",
"379 492 OFFCURVE",
"366 487 CURVE",
"355 482 OFFCURVE",
"348 472 OFFCURVE",
"348 460 CURVE SMOOTH",
"348 361 LINE SMOOTH",
"348 354 OFFCURVE",
"351 347 OFFCURVE",
"357 341 CURVE SMOOTH",
"404 294 LINE SMOOTH",
"409 289 OFFCURVE",
"412 282 OFFCURVE",
"412 274 CURVE SMOOTH",
"412 266 OFFCURVE",
"409 259 OFFCURVE",
"404 254 CURVE SMOOTH",
"357 207 LINE SMOOTH",
"351 201 OFFCURVE",
"348 194 OFFCURVE",
"348 187 CURVE SMOOTH",
"348 88 LINE SMOOTH",
"348 76 OFFCURVE",
"355 66 OFFCURVE",
"366 61 CURVE"
);
}
);
width = 870;
}
);
unicode = E017;
},
{
glyphname = chevron.down.circle;
lastChange = "2014-06-17 10:30:24 +0000";
layers = (
{
layerId = "D0C94BA9-7956-4545-877F-F891ABB04BC1";
name = Regular;
paths = (
{
closed = 1;
nodes = (
"316 -156 OFFCURVE",
"210 -107 OFFCURVE",
"132 -29 CURVE SMOOTH",
"54 49 OFFCURVE",
"5 155 OFFCURVE",
"5 274 CURVE SMOOTH",
"5 393 OFFCURVE",
"54 500 OFFCURVE",
"132 578 CURVE SMOOTH",
"210 656 OFFCURVE",
"316 704 OFFCURVE",
"435 704 CURVE SMOOTH",
"554 704 OFFCURVE",
"662 656 OFFCURVE",
"740 578 CURVE SMOOTH",
"818 500 OFFCURVE",
"865 393 OFFCURVE",
"865 274 CURVE SMOOTH",
"865 155 OFFCURVE",
"818 49 OFFCURVE",
"740 -29 CURVE SMOOTH",
"662 -107 OFFCURVE",
"554 -156 OFFCURVE",
"435 -156 CURVE SMOOTH"
);
},
{
closed = 1;
nodes = (
"222 340 OFFCURVE",
"221 337 OFFCURVE",
"221 332 CURVE SMOOTH",
"221 325 OFFCURVE",
"224 318 OFFCURVE",
"229 311 CURVE",
"415 125 LINE SMOOTH",
"421 119 OFFCURVE",
"428 116 OFFCURVE",
"435 116 CURVE SMOOTH",
"443 116 OFFCURVE",
"450 119 OFFCURVE",
"455 125 CURVE",
"642 311 LINE",
"647 318 OFFCURVE",
"650 325 OFFCURVE",
"650 332 CURVE SMOOTH",
"650 336 OFFCURVE",
"649 339 OFFCURVE",
"648 343 CURVE",
"643 355 OFFCURVE",
"634 361 OFFCURVE",
"622 361 CURVE SMOOTH",
"522 361 LINE SMOOTH",
"515 361 OFFCURVE",
"508 358 OFFCURVE",
"502 352 CURVE SMOOTH",
"455 305 LINE SMOOTH",
"450 300 OFFCURVE",
"443 297 OFFCURVE",
"435 297 CURVE SMOOTH",
"427 297 OFFCURVE",
"420 300 OFFCURVE",
"415 305 CURVE SMOOTH",
"368 352 LINE SMOOTH",
"362 358 OFFCURVE",
"356 361 OFFCURVE",
"349 361 CURVE SMOOTH",
"249 361 LINE SMOOTH",
"236 361 OFFCURVE",
"228 355 OFFCURVE",
"223 343 CURVE"
);
}
);
width = 870;
}
);
unicode = E015;
},
{
glyphname = chevron.right.circle.o;
lastChange = "2014-06-17 10:24:32 +0000";
layers = (
{
hints = (
{
horizontal = 1;
origin = "{0, 23}";
target = down;
type = TopGhost;
},
{
horizontal = 1;
origin = "{0, 11}";
target = up;
type = BottomGhost;
},
{
origin = "{0, 17}";
target = "{1, 17}";
},
{
origin = "{1, 5}";
target = "{0, 5}";
},
{
horizontal = 1;
origin = "{0, 11}";
target = "{1, 23}";
},
{
horizontal = 1;
origin = "{0, 23}";
target = "{1, 11}";
},
{
origin = "{0, 17}";
target = "{0, 5}";
}
);
layerId = "D0C94BA9-7956-4545-877F-F891ABB04BC1";
name = Regular;
paths = (
{
closed = 1;
nodes = (
"575 720 OFFCURVE",
"686 670 OFFCURVE",
"767 590 CURVE SMOOTH",
"848 509 OFFCURVE",
"898 397 OFFCURVE",
"898 274 CURVE SMOOTH",
"898 150 OFFCURVE",
"848 39 OFFCURVE",
"767 -42 CURVE SMOOTH",
"686 -123 OFFCURVE",
"575 -173 OFFCURVE",
"451 -173 CURVE SMOOTH",
"327 -173 OFFCURVE",
"216 -123 OFFCURVE",
"136 -42 CURVE SMOOTH",
"55 39 OFFCURVE",
"5 150 OFFCURVE",
"5 274 CURVE SMOOTH",
"5 397 OFFCURVE",
"55 509 OFFCURVE",
"136 590 CURVE SMOOTH",
"216 670 OFFCURVE",
"327 720 OFFCURVE",
"451 720 CURVE SMOOTH"
);
},
{
closed = 1;
nodes = (
"547 -73 OFFCURVE",
"633 -34 OFFCURVE",
"696 29 CURVE SMOOTH",
"759 92 OFFCURVE",
"798 178 OFFCURVE",
"798 274 CURVE SMOOTH",
"798 370 OFFCURVE",
"759 456 OFFCURVE",
"696 519 CURVE SMOOTH",
"633 582 OFFCURVE",
"547 620 OFFCURVE",
"451 620 CURVE SMOOTH",
"355 620 OFFCURVE",
"269 582 OFFCURVE",
"206 519 CURVE SMOOTH",
"143 456 OFFCURVE",
"105 370 OFFCURVE",
"105 274 CURVE SMOOTH",
"105 178 OFFCURVE",
"143 92 OFFCURVE",
"206 29 CURVE SMOOTH",
"269 -34 OFFCURVE",
"355 -73 OFFCURVE",
"451 -73 CURVE SMOOTH"
);
},
{
closed = 1;
nodes = (
"414 67 LINE",
"407 62 OFFCURVE",
"400 59 OFFCURVE",
"393 59 CURVE SMOOTH",
"389 59 OFFCURVE",
"386 60 OFFCURVE",
"382 61 CURVE",
"370 66 OFFCURVE",
"364 75 OFFCURVE",
"364 88 CURVE SMOOTH",
"364 187 LINE SMOOTH",
"364 195 OFFCURVE",
"367 202 OFFCURVE",
"373 207 CURVE",
"420 254 LINE SMOOTH",
"425 259 OFFCURVE",
"428 266 OFFCURVE",
"428 274 CURVE SMOOTH",
"428 282 OFFCURVE",
"425 289 OFFCURVE",
"420 294 CURVE SMOOTH",
"373 341 LINE",
"367 346 OFFCURVE",
"364 352 OFFCURVE",
"364 360 CURVE SMOOTH",
"364 460 LINE SMOOTH",
"364 473 OFFCURVE",
"370 481 OFFCURVE",
"382 486 CURVE",
"385 487 OFFCURVE",
"388 488 OFFCURVE",
"393 488 CURVE SMOOTH",
"400 488 OFFCURVE",
"407 485 OFFCURVE",
"414 480 CURVE",
"600 294 LINE SMOOTH",
"606 288 OFFCURVE",
"609 281 OFFCURVE",
"609 274 CURVE SMOOTH",
"609 265 OFFCURVE",
"606 259 OFFCURVE",
"600 254 CURVE"
);
}
);
width = 903;
}
);
unicode = E011;
},
{
glyphname = chevron.up.circle;
lastChange = "2014-06-17 10:24:48 +0000";
layers = (
{
layerId = "D0C94BA9-7956-4545-877F-F891ABB04BC1";
name = Regular;
paths = (
{
closed = 1;
nodes = (
"554 704 OFFCURVE",
"662 656 OFFCURVE",
"740 578 CURVE SMOOTH",
"818 500 OFFCURVE",
"865 393 OFFCURVE",
"865 274 CURVE SMOOTH",
"865 155 OFFCURVE",
"818 49 OFFCURVE",
"740 -29 CURVE SMOOTH",
"662 -107 OFFCURVE",
"554 -156 OFFCURVE",
"435 -156 CURVE SMOOTH",
"316 -156 OFFCURVE",
"210 -107 OFFCURVE",
"132 -29 CURVE SMOOTH",
"54 49 OFFCURVE",
"5 155 OFFCURVE",
"5 274 CURVE SMOOTH",
"5 393 OFFCURVE",
"54 500 OFFCURVE",
"132 578 CURVE SMOOTH",
"210 656 OFFCURVE",
"316 704 OFFCURVE",
"435 704 CURVE SMOOTH"
);
},
{
closed = 1;
nodes = (
"653 217 OFFCURVE",
"651 228 OFFCURVE",
"642 237 CURVE SMOOTH",
"455 423 LINE",
"450 429 OFFCURVE",
"443 432 OFFCURVE",
"435 432 CURVE SMOOTH",
"428 432 OFFCURVE",
"421 429 OFFCURVE",
"415 423 CURVE SMOOTH",
"229 237 LINE SMOOTH",
"210 217 OFFCURVE",
"224 187 OFFCURVE",
"249 187 CURVE SMOOTH",
"349 187 LINE SMOOTH",
"356 187 OFFCURVE",
"362 190 OFFCURVE",
"368 196 CURVE SMOOTH",
"415 243 LINE SMOOTH",
"420 248 OFFCURVE",
"427 251 OFFCURVE",
"435 251 CURVE SMOOTH",
"443 251 OFFCURVE",
"450 248 OFFCURVE",
"455 243 CURVE SMOOTH",
"502 196 LINE SMOOTH",
"508 190 OFFCURVE",
"515 187 OFFCURVE",
"522 187 CURVE SMOOTH",
"622 187 LINE SMOOTH",
"634 187 OFFCURVE",
"643 193 OFFCURVE",
"648 205 CURVE SMOOTH"
);
}
);
width = 870;
}
);
unicode = E014;
},
{
glyphname = circ.check;
lastChange = "2014-06-16 13:55:10 +0000";
layers = (
{
layerId = "D0C94BA9-7956-4545-877F-F891ABB04BC1";
name = Regular;
paths = (
{
closed = 1;
nodes = (
"554 703 OFFCURVE",
"661 655 OFFCURVE",
"739 577 CURVE SMOOTH",
"817 499 OFFCURVE",
"865 392 OFFCURVE",
"865 273 CURVE SMOOTH",
"865 154 OFFCURVE",
"817 48 OFFCURVE",
"739 -30 CURVE SMOOTH",
"661 -108 OFFCURVE",
"554 -157 OFFCURVE",
"435 -157 CURVE SMOOTH",
"316 -157 OFFCURVE",
"210 -108 OFFCURVE",
"132 -30 CURVE SMOOTH",
"54 48 OFFCURVE",
"5 154 OFFCURVE",
"5 273 CURVE SMOOTH",
"5 392 OFFCURVE",
"54 499 OFFCURVE",
"132 577 CURVE SMOOTH",
"210 655 OFFCURVE",
"316 703 OFFCURVE",
"435 703 CURVE SMOOTH"
);
},
{
closed = 1;
nodes = (
"693 372 LINE",
"700 378 OFFCURVE",
"703 386 OFFCURVE",
"703 395 CURVE SMOOTH",
"703 404 OFFCURVE",
"700 412 OFFCURVE",
"693 419 CURVE SMOOTH",
"648 465 LINE",
"640 472 OFFCURVE",
"632 475 OFFCURVE",
"624 475 CURVE SMOOTH",
"615 475 OFFCURVE",
"608 472 OFFCURVE",
"601 465 CURVE SMOOTH",
"356 220 LINE",
"247 329 LINE",
"239 336 OFFCURVE",
"231 339 OFFCURVE",
"223 339 CURVE SMOOTH",
"214 339 OFFCURVE",
"207 336 OFFCURVE",
"200 329 CURVE SMOOTH",
"154 284 LINE SMOOTH",
"147 277 OFFCURVE",
"144 269 OFFCURVE",
"144 260 CURVE SMOOTH",
"144 251 OFFCURVE",
"147 243 OFFCURVE",
"154 237 CURVE",
"332 58 LINE",
"338 51 OFFCURVE",
"346 48 OFFCURVE",
"355 48 CURVE SMOOTH",
"364 48 OFFCURVE",
"372 51 OFFCURVE",
"379 58 CURVE SMOOTH"
);
}
);
width = 870;
}
);
unicode = E02C;
},
{
glyphname = circ.check.o;
lastChange = "2014-06-16 14:01:44 +0000";
layers = (
{
hints = (
{
origin = "{0, 14}";
target = "{1, 14}";
},
{
origin = "{1, 2}";
target = "{0, 2}";
},
{
horizontal = 1;
origin = "{0, 8}";
target = "{1, 20}";
},
{
horizontal = 1;
origin = "{1, 8}";
target = "{0, 20}";
},
{
horizontal = 1;
origin = "{0, 20}";
target = down;
type = TopGhost;
},
{
horizontal = 1;
origin = "{0, 8}";
target = up;
type = BottomGhost;
}
);
layerId = "D0C94BA9-7956-4545-877F-F891ABB04BC1";
name = Regular;
paths = (
{
closed = 1;
nodes = (
"854 388 OFFCURVE",
"865 332 OFFCURVE",
"865 273 CURVE SMOOTH",
"865 156 OFFCURVE",
"819 48 OFFCURVE",
"739 -32 CURVE SMOOTH",
"660 -111 OFFCURVE",
"551 -157 OFFCURVE",
"435 -157 CURVE SMOOTH",
"318 -157 OFFCURVE",
"212 -112 OFFCURVE",
"131 -31 CURVE SMOOTH",
"52 48 OFFCURVE",
"5 154 OFFCURVE",
"5 273 CURVE SMOOTH",
"5 392 OFFCURVE",
"52 498 OFFCURVE",
"131 577 CURVE SMOOTH",
"212 658 OFFCURVE",
"318 703 OFFCURVE",
"435 703 CURVE SMOOTH",
"551 703 OFFCURVE",
"660 657 OFFCURVE",
"740 577 CURVE SMOOTH",
"780 537 OFFCURVE",
"810 491 OFFCURVE",
"831 440 CURVE SMOOTH"
);
},
{
closed = 1;
nodes = (
"756 186 OFFCURVE",
"765 228 OFFCURVE",
"765 273 CURVE SMOOTH",
"765 362 OFFCURVE",
"732 443 OFFCURVE",
"668 507 CURVE SMOOTH",
"609 566 OFFCURVE",
"523 603 OFFCURVE",
"435 603 CURVE SMOOTH",
"346 603 OFFCURVE",
"261 566 OFFCURVE",
"201 506 CURVE SMOOTH",
"142 447 OFFCURVE",
"105 362 OFFCURVE",
"105 273 CURVE SMOOTH",
"105 184 OFFCURVE",
"142 99 OFFCURVE",
"202 39 CURVE SMOOTH",
"261 -20 OFFCURVE",
"346 -57 OFFCURVE",
"435 -57 CURVE SMOOTH",
"523 -57 OFFCURVE",
"609 -20 OFFCURVE",
"669 40 CURVE SMOOTH",
"700 71 OFFCURVE",
"724 106 OFFCURVE",
"739 145 CURVE SMOOTH"
);
},
{
closed = 1;
nodes = (
"393 87 LINE SMOOTH",
"386 80 OFFCURVE",
"378 77 OFFCURVE",
"369 77 CURVE SMOOTH",
"360 77 OFFCURVE",
"352 80 OFFCURVE",
"346 87 CURVE",
"197 237 LINE SMOOTH",
"190 244 OFFCURVE",
"187 252 OFFCURVE",
"187 261 CURVE SMOOTH",
"187 270 OFFCURVE",
"190 278 OFFCURVE",
"197 284 CURVE",
"242 329 LINE SMOOTH",
"249 336 OFFCURVE",
"256 339 OFFCURVE",
"265 339 CURVE SMOOTH",
"273 339 OFFCURVE",
"281 336 OFFCURVE",
"289 329 CURVE",
"370 248 LINE",
"557 435 LINE",
"563 442 OFFCURVE",
"571 445 OFFCURVE",
"580 445 CURVE SMOOTH",
"589 445 OFFCURVE",
"597 442 OFFCURVE",
"604 435 CURVE SMOOTH",
"650 390 LINE",
"657 384 OFFCURVE",
"660 376 OFFCURVE",
"660 367 CURVE SMOOTH",
"660 358 OFFCURVE",
"657 350 OFFCURVE",
"650 343 CURVE SMOOTH"
);
}
);
width = 870;
}
);
unicode = E031;
},
{
glyphname = circ.minus;
lastChange = "2014-06-16 14:01:36 +0000";
layers = (
{
hints = (
{
horizontal = 1;
origin = "{0, 11}";
target = "{0, 23}";
},
{
horizontal = 1;
origin = "{1, 12}";
target = "{1, 3}";
}
);
layerId = "D0C94BA9-7956-4545-877F-F891ABB04BC1";
name = Regular;
paths = (
{
closed = 1;
nodes = (
"554 703 OFFCURVE",
"661 655 OFFCURVE",
"739 577 CURVE SMOOTH",
"817 499 OFFCURVE",
"865 392 OFFCURVE",
"865 273 CURVE SMOOTH",
"865 154 OFFCURVE",
"817 48 OFFCURVE",
"739 -30 CURVE SMOOTH",
"661 -108 OFFCURVE",
"554 -157 OFFCURVE",
"435 -157 CURVE SMOOTH",
"316 -157 OFFCURVE",
"210 -108 OFFCURVE",
"132 -30 CURVE SMOOTH",
"54 48 OFFCURVE",
"5 154 OFFCURVE",
"5 273 CURVE SMOOTH",
"5 392 OFFCURVE",
"54 499 OFFCURVE",
"132 577 CURVE SMOOTH",
"210 655 OFFCURVE",
"316 703 OFFCURVE",
"435 703 CURVE SMOOTH"
);
},
{
closed = 1;
nodes = (
"725 303 LINE SMOOTH",
"725 326 OFFCURVE",
"708 343 OFFCURVE",
"685 343 CURVE SMOOTH",
"185 343 LINE SMOOTH",
"162 343 OFFCURVE",
"145 326 OFFCURVE",
"145 303 CURVE SMOOTH",
"145 243 LINE SMOOTH",
"145 220 OFFCURVE",
"162 203 OFFCURVE",
"185 203 CURVE SMOOTH",
"685 203 LINE SMOOTH",
"708 203 OFFCURVE",
"725 220 OFFCURVE",
"725 243 CURVE SMOOTH"
);
}
);
width = 870;
}
);
unicode = E02E;
},
{
glyphname = circ.plus;
lastChange = "2014-06-16 14:02:47 +0000";
layers = (
{
layerId = "D0C94BA9-7956-4545-877F-F891ABB04BC1";
name = Regular;
paths = (
{
closed = 1;
nodes = (
"554 703 OFFCURVE",
"661 655 OFFCURVE",
"739 577 CURVE SMOOTH",
"817 499 OFFCURVE",
"865 392 OFFCURVE",
"865 273 CURVE SMOOTH",
"865 154 OFFCURVE",
"817 48 OFFCURVE",
"739 -30 CURVE SMOOTH",
"661 -108 OFFCURVE",
"554 -157 OFFCURVE",
"435 -157 CURVE SMOOTH",
"316 -157 OFFCURVE",
"210 -108 OFFCURVE",
"132 -30 CURVE SMOOTH",
"54 48 OFFCURVE",
"5 154 OFFCURVE",
"5 273 CURVE SMOOTH",
"5 392 OFFCURVE",
"54 499 OFFCURVE",
"132 577 CURVE SMOOTH",
"210 655 OFFCURVE",
"316 703 OFFCURVE",
"435 703 CURVE SMOOTH"
);
},
{
closed = 1;
nodes = (
"725 303 LINE SMOOTH",
"725 326 OFFCURVE",
"708 343 OFFCURVE",
"685 343 CURVE SMOOTH",
"506 343 LINE",
"506 523 LINE SMOOTH",
"506 546 OFFCURVE",
"489 563 OFFCURVE",
"466 563 CURVE SMOOTH",
"406 563 LINE SMOOTH",
"383 563 OFFCURVE",
"366 546 OFFCURVE",
"366 523 CURVE SMOOTH",
"366 343 LINE",
"185 343 LINE SMOOTH",
"162 343 OFFCURVE",
"145 326 OFFCURVE",
"145 303 CURVE SMOOTH",
"145 243 LINE SMOOTH",
"145 220 OFFCURVE",
"162 203 OFFCURVE",
"185 203 CURVE SMOOTH",
"366 203 LINE",
"366 23 LINE SMOOTH",
"366 0 OFFCURVE",
"383 -17 OFFCURVE",
"406 -17 CURVE SMOOTH",
"466 -17 LINE SMOOTH",
"489 -17 OFFCURVE",
"506 0 OFFCURVE",
"506 23 CURVE SMOOTH",
"506 203 LINE",
"685 203 LINE SMOOTH",
"708 203 OFFCURVE",
"725 220 OFFCURVE",
"725 243 CURVE SMOOTH"
);
}
);
width = 870;
}
);
unicode = E02D;
},
{
glyphname = circ.x;
lastChange = "2014-06-16 14:00:45 +0000";
layers = (
{
layerId = "D0C94BA9-7956-4545-877F-F891ABB04BC1";
name = Regular;
paths = (
{
closed = 1;
nodes = (
"554 703 OFFCURVE",
"661 655 OFFCURVE",
"739 577 CURVE SMOOTH",
"817 499 OFFCURVE",
"865 392 OFFCURVE",
"865 273 CURVE SMOOTH",
"865 154 OFFCURVE",
"817 48 OFFCURVE",
"739 -30 CURVE SMOOTH",
"661 -108 OFFCURVE",
"554 -157 OFFCURVE",
"435 -157 CURVE SMOOTH",
"316 -157 OFFCURVE",
"210 -108 OFFCURVE",
"132 -30 CURVE SMOOTH",
"54 48 OFFCURVE",
"5 154 OFFCURVE",
"5 273 CURVE SMOOTH",
"5 392 OFFCURVE",
"54 499 OFFCURVE",
"132 577 CURVE SMOOTH",
"210 655 OFFCURVE",
"316 703 OFFCURVE",
"435 703 CURVE SMOOTH"
);
},
{
closed = 1;
nodes = (
"534 269 LINE",
"662 396 LINE",
"670 403 OFFCURVE",
"674 413 OFFCURVE",
"674 424 CURVE SMOOTH",
"674 435 OFFCURVE",
"670 445 OFFCURVE",
"662 453 CURVE SMOOTH",
"619 495 LINE SMOOTH",
"611 503 OFFCURVE",
"601 507 OFFCURVE",
"590 507 CURVE SMOOTH",
"579 507 OFFCURVE",
"570 503 OFFCURVE",
"563 495 CURVE",
"435 368 LINE",
"307 496 LINE SMOOTH",
"299 504 OFFCURVE",
"290 508 OFFCURVE",
"279 508 CURVE SMOOTH",
"268 508 OFFCURVE",
"258 504 OFFCURVE",
"251 496 CURVE",
"208 454 LINE",
"200 447 OFFCURVE",
"196 437 OFFCURVE",
"196 426 CURVE SMOOTH",
"196 415 OFFCURVE",
"200 405 OFFCURVE",
"208 397 CURVE SMOOTH",
"336 269 LINE",
"209 142 LINE SMOOTH",
"201 134 OFFCURVE",
"197 124 OFFCURVE",
"197 113 CURVE SMOOTH",
"197 102 OFFCURVE",
"201 93 OFFCURVE",
"209 85 CURVE SMOOTH",
"252 43 LINE SMOOTH",
"260 35 OFFCURVE",
"269 31 OFFCURVE",
"280 31 CURVE SMOOTH",
"291 31 OFFCURVE",
"300 35 OFFCURVE",
"308 43 CURVE SMOOTH",
"435 170 LINE",
"562 44 LINE SMOOTH",
"570 36 OFFCURVE",
"579 32 OFFCURVE",
"590 32 CURVE SMOOTH",
"601 32 OFFCURVE",
"610 36 OFFCURVE",
"618 44 CURVE SMOOTH",
"661 86 LINE SMOOTH",
"669 94 OFFCURVE",
"673 103 OFFCURVE",
"673 114 CURVE SMOOTH",
"673 125 OFFCURVE",
"669 135 OFFCURVE",
"661 143 CURVE SMOOTH"
);
}
);
width = 870;
}
);
unicode = E02F;
},
{
glyphname = circle.chevron.left.o;
lastChange = "2014-06-16 13:55:37 +0000";
layers = (
{
hints = (
{
horizontal = 1;
origin = "{0, 11}";
target = "{1, 23}";
},
{
horizontal = 1;
origin = "{1, 11}";
target = "{0, 23}";
},
{
origin = "{0, 17}";
target = "{1, 17}";
},
{
origin = "{1, 5}";
target = "{0, 5}";
},
{
origin = "{0, 17}";
target = "{0, 5}";
}
);
layerId = "D0C94BA9-7956-4545-877F-F891ABB04BC1";
name = Regular;
paths = (
{
closed = 1;
nodes = (
"576 721 OFFCURVE",
"686 671 OFFCURVE",
"767 590 CURVE SMOOTH",
"848 509 OFFCURVE",
"898 398 OFFCURVE",
"898 274 CURVE SMOOTH",
"898 150 OFFCURVE",
"848 39 OFFCURVE",
"767 -41 CURVE SMOOTH",
"686 -122 OFFCURVE",
"575 -172 OFFCURVE",
"451 -172 CURVE SMOOTH",
"328 -172 OFFCURVE",
"216 -122 OFFCURVE",
"136 -41 CURVE SMOOTH",
"55 39 OFFCURVE",
"5 150 OFFCURVE",
"5 274 CURVE SMOOTH",
"5 398 OFFCURVE",
"55 509 OFFCURVE",
"136 590 CURVE SMOOTH",
"216 671 OFFCURVE",
"329 721 OFFCURVE",
"452 721 CURVE SMOOTH"
);
},
{
closed = 1;
nodes = (
"547 -72 OFFCURVE",
"633 -34 OFFCURVE",
"697 29 CURVE SMOOTH",
"760 92 OFFCURVE",
"798 178 OFFCURVE",
"798 274 CURVE SMOOTH",
"798 370 OFFCURVE",
"760 456 OFFCURVE",
"697 519 CURVE SMOOTH",
"633 582 OFFCURVE",
"548 621 OFFCURVE",
"452 621 CURVE SMOOTH",
"356 621 OFFCURVE",
"269 582 OFFCURVE",
"206 519 CURVE SMOOTH",
"143 456 OFFCURVE",
"105 370 OFFCURVE",
"105 274 CURVE SMOOTH",
"105 178 OFFCURVE",
"143 92 OFFCURVE",
"206 29 CURVE SMOOTH",
"269 -34 OFFCURVE",
"355 -72 OFFCURVE",
"451 -72 CURVE SMOOTH"
);
},
{
closed = 1;
nodes = (
"489 480 LINE",
"494 486 OFFCURVE",
"500 489 OFFCURVE",
"509 489 CURVE SMOOTH",
"513 489 OFFCURVE",
"516 488 OFFCURVE",
"520 487 CURVE",
"532 482 OFFCURVE",
"538 473 OFFCURVE",
"538 460 CURVE SMOOTH",
"538 361 LINE SMOOTH",
"538 352 OFFCURVE",
"535 346 OFFCURVE",
"529 341 CURVE",
"482 294 LINE SMOOTH",
"477 289 OFFCURVE",
"474 282 OFFCURVE",
"474 274 CURVE SMOOTH",
"474 266 OFFCURVE",
"477 259 OFFCURVE",
"482 254 CURVE SMOOTH",
"529 207 LINE",
"535 202 OFFCURVE",
"538 195 OFFCURVE",
"538 187 CURVE SMOOTH",
"538 88 LINE SMOOTH",
"538 75 OFFCURVE",
"532 66 OFFCURVE",
"520 61 CURVE",
"516 60 OFFCURVE",
"513 59 OFFCURVE",
"509 59 CURVE SMOOTH",
"500 59 OFFCURVE",
"494 62 OFFCURVE",
"489 68 CURVE",
"302 254 LINE SMOOTH",
"297 259 OFFCURVE",
"294 266 OFFCURVE",
"294 274 CURVE SMOOTH",
"294 282 OFFCURVE",
"297 289 OFFCURVE",
"302 294 CURVE SMOOTH"
);
}
);
width = 903;
}
);
unicode = E013;
},
{
glyphname = circle.chevron.up.o;
lastChange = "2014-06-16 13:55:49 +0000";
layers = (
{
hints = (
{
origin = "{1, 17}";
target = "{2, 17}";
},
{
origin = "{2, 5}";
target = "{1, 5}";
},
{
horizontal = 1;
origin = "{1, 11}";
target = "{2, 23}";
},
{
horizontal = 1;
origin = "{2, 11}";
target = "{1, 23}";
},
{
horizontal = 1;
origin = "{1, 23}";
target = down;
type = TopGhost;
},
{
horizontal = 1;
origin = "{1, 11}";
target = up;
type = BottomGhost;
},
{
origin = "{1, 17}";
target = "{1, 5}";
}
);
layerId = "D0C94BA9-7956-4545-877F-F891ABB04BC1";
name = Regular;
paths = (
{
closed = 1;
nodes = (
"657 236 LINE",
"663 231 OFFCURVE",
"666 224 OFFCURVE",
"666 216 CURVE SMOOTH",
"666 212 OFFCURVE",
"665 209 OFFCURVE",
"664 205 CURVE",
"659 193 OFFCURVE",
"650 187 OFFCURVE",
"637 187 CURVE SMOOTH",
"538 187 LINE SMOOTH",
"529 187 OFFCURVE",
"523 190 OFFCURVE",
"518 196 CURVE",
"471 243 LINE SMOOTH",
"466 248 OFFCURVE",
"459 251 OFFCURVE",
"451 251 CURVE SMOOTH",
"443 251 OFFCURVE",
"436 248 OFFCURVE",
"431 243 CURVE SMOOTH",
"384 196 LINE",
"379 190 OFFCURVE",
"372 187 OFFCURVE",
"364 187 CURVE SMOOTH",
"265 187 LINE SMOOTH",
"252 187 OFFCURVE",
"243 193 OFFCURVE",
"238 205 CURVE",
"237 209 OFFCURVE",
"236 212 OFFCURVE",
"236 216 CURVE SMOOTH",
"236 224 OFFCURVE",
"239 231 OFFCURVE",
"245 236 CURVE",
"431 423 LINE SMOOTH",
"436 428 OFFCURVE",
"442 431 OFFCURVE",
"451 431 CURVE SMOOTH",
"460 431 OFFCURVE",
"466 428 OFFCURVE",
"471 423 CURVE SMOOTH"
);
},
{
closed = 1;
nodes = (
"575 720 OFFCURVE",
"686 670 OFFCURVE",
"767 590 CURVE SMOOTH",
"848 509 OFFCURVE",
"898 397 OFFCURVE",
"898 274 CURVE SMOOTH",
"898 150 OFFCURVE",
"848 39 OFFCURVE",
"767 -42 CURVE SMOOTH",
"686 -123 OFFCURVE",
"575 -173 OFFCURVE",
"451 -173 CURVE SMOOTH",
"327 -173 OFFCURVE",
"216 -123 OFFCURVE",
"136 -42 CURVE SMOOTH",
"55 39 OFFCURVE",
"5 150 OFFCURVE",
"5 274 CURVE SMOOTH",
"5 397 OFFCURVE",
"55 509 OFFCURVE",
"136 590 CURVE SMOOTH",
"216 670 OFFCURVE",
"327 720 OFFCURVE",
"451 720 CURVE SMOOTH"
);
},
{
closed = 1;
nodes = (
"547 -73 OFFCURVE",
"633 -34 OFFCURVE",
"696 29 CURVE SMOOTH",
"759 92 OFFCURVE",
"798 178 OFFCURVE",
"798 274 CURVE SMOOTH",
"798 370 OFFCURVE",
"759 456 OFFCURVE",
"696 519 CURVE SMOOTH",
"633 582 OFFCURVE",
"547 620 OFFCURVE",
"451 620 CURVE SMOOTH",
"355 620 OFFCURVE",
"269 582 OFFCURVE",
"206 519 CURVE SMOOTH",
"143 456 OFFCURVE",
"105 370 OFFCURVE",
"105 274 CURVE SMOOTH",
"105 178 OFFCURVE",
"143 92 OFFCURVE",
"206 29 CURVE SMOOTH",
"269 -34 OFFCURVE",
"355 -73 OFFCURVE",
"451 -73 CURVE SMOOTH"
);
}
);
width = 903;
}
);
unicode = E010;
},
{
glyphname = circle.empty.o;
lastChange = "2014-06-17 10:25:32 +0000";
layers = (
{
layerId = "D0C94BA9-7956-4545-877F-F891ABB04BC1";
name = Regular;
paths = (
{
closed = 1;
nodes = (
"854 388 OFFCURVE",
"865 332 OFFCURVE",
"865 273 CURVE SMOOTH",
"865 156 OFFCURVE",
"819 48 OFFCURVE",
"739 -32 CURVE SMOOTH",
"660 -111 OFFCURVE",
"551 -157 OFFCURVE",
"435 -157 CURVE SMOOTH",
"318 -157 OFFCURVE",
"210 -111 OFFCURVE",
"130 -31 CURVE SMOOTH",
"51 48 OFFCURVE",
"5 156 OFFCURVE",
"5 273 CURVE SMOOTH",
"5 389 OFFCURVE",
"51 498 OFFCURVE",
"131 578 CURVE SMOOTH",
"210 657 OFFCURVE",
"318 703 OFFCURVE",
"435 703 CURVE SMOOTH",
"551 703 OFFCURVE",
"660 657 OFFCURVE",
"740 577 CURVE SMOOTH",
"780 537 OFFCURVE",
"810 491 OFFCURVE",
"831 440 CURVE SMOOTH"
);
},
{
closed = 1;
nodes = (
"756 186 OFFCURVE",
"765 228 OFFCURVE",
"765 273 CURVE SMOOTH",
"765 362 OFFCURVE",
"728 447 OFFCURVE",
"668 507 CURVE SMOOTH",
"609 566 OFFCURVE",
"524 603 OFFCURVE",
"435 603 CURVE SMOOTH",
"346 603 OFFCURVE",
"261 566 OFFCURVE",
"201 506 CURVE SMOOTH",
"142 447 OFFCURVE",
"105 362 OFFCURVE",
"105 273 CURVE SMOOTH",
"105 184 OFFCURVE",
"142 99 OFFCURVE",
"202 39 CURVE SMOOTH",
"261 -20 OFFCURVE",
"346 -57 OFFCURVE",
"435 -57 CURVE SMOOTH",
"524 -57 OFFCURVE",
"609 -20 OFFCURVE",
"669 40 CURVE SMOOTH",
"698 69 OFFCURVE",
"722 104 OFFCURVE",
"739 145 CURVE SMOOTH"
);
}
);
width = 870;
}
);
unicode = E030;
},
{
glyphname = circle.triangle.down.o;
lastChange = "2014-06-16 13:55:22 +0000";
layers = (
{
hints = (
{
horizontal = 1;
origin = "{2, 5}";
target = "{0, 16}";
},
{
horizontal = 1;
origin = "{0, 26}";
target = "{2, 17}";
},
{
origin = "{2, 23}";
target = "{0, 20}";
},
{
origin = "{0, 6}";
target = "{2, 11}";
}
);
layerId = "D0C94BA9-7956-4545-877F-F891ABB04BC1";
name = Regular;
paths = (
{
closed = 1;
nodes = (
"630 351 LINE SMOOTH",
"639 351 OFFCURVE",
"645 347 OFFCURVE",
"648 339 CURVE",
"649 336 OFFCURVE",
"650 334 OFFCURVE",
"650 331 CURVE SMOOTH",
"650 325 OFFCURVE",
"648 321 OFFCURVE",
"644 318 CURVE",
"449 122 LINE",
"444 118 OFFCURVE",
"439 116 OFFCURVE",
"435 116 CURVE SMOOTH",
"430 116 OFFCURVE",
"425 118 OFFCURVE",
"421 122 CURVE SMOOTH",
"226 317 LINE SMOOTH",
"222 321 OFFCURVE",
"220 326 OFFCURVE",
"220 331 CURVE SMOOTH",
"220 334 OFFCURVE",
"221 336 OFFCURVE",
"222 339 CURVE",
"225 347 OFFCURVE",
"231 351 OFFCURVE",
"240 351 CURVE SMOOTH"
);
},
{
closed = 1;
nodes = (
"316 -157 OFFCURVE",
"210 -109 OFFCURVE",
"132 -31 CURVE SMOOTH",
"54 47 OFFCURVE",
"5 154 OFFCURVE",
"5 273 CURVE SMOOTH",
"5 392 OFFCURVE",
"54 499 OFFCURVE",
"132 577 CURVE SMOOTH",
"210 655 OFFCURVE",
"316 703 OFFCURVE",
"435 703 CURVE SMOOTH",
"554 703 OFFCURVE",
"661 655 OFFCURVE",
"739 577 CURVE SMOOTH",
"817 499 OFFCURVE",
"865 392 OFFCURVE",
"865 273 CURVE SMOOTH",
"865 154 OFFCURVE",
"817 47 OFFCURVE",
"739 -31 CURVE SMOOTH",
"661 -109 OFFCURVE",
"554 -157 OFFCURVE",
"435 -157 CURVE SMOOTH"
);
},
{
closed = 1;
nodes = (
"105 182 OFFCURVE",
"142 100 OFFCURVE",
"202 40 CURVE SMOOTH",
"262 -20 OFFCURVE",
"344 -57 OFFCURVE",
"435 -57 CURVE SMOOTH",
"526 -57 OFFCURVE",
"608 -20 OFFCURVE",
"668 40 CURVE SMOOTH",
"728 100 OFFCURVE",
"765 182 OFFCURVE",
"765 273 CURVE SMOOTH",
"765 364 OFFCURVE",
"728 446 OFFCURVE",
"668 506 CURVE SMOOTH",
"608 566 OFFCURVE",
"526 603 OFFCURVE",
"435 603 CURVE SMOOTH",
"344 603 OFFCURVE",
"262 566 OFFCURVE",
"202 506 CURVE SMOOTH",
"142 446 OFFCURVE",
"105 364 OFFCURVE",
"105 273 CURVE SMOOTH"
);
}
);
width = 870;
}
);
unicode = E005;
},
{
glyphname = clock.o;
lastChange = "2014-06-16 14:00:49 +0000";
layers = (
{
hints = (
{
origin = "{0, 14}";
target = "{1, 14}";
},
{
origin = "{1, 2}";
target = "{0, 2}";
},
{
horizontal = 1;
origin = "{0, 8}";
target = "{1, 20}";
},
{
horizontal = 1;
origin = "{1, 8}";
target = "{0, 20}";
},
{
horizontal = 1;
origin = "{0, 20}";
target = down;
type = TopGhost;
},
{
horizontal = 1;
origin = "{0, 8}";
target = up;
type = BottomGhost;
}
);
layerId = "D0C94BA9-7956-4545-877F-F891ABB04BC1";
name = Regular;
paths = (
{
closed = 1;
nodes = (
"854 388 OFFCURVE",
"865 332 OFFCURVE",
"865 273 CURVE SMOOTH",
"865 156 OFFCURVE",
"819 48 OFFCURVE",
"740 -31 CURVE SMOOTH",
"660 -111 OFFCURVE",
"551 -157 OFFCURVE",
"435 -157 CURVE SMOOTH",
"318 -157 OFFCURVE",
"210 -111 OFFCURVE",
"131 -32 CURVE SMOOTH",
"51 48 OFFCURVE",
"5 156 OFFCURVE",
"5 273 CURVE SMOOTH",
"5 389 OFFCURVE",
"51 498 OFFCURVE",
"130 577 CURVE SMOOTH",
"210 657 OFFCURVE",
"318 703 OFFCURVE",
"435 703 CURVE SMOOTH",
"551 703 OFFCURVE",
"660 657 OFFCURVE",
"739 578 CURVE SMOOTH",
"780 537 OFFCURVE",
"810 491 OFFCURVE",
"831 440 CURVE SMOOTH"
);
},
{
closed = 1;
nodes = (
"756 186 OFFCURVE",
"765 228 OFFCURVE",
"765 273 CURVE SMOOTH",
"765 362 OFFCURVE",
"728 447 OFFCURVE",
"669 506 CURVE SMOOTH",
"609 566 OFFCURVE",
"524 603 OFFCURVE",
"435 603 CURVE SMOOTH",
"346 603 OFFCURVE",
"261 566 OFFCURVE",
"202 507 CURVE SMOOTH",
"142 447 OFFCURVE",
"105 362 OFFCURVE",
"105 273 CURVE SMOOTH",
"105 184 OFFCURVE",
"142 99 OFFCURVE",
"201 40 CURVE SMOOTH",
"261 -20 OFFCURVE",
"346 -57 OFFCURVE",
"435 -57 CURVE SMOOTH",
"524 -57 OFFCURVE",
"609 -20 OFFCURVE",
"668 39 CURVE SMOOTH",
"698 69 OFFCURVE",
"722 104 OFFCURVE",
"739 145 CURVE SMOOTH"
);
},
{
closed = 1;
nodes = (
"610 80 OFFCURVE",
"598 75 OFFCURVE",
"583 75 CURVE SMOOTH",
"569 75 OFFCURVE",
"557 80 OFFCURVE",
"548 89 CURVE SMOOTH",
"403 234 LINE",
"391 245 OFFCURVE",
"385 258 OFFCURVE",
"385 273 CURVE SMOOTH",
"385 483 LINE SMOOTH",
"385 511 OFFCURVE",
"407 533 OFFCURVE",
"435 533 CURVE SMOOTH",
"463 533 OFFCURVE",
"485 511 OFFCURVE",
"485 483 CURVE SMOOTH",
"485 294 LINE",
"619 160 LINE",
"628 149 OFFCURVE",
"633 137 OFFCURVE",
"633 124 CURVE SMOOTH",
"633 111 OFFCURVE",
"628 100 OFFCURVE",
"619 89 CURVE"
);
}
);
width = 870;
}
);
unicode = E039;
},
{
glyphname = comment.o;
lastChange = "2014-06-16 14:02:52 +0000";
layers = (
{
layerId = "D0C94BA9-7956-4545-877F-F891ABB04BC1";
name = Regular;
paths = (
{
closed = 1;
nodes = (
"194 -131 OFFCURVE",
"188 -129 OFFCURVE",
"181 -126 CURVE",
"171 -118 OFFCURVE",
"166 -109 OFFCURVE",
"166 -99 CURVE SMOOTH",
"166 -96 OFFCURVE",
"166 -93 OFFCURVE",
"167 -92 CURVE",
"201 0 LINE",
"172 0 LINE SMOOTH",
"128 0 OFFCURVE",
"86 17 OFFCURVE",
"54 49 CURVE SMOOTH",
"23 80 OFFCURVE",
"5 122 OFFCURVE",
"5 166 CURVE SMOOTH",
"5 465 LINE SMOOTH",
"5 510 OFFCURVE",
"24 552 OFFCURVE",
"54 581 CURVE SMOOTH",
"84 610 OFFCURVE",
"126 629 OFFCURVE",
"171 629 CURVE SMOOTH",
"699 629 LINE SMOOTH",
"743 629 OFFCURVE",
"785 612 OFFCURVE",
"816 581 CURVE SMOOTH",
"847 550 OFFCURVE",
"865 509 OFFCURVE",
"865 465 CURVE SMOOTH",
"865 165 LINE SMOOTH",
"865 120 OFFCURVE",
"847 79 OFFCURVE",
"817 49 CURVE SMOOTH",
"787 19 OFFCURVE",
"745 0 OFFCURVE",
"700 0 CURVE SMOOTH",
"366 0 LINE",
"218 -125 LINE SMOOTH",
"213 -129 OFFCURVE",
"207 -131 OFFCURVE",
"200 -131 CURVE SMOOTH"
);
},
{
closed = 1;
nodes = (
"700 80 LINE SMOOTH",
"747 80 OFFCURVE",
"785 118 OFFCURVE",
"785 165 CURVE SMOOTH",
"785 465 LINE SMOOTH",
"785 486 OFFCURVE",
"776 508 OFFCURVE",
"759 524 CURVE SMOOTH",
"742 541 OFFCURVE",
"722 549 OFFCURVE",
"699 549 CURVE SMOOTH",
"171 549 LINE SMOOTH",
"147 549 OFFCURVE",
"126 540 OFFCURVE",
"111 525 CURVE SMOOTH",
"95 509 OFFCURVE",
"85 488 OFFCURVE",
"85 465 CURVE SMOOTH",
"85 166 LINE SMOOTH",
"85 118 OFFCURVE",
"125 80 OFFCURVE",
"172 80 CURVE SMOOTH"
);
}
);
width = 870;
}
);
unicode = E035;
},
{
glyphname = issue.outline;
lastChange = "2014-06-16 14:01:28 +0000";
layers = (
{
layerId = "D0C94BA9-7956-4545-877F-F891ABB04BC1";
name = Regular;
paths = (
{
closed = 1;
nodes = (
"909 415 OFFCURVE",
"909 397 OFFCURVE",
"898 385 CURVE SMOOTH",
"367 -146 LINE SMOOTH",
"356 -157 OFFCURVE",
"337 -157 OFFCURVE",
"326 -146 CURVE SMOOTH",
"216 -35 LINE",
"241 -10 OFFCURVE",
"241 31 OFFCURVE",
"216 56 CURVE SMOOTH",
"190 82 OFFCURVE",
"149 82 OFFCURVE",
"124 56 CURVE",
"14 167 LINE SMOOTH",
"2 178 OFFCURVE",
"2 197 OFFCURVE",
"14 208 CURVE SMOOTH",
"544 739 LINE SMOOTH",
"556 750 OFFCURVE",
"574 750 OFFCURVE",
"586 739 CURVE SMOOTH",
"696 629 LINE",
"670 603 OFFCURVE",
"670 562 OFFCURVE",
"696 537 CURVE SMOOTH",
"721 511 OFFCURVE",
"762 511 OFFCURVE",
"788 537 CURVE",
"898 426 LINE SMOOTH"
);
},
{
closed = 1;
nodes = (
"819 406 LINE",
"774 451 LINE",
"730 441 OFFCURVE",
"681 453 OFFCURVE",
"646 487 CURVE SMOOTH",
"612 522 OFFCURVE",
"600 570 OFFCURVE",
"611 615 CURVE",
"565 660 LINE",
"92 187 LINE",
"138 142 LINE",
"182 152 OFFCURVE",
"231 141 OFFCURVE",
"265 106 CURVE SMOOTH",
"300 71 OFFCURVE",
"312 23 OFFCURVE",
"301 -22 CURVE",
"346 -67 LINE"
);
}
);
width = 911;
}
);
unicode = E10D;
},
{
glyphname = location.arrow;
lastChange = "2014-06-16 14:01:07 +0000";
layers = (
{
layerId = "D0C94BA9-7956-4545-877F-F891ABB04BC1";
name = Regular;
paths = (
{
closed = 1;
nodes = (
"867 681 OFFCURVE",
"865 691 OFFCURVE",
"858 698 CURVE SMOOTH",
"852 705 OFFCURVE",
"841 707 OFFCURVE",
"833 702 CURVE SMOOTH",
"17 296 LINE SMOOTH",
"8 291 OFFCURVE",
"3 281 OFFCURVE",
"5 271 CURVE SMOOTH",
"8 261 OFFCURVE",
"17 254 OFFCURVE",
"27 254 CURVE SMOOTH",
"392 254 LINE SMOOTH",
"404 254 OFFCURVE",
"414 244 OFFCURVE",
"414 232 CURVE SMOOTH",
"414 -133 LINE SMOOTH",
"414 -143 OFFCURVE",
"421 -152 OFFCURVE",
"431 -155 CURVE SMOOTH",
"441 -157 OFFCURVE",
"451 -152 OFFCURVE",
"456 -143 CURVE SMOOTH",
"862 673 LINE SMOOTH"
);
}
);
width = 870;
}
);
unicode = E105;
},
{
glyphname = location.arrow.o;
lastChange = "2014-06-16 14:01:03 +0000";
layers = (
{
layerId = "D0C94BA9-7956-4545-877F-F891ABB04BC1";
name = Regular;
paths = (
{
closed = 1;
nodes = (
"867 681 OFFCURVE",
"865 691 OFFCURVE",
"858 698 CURVE SMOOTH",
"852 705 OFFCURVE",
"841 707 OFFCURVE",
"833 702 CURVE SMOOTH",
"17 296 LINE SMOOTH",
"8 291 OFFCURVE",
"3 281 OFFCURVE",
"5 271 CURVE SMOOTH",
"8 261 OFFCURVE",
"17 254 OFFCURVE",
"27 254 CURVE SMOOTH",
"392 254 LINE SMOOTH",
"404 254 OFFCURVE",
"414 244 OFFCURVE",
"414 232 CURVE SMOOTH",
"414 -133 LINE SMOOTH",
"414 -143 OFFCURVE",
"421 -152 OFFCURVE",
"431 -155 CURVE SMOOTH",
"441 -157 OFFCURVE",
"451 -152 OFFCURVE",
"456 -143 CURVE SMOOTH",
"862 673 LINE SMOOTH"
);
},
{
closed = 1;
nodes = (
"719 559 LINE",
"492 103 LINE",
"492 309 LINE SMOOTH",
"492 322 OFFCURVE",
"482 332 OFFCURVE",
"469 332 CURVE SMOOTH",
"263 332 LINE"
);
}
);
width = 870;
}
);
unicode = E104;
},
{
glyphname = location.marker;
lastChange = "2014-06-16 14:00:55 +0000";
layers = (
{
layerId = "D0C94BA9-7956-4545-877F-F891ABB04BC1";
name = Regular;
paths = (
{
closed = 1;
nodes = (
"495 594 OFFCURVE",
"385 703 OFFCURVE",
"250 703 CURVE SMOOTH",
"115 703 OFFCURVE",
"5 594 OFFCURVE",
"5 458 CURVE SMOOTH",
"5 441 OFFCURVE",
"7 424 OFFCURVE",
"10 407 CURVE",
"24 365 LINE",
"25 362 OFFCURVE",
"26 359 OFFCURVE",
"27 356 CURVE",
"231 -145 LINE SMOOTH",
"235 -152 OFFCURVE",
"242 -157 OFFCURVE",
"250 -157 CURVE SMOOTH",
"258 -157 OFFCURVE",
"265 -152 OFFCURVE",
"269 -145 CURVE SMOOTH",
"473 356 LINE",
"474 359 OFFCURVE",
"475 362 OFFCURVE",
"476 365 CURVE",
"490 407 LINE",
"493 424 OFFCURVE",
"495 441 OFFCURVE",
"495 458 CURVE SMOOTH"
);
},
{
closed = 1;
nodes = (
"170 313 OFFCURVE",
"105 378 OFFCURVE",
"105 458 CURVE SMOOTH",
"105 538 OFFCURVE",
"170 603 OFFCURVE",
"250 603 CURVE SMOOTH",
"330 603 OFFCURVE",
"395 538 OFFCURVE",
"395 458 CURVE SMOOTH",
"395 378 OFFCURVE",
"330 313 OFFCURVE",
"250 313 CURVE SMOOTH"
);
}
);
width = 500;
}
);
unicode = E103;
},
{
glyphname = location.marker.o;
lastChange = "2014-06-16 14:02:59 +0000";
layers = (
{
layerId = "D0C94BA9-7956-4545-877F-F891ABB04BC1";
name = Regular;
paths = (
{
closed = 1;
nodes = (
"266 -152 OFFCURVE",
"258 -157 OFFCURVE",
"250 -157 CURVE SMOOTH",
"242 -157 OFFCURVE",
"235 -152 OFFCURVE",
"232 -145 CURVE SMOOTH",
"27 356 LINE",
"26 359 OFFCURVE",
"25 362 OFFCURVE",
"24 364 CURVE SMOOTH",
"23 366 LINE",
"11 405 LINE",
"10 407 LINE SMOOTH",
"7 424 OFFCURVE",
"5 441 OFFCURVE",
"5 458 CURVE SMOOTH",
"5 523 OFFCURVE",
"31 585 OFFCURVE",
"77 631 CURVE SMOOTH",
"123 678 OFFCURVE",
"185 703 OFFCURVE",
"250 703 CURVE SMOOTH",
"316 703 OFFCURVE",
"377 678 OFFCURVE",
"424 631 CURVE SMOOTH",
"470 585 OFFCURVE",
"495 523 OFFCURVE",
"495 458 CURVE SMOOTH",
"495 441 OFFCURVE",
"494 424 OFFCURVE",
"490 407 CURVE SMOOTH",
"490 405 LINE",
"478 366 LINE",
"477 364 LINE SMOOTH",
"476 361 OFFCURVE",
"475 359 OFFCURVE",
"473 356 CURVE",
"269 -145 LINE SMOOTH"
);
},
{
closed = 1;
nodes = (
"102 393 OFFCURVE",
"102 392 OFFCURVE",
"103 391 CURVE SMOOTH",
"103 390 LINE",
"250 19 LINE",
"398 390 LINE",
"398 391 LINE SMOOTH",
"398 392 OFFCURVE",
"399 393 OFFCURVE",
"399 394 CURVE",
"409 426 LINE",
"411 436 OFFCURVE",
"412 447 OFFCURVE",
"412 458 CURVE SMOOTH",
"412 547 OFFCURVE",
"340 620 OFFCURVE",
"250 620 CURVE SMOOTH",
"161 620 OFFCURVE",
"88 547 OFFCURVE",
"88 458 CURVE SMOOTH",
"88 447 OFFCURVE",
"89 436 OFFCURVE",
"91 426 CURVE",
"101 394 LINE"
);
},
{
closed = 1;
nodes = (
"335 412 OFFCURVE",
"297 374 OFFCURVE",
"250 374 CURVE SMOOTH",
"203 374 OFFCURVE",
"165 412 OFFCURVE",
"165 459 CURVE SMOOTH",
"165 506 OFFCURVE",
"203 544 OFFCURVE",
"250 544 CURVE SMOOTH",
"297 544 OFFCURVE",
"335 506 OFFCURVE",
"335 459 CURVE SMOOTH"
);
}
);
width = 500;
}
);
unicode = E102;
},
{
glyphname = location.o;
lastChange = "2014-06-17 10:30:54 +0000";
layers = (
{
layerId = "D0C94BA9-7956-4545-877F-F891ABB04BC1";
name = Regular;
paths = (
{
closed = 1;
nodes = (
"810 492 OFFCURVE",
"779 538 OFFCURVE",
"739 577 CURVE SMOOTH",
"700 617 OFFCURVE",
"654 648 OFFCURVE",
"602 669 CURVE SMOOTH",
"549 692 OFFCURVE",
"493 703 OFFCURVE",
"435 703 CURVE SMOOTH",
"377 703 OFFCURVE",
"321 692 OFFCURVE",
"268 669 CURVE SMOOTH",
"216 648 OFFCURVE",
"170 617 OFFCURVE",
"131 577 CURVE SMOOTH",
"91 538 OFFCURVE",
"60 492 OFFCURVE",
"39 440 CURVE SMOOTH",
"16 387 OFFCURVE",
"5 331 OFFCURVE",
"5 273 CURVE SMOOTH",
"5 215 OFFCURVE",
"16 159 OFFCURVE",
"39 106 CURVE SMOOTH",
"60 54 OFFCURVE",
"91 8 OFFCURVE",
"131 -31 CURVE SMOOTH",
"170 -71 OFFCURVE",
"216 -102 OFFCURVE",
"268 -123 CURVE SMOOTH",
"321 -146 OFFCURVE",
"377 -157 OFFCURVE",
"435 -157 CURVE SMOOTH",
"493 -157 OFFCURVE",
"549 -146 OFFCURVE",
"602 -123 CURVE SMOOTH",
"654 -102 OFFCURVE",
"700 -71 OFFCURVE",
"739 -31 CURVE SMOOTH",
"779 8 OFFCURVE",
"810 54 OFFCURVE",
"831 106 CURVE SMOOTH",
"854 159 OFFCURVE",
"865 215 OFFCURVE",
"865 273 CURVE SMOOTH",
"865 331 OFFCURVE",
"854 387 OFFCURVE",
"831 440 CURVE SMOOTH"
);
},
{
closed = 1;
nodes = (
"722 105 OFFCURVE",
"699 70 OFFCURVE",
"668 40 CURVE SMOOTH",
"638 9 OFFCURVE",
"603 -14 OFFCURVE",
"563 -31 CURVE SMOOTH",
"523 -48 OFFCURVE",
"480 -57 OFFCURVE",
"435 -57 CURVE SMOOTH",
"390 -57 OFFCURVE",
"347 -48 OFFCURVE",
"307 -31 CURVE SMOOTH",
"267 -14 OFFCURVE",
"232 9 OFFCURVE",
"202 40 CURVE SMOOTH",
"171 70 OFFCURVE",
"148 105 OFFCURVE",
"131 145 CURVE SMOOTH",
"114 185 OFFCURVE",
"105 228 OFFCURVE",
"105 273 CURVE SMOOTH",
"105 318 OFFCURVE",
"114 361 OFFCURVE",
"131 401 CURVE SMOOTH",
"148 441 OFFCURVE",
"171 476 OFFCURVE",
"202 506 CURVE SMOOTH",
"232 537 OFFCURVE",
"267 560 OFFCURVE",
"307 577 CURVE SMOOTH",
"347 594 OFFCURVE",
"390 603 OFFCURVE",
"435 603 CURVE SMOOTH",
"480 603 OFFCURVE",
"523 594 OFFCURVE",
"563 577 CURVE SMOOTH",
"603 560 OFFCURVE",
"638 537 OFFCURVE",
"668 506 CURVE SMOOTH",
"699 476 OFFCURVE",
"722 441 OFFCURVE",
"739 401 CURVE SMOOTH",
"756 361 OFFCURVE",
"765 318 OFFCURVE",
"765 273 CURVE SMOOTH",
"765 228 OFFCURVE",
"756 185 OFFCURVE",
"739 145 CURVE SMOOTH"
);
},
{
closed = 1;
nodes = (
"456 252 LINE",
"356 194 LINE",
"414 294 LINE",
"386 322 LINE",
"251 89 LINE",
"484 224 LINE"
);
},
{
closed = 1;
nodes = (
"619 457 LINE",
"386 322 LINE",
"484 224 LINE"
);
}
);
width = 870;
}
);
unicode = E100;
},
{
glyphname = reply.o;
lastChange = "2014-06-17 10:30:54 +0000";
layers = (
{
hints = (
{
origin = "{1, 50}";
target = "{1, 15}";
},
{
origin = "{1, 8}";
target = "{1, 63}";
},
{
horizontal = 1;
origin = "{1, 12}";
target = "{1, 56}";
},
{
horizontal = 1;
origin = "{1, 27}";
target = "{1, 20}";
}
);
layerId = "D0C94BA9-7956-4545-877F-F891ABB04BC1";
name = Regular;
paths = (
{
closed = 1;
nodes = (
"495 286 LINE SMOOTH",
"462 286 OFFCURVE",
"435 259 OFFCURVE",
"435 226 CURVE SMOOTH",
"435 45 LINE SMOOTH",
"435 12 OFFCURVE",
"462 -15 OFFCURVE",
"495 -15 CURVE SMOOTH",
"657 -15 LINE",
"760 -102 LINE",
"765 -105 OFFCURVE",
"771 -107 OFFCURVE",
"776 -107 CURVE SMOOTH",
"781 -107 OFFCURVE",
"786 -106 OFFCURVE",
"791 -103 CURVE",
"800 -96 OFFCURVE",
"804 -89 OFFCURVE",
"804 -80 CURVE SMOOTH",
"804 -77 OFFCURVE",
"804 -75 OFFCURVE",
"803 -74 CURVE",
"782 -15 LINE",
"805 -15 LINE SMOOTH",
"838 -15 OFFCURVE",
"865 12 OFFCURVE",
"865 45 CURVE SMOOTH",
"865 226 LINE SMOOTH",
"865 259 OFFCURVE",
"838 286 OFFCURVE",
"805 286 CURVE SMOOTH"
);
},
{
closed = 1;
nodes = (
"766 376 LINE SMOOTH",
"766 369 OFFCURVE",
"763 366 OFFCURVE",
"756 366 CURVE SMOOTH",
"696 366 LINE SMOOTH",
"689 366 OFFCURVE",
"686 369 OFFCURVE",
"686 376 CURVE SMOOTH",
"686 515 LINE SMOOTH",
"686 542 OFFCURVE",
"664 565 OFFCURVE",
"636 565 CURVE SMOOTH",
"135 565 LINE SMOOTH",
"107 565 OFFCURVE",
"85 542 OFFCURVE",
"85 515 CURVE SMOOTH",
"85 218 LINE SMOOTH",
"85 191 OFFCURVE",
"107 168 OFFCURVE",
"135 168 CURVE SMOOTH",
"345 168 LINE SMOOTH",
"352 168 OFFCURVE",
"355 165 OFFCURVE",
"355 158 CURVE SMOOTH",
"355 98 LINE SMOOTH",
"355 91 OFFCURVE",
"352 88 OFFCURVE",
"345 88 CURVE SMOOTH",
"310 88 LINE",
"188 -15 LINE",
"183 -18 OFFCURVE",
"177 -20 OFFCURVE",
"172 -20 CURVE SMOOTH",
"169 -20 OFFCURVE",
"164 -19 OFFCURVE",
"157 -16 CURVE",
"148 -9 OFFCURVE",
"144 -2 OFFCURVE",
"144 7 CURVE SMOOTH",
"144 10 OFFCURVE",
"144 12 OFFCURVE",
"145 13 CURVE",
"173 88 LINE",
"135 88 LINE SMOOTH",
"99 88 OFFCURVE",
"67 103 OFFCURVE",
"43 127 CURVE SMOOTH",
"19 150 OFFCURVE",
"5 182 OFFCURVE",
"5 218 CURVE SMOOTH",
"5 515 LINE SMOOTH",
"5 551 OFFCURVE",
"19 583 OFFCURVE",
"43 607 CURVE SMOOTH",
"67 631 OFFCURVE",
"99 645 OFFCURVE",
"135 645 CURVE SMOOTH",
"636 645 LINE SMOOTH",
"672 645 OFFCURVE",
"704 631 OFFCURVE",
"728 607 CURVE SMOOTH",
"752 583 OFFCURVE",
"766 551 OFFCURVE",
"766 515 CURVE SMOOTH"
);
}
);
width = 870;
}
);
unicode = E038;
},
{
glyphname = square.check.o;
lastChange = "2014-06-17 10:30:54 +0000";
layers = (
{
hints = (
{
horizontal = 1;
origin = "{1, 11}";
target = "{2, 6}";
},
{
horizontal = 1;
origin = "{2, 22}";
target = "{1, 4}";
},
{
origin = "{1, 8}";
target = "{2, 7}";
},
{
origin = "{2, 35}";
target = "{1, 15}";
}
);
layerId = "D0C94BA9-7956-4545-877F-F891ABB04BC1";
name = Regular;
paths = (
{
closed = 1;
nodes = (
"694 703 LINE SMOOTH",
"741 703 OFFCURVE",
"783 684 OFFCURVE",
"815 653 CURVE SMOOTH",
"846 621 OFFCURVE",
"865 579 OFFCURVE",
"865 532 CURVE SMOOTH",
"865 14 LINE SMOOTH",
"865 -33 OFFCURVE",
"846 -76 OFFCURVE",
"815 -107 CURVE SMOOTH",
"783 -138 OFFCURVE",
"741 -157 OFFCURVE",
"694 -157 CURVE SMOOTH",
"176 -157 LINE SMOOTH",
"129 -157 OFFCURVE",
"86 -138 OFFCURVE",
"55 -107 CURVE SMOOTH",
"24 -76 OFFCURVE",
"5 -33 OFFCURVE",
"5 14 CURVE SMOOTH",
"5 532 LINE SMOOTH",
"5 579 OFFCURVE",
"24 621 OFFCURVE",
"55 653 CURVE SMOOTH",
"86 684 OFFCURVE",
"129 703 OFFCURVE",
"176 703 CURVE SMOOTH"
);
},
{
closed = 1;
nodes = (
"765 532 LINE SMOOTH",
"765 571 OFFCURVE",
"733 603 OFFCURVE",
"694 603 CURVE SMOOTH",
"176 603 LINE SMOOTH",
"137 603 OFFCURVE",
"105 571 OFFCURVE",
"105 532 CURVE SMOOTH",
"105 14 LINE SMOOTH",
"105 -25 OFFCURVE",
"137 -57 OFFCURVE",
"176 -57 CURVE SMOOTH",
"694 -57 LINE SMOOTH",
"733 -57 OFFCURVE",
"765 -25 OFFCURVE",
"765 14 CURVE SMOOTH"
);
},
{
closed = 1;
nodes = (
"393 87 LINE",
"387 80 OFFCURVE",
"379 77 OFFCURVE",
"370 77 CURVE SMOOTH",
"361 77 OFFCURVE",
"353 80 OFFCURVE",
"346 87 CURVE SMOOTH",
"197 237 LINE SMOOTH",
"190 244 OFFCURVE",
"187 252 OFFCURVE",
"187 261 CURVE SMOOTH",
"187 270 OFFCURVE",
"190 278 OFFCURVE",
"197 284 CURVE",
"242 329 LINE SMOOTH",
"249 336 OFFCURVE",
"256 339 OFFCURVE",
"265 339 CURVE SMOOTH",
"273 339 OFFCURVE",
"281 336 OFFCURVE",
"289 329 CURVE",
"370 249 LINE",
"581 459 LINE",
"589 466 OFFCURVE",
"597 469 OFFCURVE",
"605 469 CURVE SMOOTH",
"612 469 OFFCURVE",
"620 466 OFFCURVE",
"628 459 CURVE",
"673 414 LINE SMOOTH",
"680 407 OFFCURVE",
"683 399 OFFCURVE",
"683 390 CURVE SMOOTH",
"683 381 OFFCURVE",
"680 373 OFFCURVE",
"673 367 CURVE"
);
}
);
width = 870;
}
);
unicode = E022;
},
{
glyphname = square.empty;
lastChange = "2014-06-17 10:30:54 +0000";
layers = (
{
hints = (
{
horizontal = 1;
origin = "{0, 14}";
target = "{0, 27}";
},
{
origin = "{0, 20}";
target = "{0, 7}";
}
);
layerId = "D0C94BA9-7956-4545-877F-F891ABB04BC1";
name = Regular;
paths = (
{
closed = 1;
nodes = (
"715 703 LINE SMOOTH",
"756 703 OFFCURVE",
"794 686 OFFCURVE",
"821 659 CURVE SMOOTH",
"848 632 OFFCURVE",
"865 594 OFFCURVE",
"865 553 CURVE SMOOTH",
"865 -7 LINE SMOOTH",
"865 -48 OFFCURVE",
"848 -86 OFFCURVE",
"821 -113 CURVE SMOOTH",
"794 -140 OFFCURVE",
"756 -157 OFFCURVE",
"715 -157 CURVE SMOOTH",
"155 -157 LINE SMOOTH",
"114 -157 OFFCURVE",
"76 -140 OFFCURVE",
"49 -113 CURVE SMOOTH",
"22 -86 OFFCURVE",
"5 -48 OFFCURVE",
"5 -7 CURVE SMOOTH",
"5 553 LINE SMOOTH",
"5 594 OFFCURVE",
"22 632 OFFCURVE",
"49 659 CURVE SMOOTH",
"76 686 OFFCURVE",
"114 703 OFFCURVE",
"155 703 CURVE SMOOTH"
);
}
);
width = 870;
}
);
unicode = E01C;
},
{
glyphname = square.minus.o;
lastChange = "2014-06-17 10:30:54 +0000";
layers = (
{
hints = (
{
horizontal = 1;
origin = "{1, 11}";
target = "{2, 4}";
},
{
horizontal = 1;
origin = "{2, 11}";
target = "{1, 4}";
},
{
origin = "{1, 8}";
target = "{2, 7}";
},
{
origin = "{2, 0}";
target = "{1, 15}";
}
);
layerId = "D0C94BA9-7956-4545-877F-F891ABB04BC1";
name = Regular;
paths = (
{
closed = 1;
nodes = (
"694 703 LINE SMOOTH",
"741 703 OFFCURVE",
"783 684 OFFCURVE",
"815 653 CURVE SMOOTH",
"846 621 OFFCURVE",
"865 579 OFFCURVE",
"865 532 CURVE SMOOTH",
"865 14 LINE SMOOTH",
"865 -33 OFFCURVE",
"846 -76 OFFCURVE",
"815 -107 CURVE SMOOTH",
"783 -138 OFFCURVE",
"741 -157 OFFCURVE",
"694 -157 CURVE SMOOTH",
"176 -157 LINE SMOOTH",
"129 -157 OFFCURVE",
"86 -138 OFFCURVE",
"55 -107 CURVE SMOOTH",
"24 -76 OFFCURVE",
"5 -33 OFFCURVE",
"5 14 CURVE SMOOTH",
"5 532 LINE SMOOTH",
"5 579 OFFCURVE",
"24 621 OFFCURVE",
"55 653 CURVE SMOOTH",
"86 684 OFFCURVE",
"129 703 OFFCURVE",
"176 703 CURVE SMOOTH"
);
},
{
closed = 1;
nodes = (
"765 532 LINE SMOOTH",
"765 571 OFFCURVE",
"733 603 OFFCURVE",
"694 603 CURVE SMOOTH",
"176 603 LINE SMOOTH",
"137 603 OFFCURVE",
"105 571 OFFCURVE",
"105 532 CURVE SMOOTH",
"105 14 LINE SMOOTH",
"105 -25 OFFCURVE",
"137 -57 OFFCURVE",
"176 -57 CURVE SMOOTH",
"694 -57 LINE SMOOTH",
"733 -57 OFFCURVE",
"765 -25 OFFCURVE",
"765 14 CURVE SMOOTH"
);
},
{
closed = 1;
nodes = (
"644 243 LINE SMOOTH",
"644 220 OFFCURVE",
"627 203 OFFCURVE",
"604 203 CURVE SMOOTH",
"264 203 LINE SMOOTH",
"241 203 OFFCURVE",
"224 220 OFFCURVE",
"224 243 CURVE SMOOTH",
"224 303 LINE SMOOTH",
"224 326 OFFCURVE",
"241 343 OFFCURVE",
"264 343 CURVE SMOOTH",
"604 343 LINE SMOOTH",
"627 343 OFFCURVE",
"644 326 OFFCURVE",
"644 303 CURVE SMOOTH"
);
}
);
width = 870;
}
);
unicode = E024;
},
{
glyphname = square.plus.o;
lastChange = "2014-06-17 10:30:54 +0000";
layers = (
{
hints = (
{
horizontal = 1;
origin = "{1, 11}";
target = "{2, 13}";
},
{
horizontal = 1;
origin = "{2, 30}";
target = "{1, 4}";
},
{
origin = "{1, 8}";
target = "{2, 21}";
},
{
origin = "{2, 4}";
target = "{1, 15}";
}
);
layerId = "D0C94BA9-7956-4545-877F-F891ABB04BC1";
name = Regular;
paths = (
{
closed = 1;
nodes = (
"694 703 LINE SMOOTH",
"741 703 OFFCURVE",
"783 684 OFFCURVE",
"815 653 CURVE SMOOTH",
"846 621 OFFCURVE",
"865 579 OFFCURVE",
"865 532 CURVE SMOOTH",
"865 14 LINE SMOOTH",
"865 -33 OFFCURVE",
"846 -76 OFFCURVE",
"815 -107 CURVE SMOOTH",
"783 -138 OFFCURVE",
"741 -157 OFFCURVE",
"694 -157 CURVE SMOOTH",
"176 -157 LINE SMOOTH",
"129 -157 OFFCURVE",
"86 -138 OFFCURVE",
"55 -107 CURVE SMOOTH",
"24 -76 OFFCURVE",
"5 -33 OFFCURVE",
"5 14 CURVE SMOOTH",
"5 532 LINE SMOOTH",
"5 579 OFFCURVE",
"24 621 OFFCURVE",
"55 653 CURVE SMOOTH",
"86 684 OFFCURVE",
"129 703 OFFCURVE",
"176 703 CURVE SMOOTH"
);
},
{
closed = 1;
nodes = (
"765 532 LINE SMOOTH",
"765 571 OFFCURVE",
"733 603 OFFCURVE",
"694 603 CURVE SMOOTH",
"176 603 LINE SMOOTH",
"137 603 OFFCURVE",
"105 571 OFFCURVE",
"105 532 CURVE SMOOTH",
"105 14 LINE SMOOTH",
"105 -25 OFFCURVE",
"137 -57 OFFCURVE",
"176 -57 CURVE SMOOTH",
"694 -57 LINE SMOOTH",
"733 -57 OFFCURVE",
"765 -25 OFFCURVE",
"765 14 CURVE SMOOTH"
);
},
{
closed = 1;
nodes = (
"604 343 LINE SMOOTH",
"627 343 OFFCURVE",
"644 326 OFFCURVE",
"644 303 CURVE SMOOTH",
"644 243 LINE SMOOTH",
"644 220 OFFCURVE",
"627 203 OFFCURVE",
"604 203 CURVE SMOOTH",
"505 203 LINE",
"505 103 LINE SMOOTH",
"505 80 OFFCURVE",
"488 63 OFFCURVE",
"465 63 CURVE SMOOTH",
"405 63 LINE SMOOTH",
"382 63 OFFCURVE",
"365 80 OFFCURVE",
"365 103 CURVE SMOOTH",
"365 203 LINE",
"264 203 LINE SMOOTH",
"241 203 OFFCURVE",
"224 220 OFFCURVE",
"224 243 CURVE SMOOTH",
"224 303 LINE SMOOTH",
"224 326 OFFCURVE",
"241 343 OFFCURVE",
"264 343 CURVE SMOOTH",
"365 343 LINE",
"365 443 LINE SMOOTH",
"365 466 OFFCURVE",
"382 483 OFFCURVE",
"405 483 CURVE SMOOTH",
"465 483 LINE SMOOTH",
"488 483 OFFCURVE",
"505 466 OFFCURVE",
"505 443 CURVE SMOOTH",
"505 343 LINE"
);
}
);
width = 870;
}
);
unicode = E023;
},
{
glyphname = star.half;
lastChange = "2014-06-17 10:30:54 +0000";
layers = (
{
layerId = "D0C94BA9-7956-4545-877F-F891ABB04BC1";
name = Regular;
paths = (
{
closed = 1;
nodes = (
"457 703 LINE",
"317 420 LINE",
"5 375 LINE",
"231 154 LINE",
"178 -157 LINE",
"457 -10 LINE"
);
}
);
width = 462;
}
);
unicode = E108;
},
{
glyphname = star.half.o;
lastChange = "2014-06-17 10:30:54 +0000";
layers = (
{
layerId = "D0C94BA9-7956-4545-877F-F891ABB04BC1";
name = Regular;
paths = (
{
closed = 1;
nodes = (
"597 420 LINE",
"457 703 LINE",
"317 420 LINE",
"5 375 LINE",
"231 154 LINE",
"178 -157 LINE",
"457 -10 LINE",
"737 -157 LINE",
"683 154 LINE",
"909 375 LINE"
);
},
{
closed = 1;
nodes = (
"457 477 LINE",
"530 329 LINE",
"694 305 LINE",
"576 189 LINE",
"604 26 LINE",
"457 103 LINE"
);
}
);
width = 914;
}
);
unicode = E109;
},
{
glyphname = star.o;
lastChange = "2014-06-17 10:30:54 +0000";
layers = (
{
layerId = "D0C94BA9-7956-4545-877F-F891ABB04BC1";
name = Regular;
paths = (
{
closed = 1;
nodes = (
"597 420 LINE",
"457 703 LINE",
"317 420 LINE",
"5 375 LINE",
"231 154 LINE",
"178 -157 LINE",
"457 -10 LINE",
"737 -157 LINE",
"683 154 LINE",
"909 375 LINE"
);
},
{
closed = 1;
nodes = (
"311 26 LINE",
"339 189 LINE",
"220 305 LINE",
"384 329 LINE",
"457 477 LINE",
"530 329 LINE",
"694 305 LINE",
"576 189 LINE",
"604 26 LINE",
"457 103 LINE"
);
}
);
width = 914;
}
);
unicode = E107;
},
{
glyphname = tag.o;
lastChange = "2014-06-16 13:53:16 +0000";
layers = (
{
layerId = "D0C94BA9-7956-4545-877F-F891ABB04BC1";
name = Regular;
paths = (
{
closed = 1;
nodes = (
"724 523 LINE SMOOTH",
"725 548 OFFCURVE",
"716 573 OFFCURVE",
"698 591 CURVE SMOOTH",
"680 608 OFFCURVE",
"656 618 OFFCURVE",
"631 616 CURVE SMOOTH",
"384 600 LINE SMOOTH",
"363 598 OFFCURVE",
"343 589 OFFCURVE",
"328 574 CURVE SMOOTH",
"17 264 LINE SMOOTH",
"1 247 OFFCURVE",
"1 219 OFFCURVE",
"17 202 CURVE SMOOTH",
"310 -90 LINE SMOOTH",
"327 -107 OFFCURVE",
"354 -107 OFFCURVE",
"371 -90 CURVE SMOOTH",
"682 221 LINE SMOOTH",
"697 236 OFFCURVE",
"706 256 OFFCURVE",
"707 277 CURVE SMOOTH"
);
},
{
closed = 1;
nodes = (
"86 233 LINE",
"378 525 LINE SMOOTH",
"381 528 OFFCURVE",
"385 530 OFFCURVE",
"389 530 CURVE SMOOTH",
"635 546 LINE SMOOTH",
"640 547 OFFCURVE",
"645 545 OFFCURVE",
"649 541 CURVE SMOOTH",
"652 538 OFFCURVE",
"654 533 OFFCURVE",
"654 528 CURVE SMOOTH",
"637 281 LINE SMOOTH",
"637 277 OFFCURVE",
"635 273 OFFCURVE",
"632 270 CURVE SMOOTH",
"340 -22 LINE"
);
},
{
closed = 1;
nodes = (
"551 387 OFFCURVE",
"526 387 OFFCURVE",
"510 403 CURVE SMOOTH",
"495 418 OFFCURVE",
"495 444 OFFCURVE",
"510 459 CURVE SMOOTH",
"526 475 OFFCURVE",
"551 475 OFFCURVE",
"567 459 CURVE SMOOTH",
"583 444 OFFCURVE",
"583 418 OFFCURVE",
"567 403 CURVE SMOOTH"
);
}
);
width = 729;
}
);
unicode = E10C;
},
{
glyphname = triangle.down.circle;
lastChange = "2014-06-17 10:26:04 +0000";
layers = (
{
hints = (
{
horizontal = 1;
origin = "{1, 10}";
target = "{1, 0}";
},
{
origin = "{0, 23}";
target = "{0, 11}";
}
);
layerId = "D0C94BA9-7956-4545-877F-F891ABB04BC1";
name = Regular;
paths = (
{
closed = 1;
nodes = (
"5 393 OFFCURVE",
"54 500 OFFCURVE",
"132 578 CURVE SMOOTH",
"210 656 OFFCURVE",
"316 704 OFFCURVE",
"435 704 CURVE SMOOTH",
"554 704 OFFCURVE",
"661 656 OFFCURVE",
"739 578 CURVE SMOOTH",
"817 500 OFFCURVE",
"865 393 OFFCURVE",
"865 274 CURVE SMOOTH",
"865 155 OFFCURVE",
"817 49 OFFCURVE",
"739 -29 CURVE SMOOTH",
"661 -107 OFFCURVE",
"554 -156 OFFCURVE",
"435 -156 CURVE SMOOTH",
"316 -156 OFFCURVE",
"210 -107 OFFCURVE",
"132 -29 CURVE SMOOTH",
"54 49 OFFCURVE",
"5 155 OFFCURVE",
"5 274 CURVE SMOOTH"
);
},
{
closed = 1;
nodes = (
"240 364 LINE SMOOTH",
"231 364 OFFCURVE",
"225 360 OFFCURVE",
"222 352 CURVE",
"221 349 OFFCURVE",
"220 347 OFFCURVE",
"220 344 CURVE SMOOTH",
"220 338 OFFCURVE",
"222 334 OFFCURVE",
"226 331 CURVE",
"421 135 LINE SMOOTH",
"425 131 OFFCURVE",
"430 129 OFFCURVE",
"435 129 CURVE SMOOTH",
"439 129 OFFCURVE",
"444 131 OFFCURVE",
"449 135 CURVE",
"644 331 LINE",
"648 334 OFFCURVE",
"650 338 OFFCURVE",
"650 344 CURVE SMOOTH",
"650 347 OFFCURVE",
"649 349 OFFCURVE",
"648 352 CURVE",
"645 360 OFFCURVE",
"639 364 OFFCURVE",
"630 364 CURVE SMOOTH"
);
}
);
width = 870;
}
);
unicode = E009;
},
{
glyphname = triangle.left.circle;
lastChange = "2014-06-17 10:26:12 +0000";
layers = (
{
hints = (
{
horizontal = 1;
origin = "{0, 11}";
target = "{0, 23}";
},
{
origin = "{1, 16}";
target = "{1, 26}";
}
);
layerId = "D0C94BA9-7956-4545-877F-F891ABB04BC1";
name = Regular;
paths = (
{
closed = 1;
nodes = (
"554 704 OFFCURVE",
"661 656 OFFCURVE",
"739 578 CURVE SMOOTH",
"817 500 OFFCURVE",
"865 393 OFFCURVE",
"865 274 CURVE SMOOTH",
"865 155 OFFCURVE",
"817 48 OFFCURVE",
"739 -30 CURVE SMOOTH",
"661 -108 OFFCURVE",
"554 -156 OFFCURVE",
"435 -156 CURVE SMOOTH",
"316 -156 OFFCURVE",
"210 -108 OFFCURVE",
"132 -30 CURVE SMOOTH",
"54 48 OFFCURVE",
"5 155 OFFCURVE",
"5 274 CURVE SMOOTH",
"5 393 OFFCURVE",
"54 500 OFFCURVE",
"132 578 CURVE SMOOTH",
"210 656 OFFCURVE",
"316 704 OFFCURVE",
"435 704 CURVE SMOOTH"
);
},
{
closed = 1;
nodes = (
"524 469 LINE SMOOTH",
"524 478 OFFCURVE",
"520 484 OFFCURVE",
"512 487 CURVE",
"508 488 OFFCURVE",
"505 489 OFFCURVE",
"504 489 CURVE SMOOTH",
"499 489 OFFCURVE",
"495 487 OFFCURVE",
"491 483 CURVE SMOOTH",
"296 288 LINE SMOOTH",
"292 284 OFFCURVE",
"290 279 OFFCURVE",
"290 274 CURVE SMOOTH",
"290 270 OFFCURVE",
"292 265 OFFCURVE",
"296 260 CURVE",
"492 65 LINE",
"495 61 OFFCURVE",
"499 59 OFFCURVE",
"505 59 CURVE SMOOTH",
"508 59 OFFCURVE",
"511 59 OFFCURVE",
"512 60 CURVE",
"520 64 OFFCURVE",
"524 70 OFFCURVE",
"524 79 CURVE SMOOTH"
);
}
);
width = 870;
}
);
unicode = E00A;
},
{
glyphname = triangle.left.circle.o;
lastChange = "2014-06-17 10:25:56 +0000";
layers = (
{
hints = (
{
horizontal = 1;
origin = "{2, 11}";
target = "{0, 6}";
},
{
horizontal = 1;
origin = "{0, 20}";
target = "{2, 23}";
},
{
origin = "{2, 5}";
target = "{0, 10}";
},
{
origin = "{0, 0}";
target = "{2, 17}";
}
);
layerId = "D0C94BA9-7956-4545-877F-F891ABB04BC1";
name = Regular;
paths = (
{
closed = 1;
nodes = (
"513 78 LINE SMOOTH",
"513 70 OFFCURVE",
"509 64 OFFCURVE",
"501 59 CURVE",
"500 58 OFFCURVE",
"497 58 OFFCURVE",
"494 58 CURVE SMOOTH",
"487 58 OFFCURVE",
"483 60 OFFCURVE",
"480 64 CURVE",
"284 259 LINE",
"280 264 OFFCURVE",
"278 269 OFFCURVE",
"278 273 CURVE SMOOTH",
"278 278 OFFCURVE",
"280 283 OFFCURVE",
"284 287 CURVE SMOOTH",
"479 482 LINE SMOOTH",
"483 486 OFFCURVE",
"488 488 OFFCURVE",
"493 488 CURVE SMOOTH",
"496 488 OFFCURVE",
"498 487 OFFCURVE",
"501 486 CURVE",
"509 483 OFFCURVE",
"513 477 OFFCURVE",
"513 468 CURVE SMOOTH"
);
},
{
closed = 1;
nodes = (
"5 392 OFFCURVE",
"54 499 OFFCURVE",
"132 577 CURVE SMOOTH",
"210 655 OFFCURVE",
"316 703 OFFCURVE",
"435 703 CURVE SMOOTH",
"554 703 OFFCURVE",
"661 655 OFFCURVE",
"739 577 CURVE SMOOTH",
"817 499 OFFCURVE",
"865 392 OFFCURVE",
"865 273 CURVE SMOOTH",
"865 154 OFFCURVE",
"817 47 OFFCURVE",
"739 -31 CURVE SMOOTH",
"661 -109 OFFCURVE",
"554 -157 OFFCURVE",
"435 -157 CURVE SMOOTH",
"316 -157 OFFCURVE",
"210 -109 OFFCURVE",
"132 -31 CURVE SMOOTH",
"54 47 OFFCURVE",
"5 154 OFFCURVE",
"5 273 CURVE SMOOTH"
);
},
{
closed = 1;
nodes = (
"344 603 OFFCURVE",
"262 566 OFFCURVE",
"202 506 CURVE SMOOTH",
"142 446 OFFCURVE",
"105 364 OFFCURVE",
"105 273 CURVE SMOOTH",
"105 182 OFFCURVE",
"142 100 OFFCURVE",
"202 40 CURVE SMOOTH",
"262 -20 OFFCURVE",
"344 -57 OFFCURVE",
"435 -57 CURVE SMOOTH",
"526 -57 OFFCURVE",
"608 -20 OFFCURVE",
"668 40 CURVE SMOOTH",
"728 100 OFFCURVE",
"765 182 OFFCURVE",
"765 273 CURVE SMOOTH",
"765 364 OFFCURVE",
"728 446 OFFCURVE",
"668 506 CURVE SMOOTH",
"608 566 OFFCURVE",
"526 603 OFFCURVE",
"435 603 CURVE SMOOTH"
);
}
);
width = 870;
}
);
unicode = E006;
},
{
glyphname = triangle.right.circle;
lastChange = "2014-06-17 10:26:33 +0000";
layers = (
{
hints = (
{
horizontal = 1;
origin = "{0, 23}";
target = "{0, 11}";
},
{
origin = "{1, 0}";
target = "{1, 10}";
}
);
layerId = "D0C94BA9-7956-4545-877F-F891ABB04BC1";
name = Regular;
paths = (
{
closed = 1;
nodes = (
"316 -156 OFFCURVE",
"210 -108 OFFCURVE",
"132 -30 CURVE SMOOTH",
"54 48 OFFCURVE",
"5 155 OFFCURVE",
"5 274 CURVE SMOOTH",
"5 393 OFFCURVE",
"54 500 OFFCURVE",
"132 578 CURVE SMOOTH",
"210 656 OFFCURVE",
"316 704 OFFCURVE",
"435 704 CURVE SMOOTH",
"554 704 OFFCURVE",
"661 656 OFFCURVE",
"739 578 CURVE SMOOTH",
"817 500 OFFCURVE",
"865 393 OFFCURVE",
"865 274 CURVE SMOOTH",
"865 155 OFFCURVE",
"817 48 OFFCURVE",
"739 -30 CURVE SMOOTH",
"661 -108 OFFCURVE",
"554 -156 OFFCURVE",
"435 -156 CURVE SMOOTH"
);
},
{
closed = 1;
nodes = (
"345 79 LINE SMOOTH",
"345 71 OFFCURVE",
"349 65 OFFCURVE",
"357 60 CURVE",
"358 59 OFFCURVE",
"361 59 OFFCURVE",
"364 59 CURVE SMOOTH",
"370 59 OFFCURVE",
"375 61 OFFCURVE",
"378 65 CURVE",
"574 260 LINE SMOOTH",
"578 264 OFFCURVE",
"580 269 OFFCURVE",
"580 274 CURVE SMOOTH",
"580 278 OFFCURVE",
"578 283 OFFCURVE",
"574 288 CURVE",
"378 483 LINE",
"375 487 OFFCURVE",
"370 489 OFFCURVE",
"365 489 CURVE SMOOTH",
"362 489 OFFCURVE",
"360 488 OFFCURVE",
"357 487 CURVE",
"349 484 OFFCURVE",
"345 478 OFFCURVE",
"345 469 CURVE SMOOTH"
);
}
);
width = 870;
}
);
unicode = E00B;
},
{
glyphname = triangle.right.circle.o;
lastChange = "2014-06-17 10:31:09 +0000";
layers = (
{
hints = (
{
horizontal = 1;
origin = "{2, 23}";
target = "{0, 20}";
},
{
horizontal = 1;
origin = "{0, 6}";
target = "{2, 11}";
},
{
origin = "{2, 17}";
target = "{0, 26}";
},
{
origin = "{0, 16}";
target = "{2, 5}";
}
);
layerId = "D0C94BA9-7956-4545-877F-F891ABB04BC1";
name = Regular;
paths = (
{
closed = 1;
nodes = (
"357 468 LINE SMOOTH",
"357 477 OFFCURVE",
"361 483 OFFCURVE",
"369 486 CURVE",
"372 487 OFFCURVE",
"374 488 OFFCURVE",
"377 488 CURVE SMOOTH",
"382 488 OFFCURVE",
"387 486 OFFCURVE",
"390 482 CURVE",
"586 287 LINE",
"590 282 OFFCURVE",
"592 277 OFFCURVE",
"592 273 CURVE SMOOTH",
"592 268 OFFCURVE",
"590 263 OFFCURVE",
"586 259 CURVE SMOOTH",
"391 64 LINE SMOOTH",
"387 60 OFFCURVE",
"382 58 OFFCURVE",
"376 58 CURVE SMOOTH",
"373 58 OFFCURVE",
"370 58 OFFCURVE",
"369 59 CURVE",
"361 64 OFFCURVE",
"357 70 OFFCURVE",
"357 78 CURVE SMOOTH"
);
},
{
closed = 1;
nodes = (
"865 154 OFFCURVE",
"817 47 OFFCURVE",
"739 -31 CURVE SMOOTH",
"661 -109 OFFCURVE",
"554 -157 OFFCURVE",
"435 -157 CURVE SMOOTH",
"316 -157 OFFCURVE",
"210 -109 OFFCURVE",
"132 -31 CURVE SMOOTH",
"54 47 OFFCURVE",
"5 154 OFFCURVE",
"5 273 CURVE SMOOTH",
"5 392 OFFCURVE",
"54 499 OFFCURVE",
"132 577 CURVE SMOOTH",
"210 655 OFFCURVE",
"316 703 OFFCURVE",
"435 703 CURVE SMOOTH",
"554 703 OFFCURVE",
"661 655 OFFCURVE",
"739 577 CURVE SMOOTH",
"817 499 OFFCURVE",
"865 392 OFFCURVE",
"865 273 CURVE SMOOTH"
);
},
{
closed = 1;
nodes = (
"526 -57 OFFCURVE",
"608 -20 OFFCURVE",
"668 40 CURVE SMOOTH",
"728 100 OFFCURVE",
"765 182 OFFCURVE",
"765 273 CURVE SMOOTH",
"765 364 OFFCURVE",
"728 446 OFFCURVE",
"668 506 CURVE SMOOTH",
"608 566 OFFCURVE",
"526 603 OFFCURVE",
"435 603 CURVE SMOOTH",
"344 603 OFFCURVE",
"262 566 OFFCURVE",
"202 506 CURVE SMOOTH",
"142 446 OFFCURVE",
"105 364 OFFCURVE",
"105 273 CURVE SMOOTH",
"105 182 OFFCURVE",
"142 100 OFFCURVE",
"202 40 CURVE SMOOTH",
"262 -20 OFFCURVE",
"344 -57 OFFCURVE",
"435 -57 CURVE SMOOTH"
);
}
);
width = 870;
}
);
unicode = E007;
},
{
glyphname = triangle.up.circle;
lastChange = "2014-06-17 10:26:56 +0000";
layers = (
{
hints = (
{
horizontal = 1;
origin = "{1, 26}";
target = "{1, 16}";
},
{
origin = "{0, 11}";
target = "{0, 23}";
}
);
layerId = "D0C94BA9-7956-4545-877F-F891ABB04BC1";
name = Regular;
paths = (
{
closed = 1;
nodes = (
"865 155 OFFCURVE",
"817 48 OFFCURVE",
"739 -30 CURVE SMOOTH",
"661 -108 OFFCURVE",
"554 -156 OFFCURVE",
"435 -156 CURVE SMOOTH",
"316 -156 OFFCURVE",
"210 -108 OFFCURVE",
"132 -30 CURVE SMOOTH",
"54 48 OFFCURVE",
"5 155 OFFCURVE",
"5 274 CURVE SMOOTH",
"5 393 OFFCURVE",
"54 500 OFFCURVE",
"132 578 CURVE SMOOTH",
"210 656 OFFCURVE",
"316 704 OFFCURVE",
"435 704 CURVE SMOOTH",
"554 704 OFFCURVE",
"661 656 OFFCURVE",
"739 578 CURVE SMOOTH",
"817 500 OFFCURVE",
"865 393 OFFCURVE",
"865 274 CURVE SMOOTH"
);
},
{
closed = 1;
nodes = (
"630 184 LINE SMOOTH",
"639 184 OFFCURVE",
"645 188 OFFCURVE",
"648 196 CURVE",
"649 199 OFFCURVE",
"650 201 OFFCURVE",
"650 204 CURVE SMOOTH",
"650 209 OFFCURVE",
"648 214 OFFCURVE",
"644 217 CURVE",
"449 413 LINE",
"444 417 OFFCURVE",
"439 419 OFFCURVE",
"435 419 CURVE SMOOTH",
"431 419 OFFCURVE",
"426 417 OFFCURVE",
"421 413 CURVE",
"226 217 LINE",
"222 214 OFFCURVE",
"220 209 OFFCURVE",
"220 204 CURVE SMOOTH",
"220 201 OFFCURVE",
"221 199 OFFCURVE",
"222 196 CURVE",
"225 188 OFFCURVE",
"231 184 OFFCURVE",
"240 184 CURVE SMOOTH"
);
}
);
width = 870;
}
);
unicode = E008;
},
